G04 PROTEUS GERBER X2 FILE*
%TF.GenerationSoftware,Labcenter,Proteus,8.9-SP0-Build27865*%
%TF.CreationDate,2020-10-13T12:24:17+00:00*%
%TF.FileFunction,Copper,L1,Top*%
%TF.FilePolarity,Positive*%
%TF.Part,Single*%
%TF.SameCoordinates,{eb038a7c-90c0-4424-89c4-d0a3f05e8ce7}*%
%FSLAX45Y45*%
%MOMM*%
G01*
%TA.AperFunction,Conductor*%
%ADD10C,0.762000*%
%ADD11C,0.508000*%
%ADD12C,1.016000*%
%TA.AperFunction,ViaPad*%
%ADD13C,0.762000*%
%TA.AperFunction,ComponentPad*%
%ADD14C,3.048000*%
%TA.AperFunction,SMDPad,CuDef*%
%ADD15R,1.397000X0.609600*%
%TA.AperFunction,SMDPad,CuDef*%
%ADD16R,11.430000X8.890000*%
%ADD17R,2.032000X3.810000*%
%TA.AperFunction,WasherPad*%
%ADD18R,1.280000X1.280000*%
%TA.AperFunction,ComponentPad*%
%ADD19C,1.280000*%
%ADD70C,1.778000*%
%TA.AperFunction,ComponentPad*%
%ADD71C,2.032000*%
%AMDIL012*
4,1,8,
-1.524000,0.330200,-1.219200,0.635000,1.219200,0.635000,1.524000,0.330200,1.524000,-0.330200,
1.219200,-0.635000,-1.219200,-0.635000,-1.524000,-0.330200,-1.524000,0.330200,
0*%
%TA.AperFunction,ComponentPad*%
%ADD20DIL012*%
%TA.AperFunction,ComponentPad*%
%ADD21R,2.032000X2.032000*%
%TA.AperFunction,ComponentPad*%
%ADD22C,2.286000*%
%TA.AperFunction,Profile*%
%ADD23C,0.203200*%
%TD.AperFunction*%
D10*
X+589280Y+4132580D02*
X+589280Y+4889500D01*
X+462280Y+5016500D01*
X-190500Y+5016500D01*
X-317500Y+5143500D01*
X-317500Y+5463540D01*
X-510540Y+5656580D01*
D11*
X+558800Y+6850380D02*
X+381000Y+7028180D01*
X+381000Y+7294880D01*
X+519040Y+7294880D01*
X+1397000Y+7239000D02*
X+1397000Y+7249160D01*
X+1435100Y+7287260D01*
X+1560440Y+7287260D01*
X+2656840Y+6591300D02*
X+2476500Y+6771640D01*
X+2476500Y+7292340D01*
X+2650100Y+7292340D01*
X+3637280Y+6591300D02*
X+3302000Y+6926580D01*
X+3302000Y+7112000D01*
X+3489960Y+7299960D01*
X+3628000Y+7299960D01*
X+4381500Y+7302500D02*
X+4389120Y+7310120D01*
X+4566920Y+7310120D01*
D10*
X-1031240Y+3172460D02*
X-1651000Y+3172460D01*
X-1902460Y+2921000D01*
X-2667000Y+2921000D01*
X-2794000Y+3048000D01*
X-2794000Y+4074160D01*
X-3022600Y+4074160D01*
X-6350000Y+2885440D02*
X-6068060Y+2603500D01*
X-4699000Y+2603500D01*
X-4249960Y+3052540D01*
X-3952240Y+3052540D01*
X-1033780Y+1526540D02*
X-1221740Y+1714500D01*
X-4445000Y+1714500D01*
X+850900Y+4716780D02*
X+850900Y+5016500D01*
X+723900Y+5143500D01*
X-63500Y+5143500D01*
X-190500Y+5270500D01*
X-190500Y+6032500D01*
X-317500Y+6159500D01*
X-825500Y+6159500D01*
X-1402080Y+6736080D01*
X-1844040Y+6736080D01*
X+2580640Y+5049520D02*
X+3827780Y+5049520D01*
X+3827780Y+4726940D01*
X+850900Y+4716780D02*
X+850900Y+4445000D01*
X+1016000Y+4445000D01*
X+1143000Y+4572000D01*
X+1143000Y+4699000D01*
X+2222500Y+2159000D02*
X+838200Y+2159000D01*
X+838200Y+1775460D01*
X+2603500Y+2476500D02*
X+3683000Y+2476500D01*
X+3817620Y+2341880D01*
X+3817620Y+1770380D01*
X+2222500Y+2476500D02*
X+2476500Y+2476500D01*
X+2222500Y+2159000D02*
X+2344420Y+2037080D01*
X+2344420Y+1770380D01*
D11*
X-4714240Y+3814540D02*
X-4445000Y+3814540D01*
X-4318000Y+3687540D01*
X-3683000Y+3687540D01*
X-3556000Y+3560540D01*
X-3556000Y+3238500D01*
X-3375660Y+3058160D01*
X-3022600Y+3058160D01*
X+1143000Y+7048500D02*
X+1143000Y+7239000D01*
X+1318260Y+7414260D01*
X+1560440Y+7414260D01*
X-2476500Y+6985000D02*
X-2440940Y+7020560D01*
X-1016000Y+7020560D01*
X-889000Y+6893560D01*
X-889000Y+6667500D01*
D10*
X+2857500Y+5524500D02*
X+2857500Y+7419340D01*
X+2650100Y+7419340D01*
X-1016000Y+5461000D02*
X-1333500Y+5461000D01*
X-1367790Y+5495290D01*
X-1929130Y+5495290D01*
X-2032000Y+5598160D01*
X-2260600Y+5598160D01*
X+3365500Y+7429500D02*
X+3368040Y+7426960D01*
X+3628000Y+7426960D01*
X+2476500Y+5207000D02*
X+2476500Y+5842000D01*
X+952500Y+5207000D02*
X+889000Y+5270500D01*
X+63500Y+5270500D01*
X-63500Y+5397500D01*
X-63500Y+6159500D01*
X-190500Y+6286500D01*
X-508000Y+6286500D01*
X-762000Y+6540500D01*
X-1016000Y+6540500D01*
X-1397000Y+6921500D01*
X-2032000Y+6921500D01*
X-2032000Y+5852161D01*
X-2260600Y+5852160D01*
X-2260600Y+5852161D01*
X+4381500Y+7429500D02*
X+4389120Y+7437120D01*
X+4566920Y+7437120D01*
X+1397000Y+7810500D02*
X+3429000Y+7810500D01*
D12*
X+972820Y+6593840D02*
X+1206500Y+6593840D01*
X+1333500Y+6720840D01*
X+1333500Y+6842760D01*
X+1549400Y+6842760D01*
X+1615440Y+6842760D02*
X+1549400Y+6842760D01*
X+1549400Y+6906260D02*
X+1549400Y+6842760D01*
X-1165860Y+4084320D02*
X-1244600Y+4084320D01*
X-1333500Y+3995420D01*
X-1333500Y+3873500D01*
X-1270000Y+3556000D02*
X-1333500Y+3619500D01*
X-1333500Y+3873500D01*
X-6350000Y+3281680D02*
X-5671820Y+3281680D01*
X-5173980Y+2783840D01*
X-3022600Y+4582160D02*
X-3434620Y+4582160D01*
X-3683000Y+4830540D01*
X-3952240Y+4830540D01*
X-4714240Y+4576540D02*
X-4445000Y+4576540D01*
X-4191000Y+4830540D01*
X-3952240Y+4830540D01*
D11*
X+558800Y+6596380D02*
X+762000Y+6799580D01*
X+762000Y+7167880D01*
X+519040Y+7167880D01*
X+3492500Y+7048500D02*
X+3492500Y+7134860D01*
X+3530600Y+7172960D01*
X+3628000Y+7172960D01*
X+4556760Y+6576060D02*
X+4381500Y+6751320D01*
X+4381500Y+7183120D01*
X+4566920Y+7183120D01*
D12*
X-2839720Y+7345680D02*
X-2565400Y+7620000D01*
X-1297940Y+7620000D01*
X-1026160Y+7348220D01*
D11*
X+1549400Y+6906260D02*
X+1549400Y+7160260D01*
X+1560440Y+7160260D01*
D12*
X-3797300Y+1465580D02*
X-3411220Y+1079500D01*
X-2811780Y+1079500D01*
X-2811780Y+1463040D01*
D11*
X+2656840Y+6845300D02*
X+2650100Y+6852040D01*
X+2650100Y+7165340D01*
D12*
X-3797300Y+1465580D02*
X-3799840Y+1463040D01*
X-4401820Y+1463040D01*
X+3977640Y+6845300D02*
X+3637280Y+6845300D01*
X+2338960Y+5887720D02*
X+2338960Y+3757040D01*
X+2540000Y+3556000D01*
X+3352800Y+4147820D02*
X+2760980Y+3556000D01*
X+2540000Y+3556000D01*
X+1615440Y+6842760D02*
X+1651000Y+6842760D01*
X+1651000Y+6858000D01*
D11*
X-60960Y+7294880D02*
X-218440Y+7294880D01*
X-218440Y+6794500D01*
X-345440Y+6667500D01*
X-635000Y+6667500D01*
X-762000Y+6794500D01*
X-762000Y+6985000D01*
X-889000Y+7112000D01*
X-2209800Y+7112000D01*
X-2443480Y+7345680D01*
D10*
X-60960Y+7294880D02*
X-60960Y+7167880D01*
X+980440Y+7287260D02*
X+713740Y+7287260D01*
X+698500Y+7302500D01*
X-381000Y+7683500D02*
X-381000Y+7302500D01*
D11*
X+980440Y+7287260D02*
X+980440Y+7160260D01*
D10*
X-4798060Y+1463040D02*
X-4798060Y+1714500D01*
X-4671060Y+1841500D01*
X+127000Y+1841500D01*
X+2222500Y+7048500D02*
X+2222500Y+6477000D01*
X+1968500Y+6223000D01*
X+1968500Y+4889500D01*
D11*
X+2070100Y+7165340D02*
X+2070100Y+7292340D01*
X+2070100Y+7165340D02*
X+1905000Y+7165340D01*
X+1905000Y+7048500D01*
X+2222500Y+7048500D01*
X+3048000Y+7048500D02*
X+3175000Y+7048500D01*
X+3175000Y+7299960D01*
X+3048000Y+7299960D01*
X+3048000Y+7048500D02*
X+3048000Y+7172960D01*
D10*
X-4147820Y+7335520D02*
X-4561840Y+6921500D01*
X-5097400Y+6921500D01*
X-5653660Y+6365240D01*
D11*
X-4147820Y+7335520D02*
X-3545840Y+7937500D01*
X+3683000Y+7937500D01*
X+3810000Y+7810500D01*
X+3810000Y+7310120D01*
X+3986920Y+7310120D01*
X+3986920Y+7183120D01*
X-60960Y+7548880D02*
X-60960Y+7421880D01*
D10*
X+127000Y+7429500D02*
X+127000Y+6266180D01*
X+444500Y+5948680D01*
X+596900Y+5948680D01*
D11*
X-60960Y+7548880D02*
X+127000Y+7548880D01*
X+127000Y+7429500D01*
D10*
X+335280Y+4132580D02*
X+342900Y+4140200D01*
X+342900Y+4716780D01*
X-5207000Y+2222500D02*
X-3429000Y+2222500D01*
D11*
X+4127500Y+7620000D02*
X+4127500Y+7437120D01*
X+3986920Y+7437120D01*
X+4127500Y+7747000D02*
X+4127500Y+7620000D01*
D10*
X+4127500Y+7747000D02*
X+4635500Y+7747000D01*
X+4762500Y+7620000D01*
X+4762500Y+3175000D01*
X+4589780Y+3002280D01*
X+3563620Y+3002280D01*
D11*
X+4064000Y+7620000D02*
X+3986920Y+7620000D01*
X+3986920Y+7564120D01*
X+4064000Y+7620000D02*
X+4127500Y+7620000D01*
D10*
X+3309620Y+1770380D02*
X+3309620Y+2159000D01*
X+3182620Y+2286000D01*
X+1524000Y+2286000D01*
X+1397000Y+2413000D01*
X+1397000Y+3591560D01*
X+1577340Y+3771900D01*
X+3309620Y+1770380D02*
X+3309620Y+1397000D01*
X+3644900Y+1397000D01*
X+3868420Y+1173480D01*
X+1905000Y+7556500D02*
X+1905000Y+7683500D01*
X+1778000Y+7683500D01*
X+1778000Y+6413500D01*
X+1270000Y+5905500D01*
X+1270000Y+3007360D01*
X+584200Y+3007360D01*
D11*
X+1905000Y+7556500D02*
X+1905000Y+7419340D01*
X+2070100Y+7419340D01*
X+1905000Y+7556500D02*
X+1915160Y+7546340D01*
X+2070100Y+7546340D01*
D10*
X-1534160Y+5031740D02*
X-2032000Y+4533900D01*
X-2032000Y+3566160D01*
X-2260600Y+3566160D01*
X+330200Y+1775460D02*
X+330200Y+2349500D01*
X+457200Y+2476500D01*
X+1270000Y+2476500D01*
X+330200Y+1775460D02*
X+330200Y+1201420D01*
X+350520Y+1181100D01*
D11*
X+1143000Y+7683500D02*
X+825500Y+7683500D01*
X+825500Y+7414260D01*
X+980440Y+7414260D01*
D10*
X+2349500Y+7683500D02*
X+2349500Y+6604000D01*
X+2667000Y+6286500D01*
X+2667000Y+5461000D01*
X+2794000Y+5334000D01*
X+3573780Y+5334000D01*
X+3573780Y+5958840D01*
X+1143000Y+7683500D02*
X+1143000Y+7541260D01*
X+980440Y+7541260D01*
X+3319780Y+4726940D02*
X+3319780Y+4445000D01*
X+3446780Y+4318000D01*
X+3690620Y+4318000D01*
X+3860800Y+4147820D01*
X+3319780Y+4726940D02*
X+3111500Y+4726940D01*
X+3108960Y+4729480D01*
X+2585720Y+4729480D01*
D11*
X-5539740Y+5664200D02*
X-5341080Y+5465540D01*
X-3683000Y+5465540D01*
X-3296380Y+5852160D01*
X-3022600Y+5852160D01*
D10*
X-5539740Y+4902200D02*
X-5951220Y+4902200D01*
X-6339840Y+5290820D01*
D11*
X+2540000Y+6223000D02*
X+2222500Y+6223000D01*
X+2090420Y+6090920D01*
X+2090420Y+3002280D01*
X+3238500Y+7429500D02*
X+3238500Y+7515860D01*
X+3200400Y+7553960D01*
X+3048000Y+7553960D01*
X+3238500Y+7429500D02*
X+3235960Y+7426960D01*
X+3048000Y+7426960D01*
D10*
X-1536700Y+4719320D02*
X-1905000Y+4351020D01*
X-1905000Y+3312160D01*
X-2260600Y+3312160D01*
X+1836420Y+1770380D02*
X+1836420Y+1993900D01*
X+1798320Y+2032000D01*
X+1778000Y+2032000D01*
X+1836420Y+1770380D02*
X+1836420Y+1193800D01*
X+1849120Y+1181100D01*
D12*
X-4714240Y+4830540D02*
X-5080000Y+4830540D01*
X-5686520Y+4224020D01*
X-5872480Y+4224020D01*
X-1321880Y+6057900D02*
X-1385380Y+5994400D01*
X-1844040Y+5994400D01*
X-1844040Y+6228080D01*
D11*
X+1397000Y+7683500D02*
X+1333500Y+7683500D01*
X+1206500Y+7810500D01*
X+519040Y+7810500D01*
X+519040Y+7548880D01*
D12*
X-398780Y+5930900D02*
X-1079500Y+5930900D01*
X-1143000Y+5994400D01*
X-1258380Y+5994400D01*
X-1321880Y+6057900D01*
D11*
X+3048000Y+7683500D02*
X+2857500Y+7683500D01*
D12*
X-1321880Y+6057900D02*
X-1321880Y+6405880D01*
X+3365500Y+7556500D02*
X+3368040Y+7553960D01*
X+3628000Y+7553960D01*
X+4254500Y+7302500D02*
X+4254500Y+7564120D01*
X+4566920Y+7564120D01*
X+3977640Y+6591300D02*
X+4254500Y+6868160D01*
X+4254500Y+7302500D01*
X+3048000Y+7683500D02*
X+3238500Y+7683500D01*
X+3365500Y+7556500D01*
X+2857500Y+7556500D02*
X+2847340Y+7546340D01*
X+2650100Y+7546340D01*
X+1560440Y+7541260D02*
X+1397000Y+7541260D01*
X+1285240Y+7541260D01*
X+1270000Y+7556500D01*
D11*
X+1397000Y+7541260D02*
X+1397000Y+7683500D01*
X-891540Y+2446020D02*
X-1049020Y+2603500D01*
X-3556000Y+2603500D01*
X-3683000Y+2730500D01*
X-3683000Y+3048922D01*
X-3813618Y+3179540D01*
X-4851400Y+3179540D01*
X-4953000Y+3281140D01*
X-4953000Y+4318000D01*
D12*
X-2794000Y+6540500D02*
X-2771140Y+6540500D01*
X-2771140Y+4836160D01*
X-3022600Y+4836160D01*
D11*
X-2260600Y+4074160D02*
X-2479040Y+4074160D01*
X-2506980Y+4102100D01*
X-2506980Y+5642610D01*
X-2424430Y+5725160D01*
X-1968500Y+5725160D01*
X-1899920Y+5656580D01*
X-1526540Y+5656580D01*
D10*
X-2636520Y+5087620D02*
X-2628900Y+5105400D01*
X-2628900Y+6738620D01*
X-2705100Y+6814820D01*
X-3472180Y+6814820D01*
X-3492500Y+6794500D01*
X-3492500Y+7683500D01*
X-3365500Y+7810500D01*
X+127000Y+7810500D01*
X+254000Y+7683500D01*
X+254000Y+7421880D01*
X+519040Y+7421880D01*
D12*
X+3352800Y+4147820D02*
X+3352800Y+4025900D01*
X+3520440Y+3858260D01*
X+4302760Y+3858260D01*
X+4556760Y+4112260D01*
X+4556760Y+6576060D01*
X+858520Y+1181100D02*
X+1087120Y+952500D01*
X+2230120Y+952500D01*
X+2357120Y+1079500D01*
X+2357120Y+1181100D01*
X-1333500Y+3873500D02*
X-1330960Y+3870960D01*
X+713740Y+3870960D01*
X+843280Y+4000500D01*
X+843280Y+4132580D01*
D13*
X+1397000Y+7239000D03*
X+4381500Y+7302500D03*
X-4445000Y+1714500D03*
X+1143000Y+4699000D03*
X+2603500Y+2476500D03*
X+2476500Y+2476500D03*
X+2222500Y+2476500D03*
X+2222500Y+2159000D03*
X+1143000Y+7048500D03*
X-889000Y+6667500D03*
X-2476500Y+6985000D03*
X+2857500Y+5524500D03*
X-1016000Y+5461000D03*
X+3365500Y+7429500D03*
X+2476500Y+5842000D03*
X+2476500Y+5207000D03*
X+952500Y+5207000D03*
X+4381500Y+7429500D03*
X+3429000Y+7810500D03*
X+1397000Y+7810500D03*
X+3492500Y+7048500D03*
X-1270000Y+3556000D03*
X+698500Y+7302500D03*
X-381000Y+7302500D03*
X-381000Y+7683500D03*
X+127000Y+1841500D03*
X+1968500Y+4889500D03*
X+3048000Y+7048500D03*
X-3429000Y+2222500D03*
X-5207000Y+2222500D03*
X+1270000Y+2476500D03*
X+2349500Y+7683500D03*
X+1143000Y+7683500D03*
X+2540000Y+6223000D03*
X+3238500Y+7429500D03*
X+1778000Y+2032000D03*
X+2857500Y+7683500D03*
X+3365500Y+7556500D03*
X+2857500Y+7556500D03*
X+1270000Y+7556500D03*
X-4953000Y+4318000D03*
X-2794000Y+6540500D03*
X-2636520Y+5087620D03*
D14*
X-6329680Y+7322820D03*
X-5933440Y+7322820D03*
X-5537200Y+7322820D03*
X-5140960Y+7322820D03*
X-4744720Y+7322820D03*
X-3235960Y+7345680D03*
X-2839720Y+7345680D03*
X-2443480Y+7345680D03*
X-2047240Y+7345680D03*
X-4147820Y+7335520D03*
X-3751580Y+7335520D03*
X-4401820Y+1463040D03*
X-4798060Y+1463040D03*
X-5194300Y+1463040D03*
X-5590540Y+1463040D03*
X-5986780Y+1463040D03*
X-6383020Y+1463040D03*
X-3401060Y+1465580D03*
X-3797300Y+1465580D03*
X-2415540Y+1463040D03*
X-2811780Y+1463040D03*
X-6350000Y+2489200D03*
X-6350000Y+2885440D03*
X-6350000Y+3281680D03*
D15*
X-60960Y+7548880D03*
X-60960Y+7421880D03*
X-60960Y+7294880D03*
X-60960Y+7167880D03*
X+519040Y+7167880D03*
X+519040Y+7294880D03*
X+519040Y+7421880D03*
X+519040Y+7548880D03*
X+980440Y+7541260D03*
X+980440Y+7414260D03*
X+980440Y+7287260D03*
X+980440Y+7160260D03*
X+1560440Y+7160260D03*
X+1560440Y+7287260D03*
X+1560440Y+7414260D03*
X+1560440Y+7541260D03*
X+2070100Y+7546340D03*
X+2070100Y+7419340D03*
X+2070100Y+7292340D03*
X+2070100Y+7165340D03*
X+2650100Y+7165340D03*
X+2650100Y+7292340D03*
X+2650100Y+7419340D03*
X+2650100Y+7546340D03*
X+3048000Y+7553960D03*
X+3048000Y+7426960D03*
X+3048000Y+7299960D03*
X+3048000Y+7172960D03*
X+3628000Y+7172960D03*
X+3628000Y+7299960D03*
X+3628000Y+7426960D03*
X+3628000Y+7553960D03*
X+3986920Y+7564120D03*
X+3986920Y+7437120D03*
X+3986920Y+7310120D03*
X+3986920Y+7183120D03*
X+4566920Y+7183120D03*
X+4566920Y+7310120D03*
X+4566920Y+7437120D03*
X+4566920Y+7564120D03*
D16*
X+596900Y+5948680D03*
D17*
X+342900Y+4716780D03*
X+850900Y+4716780D03*
D16*
X+3573780Y+5958840D03*
D17*
X+3319780Y+4726940D03*
X+3827780Y+4726940D03*
D16*
X+584200Y+3007360D03*
D17*
X+330200Y+1775460D03*
X+838200Y+1775460D03*
D16*
X+2090420Y+3002280D03*
D17*
X+1836420Y+1770380D03*
X+2344420Y+1770380D03*
D16*
X+3563620Y+3002280D03*
D17*
X+3309620Y+1770380D03*
X+3817620Y+1770380D03*
D18*
X+1838960Y+5887720D03*
D19*
X+2338960Y+5887720D03*
D70*
X-63500Y+6850380D03*
X-63500Y+6596380D03*
X+972820Y+6847840D03*
X+972820Y+6593840D03*
X+2037080Y+6586220D03*
X+2037080Y+6840220D03*
X+3027680Y+6842760D03*
X+3027680Y+6588760D03*
X+3977640Y+6591300D03*
X+3977640Y+6845300D03*
D71*
X+335280Y+4132580D03*
X+589280Y+4132580D03*
X+843280Y+4132580D03*
X+3860800Y+4147820D03*
X+3606800Y+4147820D03*
X+3352800Y+4147820D03*
X+350520Y+1181100D03*
X+604520Y+1181100D03*
X+858520Y+1181100D03*
X+1849120Y+1181100D03*
X+2103120Y+1181100D03*
X+2357120Y+1181100D03*
X+3868420Y+1173480D03*
X+3614420Y+1173480D03*
X+3360420Y+1173480D03*
D70*
X-1526540Y+5656580D03*
X-510540Y+5656580D03*
X-1529080Y+5334000D03*
X-513080Y+5334000D03*
X-1534160Y+5031740D03*
X-518160Y+5031740D03*
X-1536700Y+4719320D03*
X-520700Y+4719320D03*
X-1531620Y+4394200D03*
X-515620Y+4394200D03*
X+558800Y+6850380D03*
X+558800Y+6596380D03*
X+1615440Y+6588760D03*
X+1615440Y+6842760D03*
X+2656840Y+6591300D03*
X+2656840Y+6845300D03*
X+3637280Y+6591300D03*
X+3637280Y+6845300D03*
X+4556760Y+6576060D03*
X+4556760Y+6830060D03*
X+1564640Y+5049520D03*
X+2580640Y+5049520D03*
X+2585720Y+4729480D03*
X+1569720Y+4729480D03*
X+1572260Y+4411980D03*
X+2588260Y+4411980D03*
X+1572260Y+4097020D03*
X+2588260Y+4097020D03*
X+1577340Y+3771900D03*
X+2593340Y+3771900D03*
D20*
X-3022600Y+6360160D03*
X-3022600Y+6106160D03*
X-3022600Y+5852160D03*
X-3022600Y+5598160D03*
X-3022600Y+5344160D03*
X-3022600Y+5090160D03*
X-3022600Y+4836160D03*
X-3022600Y+4582160D03*
X-3022600Y+4328160D03*
X-3022600Y+4074160D03*
X-3022600Y+3820160D03*
X-3022600Y+3566160D03*
X-3022600Y+3312160D03*
X-3022600Y+3058160D03*
X-2260600Y+3058160D03*
X-2260600Y+3312160D03*
X-2260600Y+3566160D03*
X-2260600Y+3820160D03*
X-2260600Y+4074160D03*
X-2260600Y+4328160D03*
X-2260600Y+4582160D03*
X-2260600Y+4836160D03*
X-2260600Y+5090160D03*
X-2260600Y+5344160D03*
X-2260600Y+5598160D03*
X-2260600Y+5852160D03*
X-2260600Y+6106160D03*
X-2260600Y+6358160D03*
D71*
X-1031240Y+3680460D03*
X-1031240Y+3172460D03*
D70*
X-911860Y+4084320D03*
X-1165860Y+4084320D03*
X-901700Y+2771140D03*
X-1155700Y+2771140D03*
D20*
X-4714240Y+6354540D03*
X-4714240Y+6100540D03*
X-4714240Y+5846540D03*
X-4714240Y+5592540D03*
X-4714240Y+5338540D03*
X-4714240Y+5084540D03*
X-4714240Y+4830540D03*
X-4714240Y+4576540D03*
X-4714240Y+4322540D03*
X-4714240Y+4068540D03*
X-4714240Y+3814540D03*
X-4714240Y+3560540D03*
X-4714240Y+3306540D03*
X-4714240Y+3052540D03*
X-3952240Y+3052540D03*
X-3952240Y+3306540D03*
X-3952240Y+3560540D03*
X-3952240Y+3814540D03*
X-3952240Y+4068540D03*
X-3952240Y+4322540D03*
X-3952240Y+4576540D03*
X-3952240Y+4830540D03*
X-3952240Y+5084540D03*
X-3952240Y+5338540D03*
X-3952240Y+5592540D03*
X-3952240Y+5846540D03*
X-3952240Y+6100540D03*
X-3952240Y+6352540D03*
D71*
X-1033780Y+2034540D03*
X-1033780Y+1526540D03*
D70*
X-891540Y+2446020D03*
X-1145540Y+2446020D03*
X-886460Y+1127760D03*
X-1140460Y+1127760D03*
D21*
X-5539740Y+4902200D03*
D70*
X-5285740Y+4902200D03*
X-5285740Y+5664200D03*
X-5539740Y+5664200D03*
X-5872480Y+4224020D03*
X-5872480Y+5240020D03*
D14*
X-1422400Y+7348220D03*
X-1026160Y+7348220D03*
X-629920Y+7348220D03*
D21*
X-1844040Y+6736080D03*
X-1844040Y+6482080D03*
X-1844040Y+6228080D03*
D22*
X-398780Y+5930900D03*
X-398780Y+6946900D03*
D18*
X-1321880Y+6405880D03*
D19*
X-821880Y+6405880D03*
D21*
X-5673980Y+2783840D03*
D71*
X-5173980Y+2783840D03*
D21*
X-6184900Y+6365240D03*
D71*
X-6684900Y+6365240D03*
D21*
X-5653660Y+6365240D03*
D71*
X-5153660Y+6365240D03*
D14*
X-6339840Y+4102100D03*
X-6339840Y+4498340D03*
X-6339840Y+4894580D03*
X-6339840Y+5290820D03*
D23*
X-7503160Y+607060D02*
X+4927600Y+607060D01*
X+4927600Y+8105140D01*
X-7503160Y+8105140D01*
X-7503160Y+607060D01*
M02*
