G04 PROTEUS GERBER X2 FILE*
%TF.GenerationSoftware,Labcenter,Proteus,8.9-SP0-Build27865*%
%TF.CreationDate,2020-10-13T12:24:17+00:00*%
%TF.FileFunction,Paste,Top*%
%TF.FilePolarity,Positive*%
%TF.Part,Single*%
%TF.SameCoordinates,{eb038a7c-90c0-4424-89c4-d0a3f05e8ce7}*%
%FSLAX45Y45*%
%MOMM*%
G01*
%TA.AperFunction,Material*%
%ADD41R,1.397000X0.609600*%
%TA.AperFunction,Material*%
%ADD42R,11.430000X8.890000*%
%ADD43R,2.032000X3.810000*%
%TA.AperFunction,Profile*%
%ADD23C,0.203200*%
%TD.AperFunction*%
D41*
X-60960Y+7548880D03*
X-60960Y+7421880D03*
X-60960Y+7294880D03*
X-60960Y+7167880D03*
X+519040Y+7167880D03*
X+519040Y+7294880D03*
X+519040Y+7421880D03*
X+519040Y+7548880D03*
X+980440Y+7541260D03*
X+980440Y+7414260D03*
X+980440Y+7287260D03*
X+980440Y+7160260D03*
X+1560440Y+7160260D03*
X+1560440Y+7287260D03*
X+1560440Y+7414260D03*
X+1560440Y+7541260D03*
X+2070100Y+7546340D03*
X+2070100Y+7419340D03*
X+2070100Y+7292340D03*
X+2070100Y+7165340D03*
X+2650100Y+7165340D03*
X+2650100Y+7292340D03*
X+2650100Y+7419340D03*
X+2650100Y+7546340D03*
X+3048000Y+7553960D03*
X+3048000Y+7426960D03*
X+3048000Y+7299960D03*
X+3048000Y+7172960D03*
X+3628000Y+7172960D03*
X+3628000Y+7299960D03*
X+3628000Y+7426960D03*
X+3628000Y+7553960D03*
X+3986920Y+7564120D03*
X+3986920Y+7437120D03*
X+3986920Y+7310120D03*
X+3986920Y+7183120D03*
X+4566920Y+7183120D03*
X+4566920Y+7310120D03*
X+4566920Y+7437120D03*
X+4566920Y+7564120D03*
D42*
X+596900Y+5948680D03*
D43*
X+342900Y+4716780D03*
X+850900Y+4716780D03*
D42*
X+3573780Y+5958840D03*
D43*
X+3319780Y+4726940D03*
X+3827780Y+4726940D03*
D42*
X+584200Y+3007360D03*
D43*
X+330200Y+1775460D03*
X+838200Y+1775460D03*
D42*
X+2090420Y+3002280D03*
D43*
X+1836420Y+1770380D03*
X+2344420Y+1770380D03*
D42*
X+3563620Y+3002280D03*
D43*
X+3309620Y+1770380D03*
X+3817620Y+1770380D03*
D23*
X-7503160Y+607060D02*
X+4927600Y+607060D01*
X+4927600Y+8105140D01*
X-7503160Y+8105140D01*
X-7503160Y+607060D01*
M02*
