G04 PROTEUS GERBER X2 FILE*
%TF.GenerationSoftware,Labcenter,Proteus,8.9-SP0-Build27865*%
%TF.CreationDate,2020-10-13T12:24:17+00:00*%
%TF.FileFunction,AssemblyDrawing,Top*%
%TF.FilePolarity,Positive*%
%TF.Part,Single*%
%TF.SameCoordinates,{eb038a7c-90c0-4424-89c4-d0a3f05e8ce7}*%
%FSLAX45Y45*%
%MOMM*%
G01*
%TA.AperFunction,Profile*%
%ADD23C,0.203200*%
%TA.AperFunction,Material*%
%ADD25C,0.203200*%
%ADD44C,1.219200*%
%ADD45C,0.272410*%
%ADD46C,0.179830*%
%ADD47C,0.181860*%
%ADD48C,0.320040*%
%ADD49C,0.129900*%
%ADD50C,0.283460*%
%ADD51C,0.050000*%
%ADD52C,0.548640*%
%ADD53C,0.258330*%
%ADD54C,4.572000*%
%ADD55C,0.622300*%
%ADD56C,0.512000*%
%ADD57C,0.263750*%
%ADD58C,0.711200*%
%ADD59C,0.164590*%
%ADD60C,0.812800*%
%ADD61C,0.227330*%
%ADD62C,0.240790*%
%ADD63C,0.106680*%
%ADD64C,0.132080*%
%ADD65C,1.143000*%
%ADD66C,0.533400*%
%ADD67C,0.316990*%
%ADD68C,0.296330*%
%ADD69C,0.354330*%
%ADD74C,0.914400*%
%ADD75C,0.172210*%
%ADD76C,0.469390*%
%TD.AperFunction*%
D23*
X-7503160Y+607060D02*
X+4927600Y+607060D01*
X+4927600Y+8105140D01*
X-7503160Y+8105140D01*
X-7503160Y+607060D01*
D25*
X-6581140Y+7025640D02*
X-4401820Y+7025640D01*
X-4401820Y+7807960D01*
X-6581140Y+7807960D01*
X-6581140Y+7025640D01*
D44*
X-6329680Y+7322820D02*
X-6329680Y+7322820D01*
D45*
X-6254242Y+7498525D02*
X-6090793Y+7498525D01*
X-6172518Y+7498525D02*
X-6172518Y+7335076D01*
X-6036310Y+7335076D02*
X-6036310Y+7498525D01*
X-5872861Y+7498525D02*
X-5872861Y+7335076D01*
X-6036310Y+7416800D02*
X-5872861Y+7416800D01*
X-5818378Y+7335076D02*
X-5818378Y+7498525D01*
X-5682171Y+7498525D01*
X-5654929Y+7471283D01*
X-5654929Y+7444042D01*
X-5682171Y+7416800D01*
X-5818378Y+7416800D01*
X-5682171Y+7416800D02*
X-5654929Y+7389559D01*
X-5654929Y+7335076D01*
X-5600446Y+7444042D02*
X-5545963Y+7498525D01*
X-5491480Y+7498525D01*
X-5436997Y+7444042D01*
X-5436997Y+7389559D01*
X-5491480Y+7335076D01*
X-5545963Y+7335076D01*
X-5600446Y+7389559D01*
X-5600446Y+7444042D01*
X-5382514Y+7498525D02*
X-5219065Y+7498525D01*
X-5300790Y+7498525D02*
X-5300790Y+7335076D01*
X-5164582Y+7498525D02*
X-5164582Y+7335076D01*
X-5001133Y+7335076D01*
X-4783201Y+7335076D02*
X-4946650Y+7335076D01*
X-4946650Y+7498525D01*
X-4783201Y+7498525D01*
X-4946650Y+7416800D02*
X-4837684Y+7416800D01*
D25*
X-3487420Y+7048500D02*
X-1689100Y+7048500D01*
X-1689100Y+7830820D01*
X-3487420Y+7830820D01*
X-3487420Y+7048500D01*
D44*
X-3235960Y+7345680D02*
X-3235960Y+7345680D01*
D46*
X-3235652Y+7385710D02*
X-3235652Y+7493609D01*
X-3127754Y+7493609D02*
X-3127754Y+7385710D01*
X-3235652Y+7439660D02*
X-3127754Y+7439660D01*
X-2983889Y+7385710D02*
X-3091787Y+7385710D01*
X-3091787Y+7493609D01*
X-2983889Y+7493609D01*
X-3091787Y+7439660D02*
X-3019855Y+7439660D01*
X-2947922Y+7385710D02*
X-2947922Y+7457643D01*
X-2911956Y+7493609D01*
X-2875990Y+7493609D01*
X-2840024Y+7457643D01*
X-2840024Y+7385710D01*
X-2947922Y+7421676D02*
X-2840024Y+7421676D01*
X-2804057Y+7385710D02*
X-2804057Y+7493609D01*
X-2732125Y+7493609D01*
X-2696159Y+7457643D01*
X-2696159Y+7421676D01*
X-2732125Y+7385710D01*
X-2804057Y+7385710D01*
X-2660192Y+7493609D02*
X-2660192Y+7385710D01*
X-2552294Y+7385710D01*
X-2498344Y+7493609D02*
X-2426412Y+7493609D01*
X-2462378Y+7493609D02*
X-2462378Y+7385710D01*
X-2498344Y+7385710D02*
X-2426412Y+7385710D01*
X-2300530Y+7421676D02*
X-2264564Y+7421676D01*
X-2264564Y+7385710D01*
X-2336496Y+7385710D01*
X-2372462Y+7421676D01*
X-2372462Y+7457643D01*
X-2336496Y+7493609D01*
X-2282547Y+7493609D01*
X-2264564Y+7475626D01*
X-2228597Y+7385710D02*
X-2228597Y+7493609D01*
X-2120699Y+7493609D02*
X-2120699Y+7385710D01*
X-2228597Y+7439660D02*
X-2120699Y+7439660D01*
X-2084732Y+7493609D02*
X-1976834Y+7493609D01*
X-2030783Y+7493609D02*
X-2030783Y+7385710D01*
D25*
X-4399280Y+7038340D02*
X-3489960Y+7038340D01*
X-3489960Y+7820660D01*
X-4399280Y+7820660D01*
X-4399280Y+7038340D01*
D44*
X-4147820Y+7335520D02*
X-4147820Y+7335520D01*
D47*
X-4235602Y+7374940D02*
X-4235602Y+7484059D01*
X-4126484Y+7484059D02*
X-4126484Y+7374940D01*
X-4235602Y+7429500D02*
X-4126484Y+7429500D01*
X-4090111Y+7447686D02*
X-4053739Y+7484059D01*
X-4017366Y+7484059D01*
X-3980993Y+7447686D01*
X-3980993Y+7411313D01*
X-4017366Y+7374940D01*
X-4053739Y+7374940D01*
X-4090111Y+7411313D01*
X-4090111Y+7447686D01*
X-3944620Y+7374940D02*
X-3944620Y+7484059D01*
X-3853689Y+7484059D01*
X-3835502Y+7465872D01*
X-3835502Y+7447686D01*
X-3853689Y+7429500D01*
X-3944620Y+7429500D01*
X-3853689Y+7429500D02*
X-3835502Y+7411313D01*
X-3835502Y+7374940D01*
X-3799129Y+7374940D02*
X-3799129Y+7484059D01*
X-3690011Y+7374940D01*
X-3690011Y+7484059D01*
D25*
X-6710680Y+977900D02*
X-4150360Y+977900D01*
X-4150360Y+1760220D01*
X-6710680Y+1760220D01*
X-6710680Y+977900D01*
D44*
X-4401820Y+1463040D02*
X-4401820Y+1463040D01*
D48*
X-6326632Y+1305052D02*
X-6294628Y+1273048D01*
X-6166612Y+1273048D01*
X-6134608Y+1305052D01*
X-6134608Y+1337056D01*
X-6166612Y+1369060D01*
X-6294628Y+1369060D01*
X-6326632Y+1401064D01*
X-6326632Y+1433068D01*
X-6294628Y+1465072D01*
X-6166612Y+1465072D01*
X-6134608Y+1433068D01*
X-6070600Y+1465072D02*
X-6070600Y+1273048D01*
X-5974588Y+1369060D01*
X-5878576Y+1273048D01*
X-5878576Y+1465072D01*
X-5782564Y+1465072D02*
X-5654548Y+1465072D01*
X-5718556Y+1465072D02*
X-5718556Y+1273048D01*
X-5782564Y+1273048D02*
X-5654548Y+1273048D01*
X-5558536Y+1465072D02*
X-5366512Y+1465072D01*
X-5462524Y+1465072D02*
X-5462524Y+1273048D01*
X-5110480Y+1305052D02*
X-5142484Y+1273048D01*
X-5238496Y+1273048D01*
X-5302504Y+1337056D01*
X-5302504Y+1401064D01*
X-5238496Y+1465072D01*
X-5142484Y+1465072D01*
X-5110480Y+1433068D01*
X-5046472Y+1273048D02*
X-5046472Y+1465072D01*
X-4854448Y+1465072D02*
X-4854448Y+1273048D01*
X-5046472Y+1369060D02*
X-4854448Y+1369060D01*
X-4758436Y+1433068D02*
X-4726432Y+1465072D01*
X-4630420Y+1465072D01*
X-4598416Y+1433068D01*
X-4598416Y+1401064D01*
X-4630420Y+1369060D01*
X-4726432Y+1369060D01*
X-4758436Y+1337056D01*
X-4758436Y+1273048D01*
X-4598416Y+1273048D01*
D25*
X-4058920Y+980440D02*
X-3149600Y+980440D01*
X-3149600Y+1762760D01*
X-4058920Y+1762760D01*
X-4058920Y+980440D01*
D44*
X-3401060Y+1465580D02*
X-3401060Y+1465580D01*
D49*
X-3916023Y+1332629D02*
X-3916023Y+1410570D01*
X-3851073Y+1410570D01*
X-3838083Y+1397580D01*
X-3838083Y+1384590D01*
X-3851073Y+1371600D01*
X-3838083Y+1358609D01*
X-3838083Y+1345619D01*
X-3851073Y+1332629D01*
X-3916023Y+1332629D01*
X-3916023Y+1371600D02*
X-3851073Y+1371600D01*
X-3812102Y+1332629D02*
X-3812102Y+1410570D01*
X-3747152Y+1410570D01*
X-3734162Y+1397580D01*
X-3734162Y+1384590D01*
X-3747152Y+1371600D01*
X-3812102Y+1371600D01*
X-3747152Y+1371600D02*
X-3734162Y+1358609D01*
X-3734162Y+1332629D01*
X-3708181Y+1332629D02*
X-3708181Y+1384590D01*
X-3682201Y+1410570D01*
X-3656221Y+1410570D01*
X-3630241Y+1384590D01*
X-3630241Y+1332629D01*
X-3708181Y+1358609D02*
X-3630241Y+1358609D01*
X-3604260Y+1410570D02*
X-3604260Y+1332629D01*
X-3526320Y+1410570D02*
X-3565290Y+1371600D01*
X-3526320Y+1332629D01*
X-3604260Y+1371600D02*
X-3565290Y+1371600D01*
X-3422399Y+1332629D02*
X-3500339Y+1332629D01*
X-3500339Y+1410570D01*
X-3422399Y+1410570D01*
X-3500339Y+1371600D02*
X-3448379Y+1371600D01*
X-3370438Y+1384590D02*
X-3344458Y+1410570D01*
X-3344458Y+1332629D01*
D25*
X-3073400Y+977900D02*
X-2164080Y+977900D01*
X-2164080Y+1760220D01*
X-3073400Y+1760220D01*
X-3073400Y+977900D01*
D44*
X-2415540Y+1463040D02*
X-2415540Y+1463040D01*
D49*
X-2930503Y+1330089D02*
X-2930503Y+1408030D01*
X-2865553Y+1408030D01*
X-2852563Y+1395040D01*
X-2852563Y+1382050D01*
X-2865553Y+1369060D01*
X-2852563Y+1356069D01*
X-2852563Y+1343079D01*
X-2865553Y+1330089D01*
X-2930503Y+1330089D01*
X-2930503Y+1369060D02*
X-2865553Y+1369060D01*
X-2826582Y+1330089D02*
X-2826582Y+1408030D01*
X-2761632Y+1408030D01*
X-2748642Y+1395040D01*
X-2748642Y+1382050D01*
X-2761632Y+1369060D01*
X-2826582Y+1369060D01*
X-2761632Y+1369060D02*
X-2748642Y+1356069D01*
X-2748642Y+1330089D01*
X-2722661Y+1330089D02*
X-2722661Y+1382050D01*
X-2696681Y+1408030D01*
X-2670701Y+1408030D01*
X-2644721Y+1382050D01*
X-2644721Y+1330089D01*
X-2722661Y+1356069D02*
X-2644721Y+1356069D01*
X-2618740Y+1408030D02*
X-2618740Y+1330089D01*
X-2540800Y+1408030D02*
X-2579770Y+1369060D01*
X-2540800Y+1330089D01*
X-2618740Y+1369060D02*
X-2579770Y+1369060D01*
X-2436879Y+1330089D02*
X-2514819Y+1330089D01*
X-2514819Y+1408030D01*
X-2436879Y+1408030D01*
X-2514819Y+1369060D02*
X-2462859Y+1369060D01*
X-2397908Y+1395040D02*
X-2384918Y+1408030D01*
X-2345948Y+1408030D01*
X-2332958Y+1395040D01*
X-2332958Y+1382050D01*
X-2345948Y+1369060D01*
X-2384918Y+1369060D01*
X-2397908Y+1356069D01*
X-2397908Y+1330089D01*
X-2332958Y+1330089D01*
D25*
X-6835140Y+2237740D02*
X-6052820Y+2237740D01*
X-6052820Y+3655060D01*
X-6835140Y+3655060D01*
X-6835140Y+2237740D01*
D44*
X-6350000Y+2489200D02*
X-6350000Y+2489200D01*
D50*
X-6529019Y+2492858D02*
X-6529019Y+2662936D01*
X-6529019Y+2577897D02*
X-6358940Y+2577897D01*
X-6358940Y+2719629D02*
X-6472326Y+2719629D01*
X-6529019Y+2776321D01*
X-6529019Y+2833014D01*
X-6472326Y+2889707D01*
X-6358940Y+2889707D01*
X-6415633Y+2719629D02*
X-6415633Y+2889707D01*
X-6529019Y+2974746D02*
X-6529019Y+3088131D01*
X-6529019Y+3031439D02*
X-6358940Y+3031439D01*
X-6358940Y+2974746D02*
X-6358940Y+3088131D01*
X-6529019Y+3173171D02*
X-6358940Y+3173171D01*
X-6358940Y+3343249D01*
D51*
X-155960Y+7068380D02*
X+614040Y+7068380D01*
X+614040Y+7648380D01*
X-155960Y+7648380D01*
X-155960Y+7068380D01*
X+229040Y+7408380D02*
X+229040Y+7308380D01*
X+279040Y+7358380D02*
X+179040Y+7358380D01*
D52*
X-60960Y+7548880D02*
X-60960Y+7548880D01*
D53*
X+22374Y+7435880D02*
X+22374Y+7306713D01*
X+48207Y+7280880D01*
X+151540Y+7280880D01*
X+177373Y+7306713D01*
X+177373Y+7435880D01*
X+280706Y+7384213D02*
X+332373Y+7435880D01*
X+332373Y+7280880D01*
D51*
X+885440Y+7060760D02*
X+1655440Y+7060760D01*
X+1655440Y+7640760D01*
X+885440Y+7640760D01*
X+885440Y+7060760D01*
X+1270440Y+7400760D02*
X+1270440Y+7300760D01*
X+1320440Y+7350760D02*
X+1220440Y+7350760D01*
D52*
X+980440Y+7541260D02*
X+980440Y+7541260D01*
D53*
X+1063774Y+7428260D02*
X+1063774Y+7299093D01*
X+1089607Y+7273260D01*
X+1192940Y+7273260D01*
X+1218773Y+7299093D01*
X+1218773Y+7428260D01*
X+1296273Y+7402427D02*
X+1322106Y+7428260D01*
X+1399606Y+7428260D01*
X+1425439Y+7402427D01*
X+1425439Y+7376593D01*
X+1399606Y+7350760D01*
X+1322106Y+7350760D01*
X+1296273Y+7324927D01*
X+1296273Y+7273260D01*
X+1425439Y+7273260D01*
D51*
X+1975100Y+7065840D02*
X+2745100Y+7065840D01*
X+2745100Y+7645840D01*
X+1975100Y+7645840D01*
X+1975100Y+7065840D01*
X+2360100Y+7405840D02*
X+2360100Y+7305840D01*
X+2410100Y+7355840D02*
X+2310100Y+7355840D01*
D52*
X+2070100Y+7546340D02*
X+2070100Y+7546340D01*
D53*
X+2153434Y+7433340D02*
X+2153434Y+7304173D01*
X+2179267Y+7278340D01*
X+2282600Y+7278340D01*
X+2308433Y+7304173D01*
X+2308433Y+7433340D01*
X+2385933Y+7407507D02*
X+2411766Y+7433340D01*
X+2489266Y+7433340D01*
X+2515099Y+7407507D01*
X+2515099Y+7381673D01*
X+2489266Y+7355840D01*
X+2515099Y+7330007D01*
X+2515099Y+7304173D01*
X+2489266Y+7278340D01*
X+2411766Y+7278340D01*
X+2385933Y+7304173D01*
X+2437599Y+7355840D02*
X+2489266Y+7355840D01*
D51*
X+2953000Y+7073460D02*
X+3723000Y+7073460D01*
X+3723000Y+7653460D01*
X+2953000Y+7653460D01*
X+2953000Y+7073460D01*
X+3338000Y+7413460D02*
X+3338000Y+7313460D01*
X+3388000Y+7363460D02*
X+3288000Y+7363460D01*
D52*
X+3048000Y+7553960D02*
X+3048000Y+7553960D01*
D53*
X+3131334Y+7440960D02*
X+3131334Y+7311793D01*
X+3157167Y+7285960D01*
X+3260500Y+7285960D01*
X+3286333Y+7311793D01*
X+3286333Y+7440960D01*
X+3492999Y+7337627D02*
X+3338000Y+7337627D01*
X+3441333Y+7440960D01*
X+3441333Y+7285960D01*
D51*
X+3891920Y+7083620D02*
X+4661920Y+7083620D01*
X+4661920Y+7663620D01*
X+3891920Y+7663620D01*
X+3891920Y+7083620D01*
X+4276920Y+7423620D02*
X+4276920Y+7323620D01*
X+4326920Y+7373620D02*
X+4226920Y+7373620D01*
D52*
X+3986920Y+7564120D02*
X+3986920Y+7564120D01*
D53*
X+4070254Y+7451120D02*
X+4070254Y+7321953D01*
X+4096087Y+7296120D01*
X+4199420Y+7296120D01*
X+4225253Y+7321953D01*
X+4225253Y+7451120D01*
X+4431919Y+7451120D02*
X+4302753Y+7451120D01*
X+4302753Y+7399453D01*
X+4406086Y+7399453D01*
X+4431919Y+7373620D01*
X+4431919Y+7321953D01*
X+4406086Y+7296120D01*
X+4328586Y+7296120D01*
X+4302753Y+7321953D01*
D25*
X+25400Y+4526280D02*
X+1168400Y+4526280D01*
X+1168400Y+6393180D01*
X+25400Y+6393180D01*
X+25400Y+4526280D01*
D54*
X+596900Y+5948680D02*
X+596900Y+5948680D01*
D55*
X+534670Y+4961890D02*
X+410210Y+5086350D01*
X+410210Y+5210810D01*
X+534670Y+5335270D01*
X+659130Y+5335270D01*
X+783590Y+5210810D01*
X+783590Y+5086350D01*
X+659130Y+4961890D01*
X+534670Y+4961890D01*
X+659130Y+5210810D02*
X+783590Y+5335270D01*
X+534670Y+5584190D02*
X+410210Y+5708650D01*
X+783590Y+5708650D01*
D25*
X+3002280Y+4536440D02*
X+4145280Y+4536440D01*
X+4145280Y+6403340D01*
X+3002280Y+6403340D01*
X+3002280Y+4536440D01*
D54*
X+3573780Y+5958840D02*
X+3573780Y+5958840D01*
D55*
X+3511550Y+4972050D02*
X+3387090Y+5096510D01*
X+3387090Y+5220970D01*
X+3511550Y+5345430D01*
X+3636010Y+5345430D01*
X+3760470Y+5220970D01*
X+3760470Y+5096510D01*
X+3636010Y+4972050D01*
X+3511550Y+4972050D01*
X+3636010Y+5220970D02*
X+3760470Y+5345430D01*
X+3449320Y+5532120D02*
X+3387090Y+5594350D01*
X+3387090Y+5781040D01*
X+3449320Y+5843270D01*
X+3511550Y+5843270D01*
X+3573780Y+5781040D01*
X+3573780Y+5594350D01*
X+3636010Y+5532120D01*
X+3760470Y+5532120D01*
X+3760470Y+5843270D01*
D25*
X+12700Y+1584960D02*
X+1155700Y+1584960D01*
X+1155700Y+3451860D01*
X+12700Y+3451860D01*
X+12700Y+1584960D01*
D54*
X+584200Y+3007360D02*
X+584200Y+3007360D01*
D55*
X+521970Y+2020570D02*
X+397510Y+2145030D01*
X+397510Y+2269490D01*
X+521970Y+2393950D01*
X+646430Y+2393950D01*
X+770890Y+2269490D01*
X+770890Y+2145030D01*
X+646430Y+2020570D01*
X+521970Y+2020570D01*
X+646430Y+2269490D02*
X+770890Y+2393950D01*
X+459740Y+2580640D02*
X+397510Y+2642870D01*
X+397510Y+2829560D01*
X+459740Y+2891790D01*
X+521970Y+2891790D01*
X+584200Y+2829560D01*
X+646430Y+2891790D01*
X+708660Y+2891790D01*
X+770890Y+2829560D01*
X+770890Y+2642870D01*
X+708660Y+2580640D01*
X+584200Y+2705100D02*
X+584200Y+2829560D01*
D25*
X+1518920Y+1579880D02*
X+2661920Y+1579880D01*
X+2661920Y+3446780D01*
X+1518920Y+3446780D01*
X+1518920Y+1579880D01*
D54*
X+2090420Y+3002280D02*
X+2090420Y+3002280D01*
D55*
X+2028190Y+2015490D02*
X+1903730Y+2139950D01*
X+1903730Y+2264410D01*
X+2028190Y+2388870D01*
X+2152650Y+2388870D01*
X+2277110Y+2264410D01*
X+2277110Y+2139950D01*
X+2152650Y+2015490D01*
X+2028190Y+2015490D01*
X+2152650Y+2264410D02*
X+2277110Y+2388870D01*
X+2152650Y+2886710D02*
X+2152650Y+2513330D01*
X+1903730Y+2762250D01*
X+2277110Y+2762250D01*
D25*
X+2992120Y+1579880D02*
X+4135120Y+1579880D01*
X+4135120Y+3446780D01*
X+2992120Y+3446780D01*
X+2992120Y+1579880D01*
D54*
X+3563620Y+3002280D02*
X+3563620Y+3002280D01*
D55*
X+3501390Y+2015490D02*
X+3376930Y+2139950D01*
X+3376930Y+2264410D01*
X+3501390Y+2388870D01*
X+3625850Y+2388870D01*
X+3750310Y+2264410D01*
X+3750310Y+2139950D01*
X+3625850Y+2015490D01*
X+3501390Y+2015490D01*
X+3625850Y+2264410D02*
X+3750310Y+2388870D01*
X+3376930Y+2886710D02*
X+3376930Y+2575560D01*
X+3501390Y+2575560D01*
X+3501390Y+2824480D01*
X+3563620Y+2886710D01*
X+3688080Y+2886710D01*
X+3750310Y+2824480D01*
X+3750310Y+2637790D01*
X+3688080Y+2575560D01*
D51*
X+2113960Y+5887720D02*
X+2113874Y+5889796D01*
X+2113172Y+5893949D01*
X+2111702Y+5898102D01*
X+2109300Y+5902255D01*
X+2105627Y+5906354D01*
X+2101474Y+5909363D01*
X+2097321Y+5911280D01*
X+2093168Y+5912363D01*
X+2089015Y+5912720D01*
X+2088960Y+5912720D01*
X+2063960Y+5887720D02*
X+2064046Y+5889796D01*
X+2064748Y+5893949D01*
X+2066218Y+5898102D01*
X+2068620Y+5902255D01*
X+2072293Y+5906354D01*
X+2076446Y+5909363D01*
X+2080599Y+5911280D01*
X+2084752Y+5912363D01*
X+2088905Y+5912720D01*
X+2088960Y+5912720D01*
X+2063960Y+5887720D02*
X+2064046Y+5885644D01*
X+2064748Y+5881491D01*
X+2066218Y+5877338D01*
X+2068620Y+5873185D01*
X+2072293Y+5869086D01*
X+2076446Y+5866077D01*
X+2080599Y+5864160D01*
X+2084752Y+5863077D01*
X+2088905Y+5862720D01*
X+2088960Y+5862720D01*
X+2113960Y+5887720D02*
X+2113874Y+5885644D01*
X+2113172Y+5881491D01*
X+2111702Y+5877338D01*
X+2109300Y+5873185D01*
X+2105627Y+5869086D01*
X+2101474Y+5866077D01*
X+2097321Y+5864160D01*
X+2093168Y+5863077D01*
X+2089015Y+5862720D01*
X+2088960Y+5862720D01*
X+2123960Y+5887720D02*
X+2053960Y+5887720D01*
X+2088960Y+5922720D02*
X+2088960Y+5852720D01*
X+1563960Y+6412720D02*
X+1563960Y+5887720D01*
X+1566612Y+5833158D01*
X+1574406Y+5780375D01*
X+1587103Y+5729610D01*
X+1604463Y+5681104D01*
X+1626245Y+5635098D01*
X+1652208Y+5591831D01*
X+1682112Y+5551544D01*
X+1715718Y+5514478D01*
X+1752784Y+5480872D01*
X+1793071Y+5450968D01*
X+1836338Y+5425005D01*
X+1882344Y+5403223D01*
X+1930850Y+5385863D01*
X+1981615Y+5373166D01*
X+2034398Y+5365372D01*
X+2088960Y+5362720D01*
X+2143522Y+5365372D01*
X+2196305Y+5373166D01*
X+2247070Y+5385863D01*
X+2295576Y+5403223D01*
X+2341582Y+5425005D01*
X+2384849Y+5450968D01*
X+2425136Y+5480872D01*
X+2462202Y+5514478D01*
X+2495808Y+5551544D01*
X+2525712Y+5591831D01*
X+2551675Y+5635098D01*
X+2573457Y+5681104D01*
X+2590817Y+5729610D01*
X+2603514Y+5780375D01*
X+2611308Y+5833158D01*
X+2613960Y+5887720D01*
X+2611308Y+5942282D01*
X+2603514Y+5995065D01*
X+2590817Y+6045830D01*
X+2573457Y+6094336D01*
X+2551675Y+6140342D01*
X+2525712Y+6183609D01*
X+2495808Y+6223896D01*
X+2462202Y+6260962D01*
X+2425136Y+6294568D01*
X+2384849Y+6324472D01*
X+2341582Y+6350435D01*
X+2295576Y+6372217D01*
X+2247070Y+6389577D01*
X+2196305Y+6402274D01*
X+2143522Y+6410068D01*
X+2088960Y+6412720D01*
X+1563960Y+6412720D01*
D56*
X+2338960Y+5887720D02*
X+2338960Y+5887720D01*
D57*
X+1930710Y+5834970D02*
X+1904335Y+5808595D01*
X+1825210Y+5808595D01*
X+1772460Y+5861345D01*
X+1772460Y+5914095D01*
X+1825210Y+5966845D01*
X+1904335Y+5966845D01*
X+1930710Y+5940470D01*
X+2009835Y+5940470D02*
X+2036210Y+5966845D01*
X+2115335Y+5966845D01*
X+2141710Y+5940470D01*
X+2141710Y+5914095D01*
X+2115335Y+5887720D01*
X+2036210Y+5887720D01*
X+2009835Y+5861345D01*
X+2009835Y+5808595D01*
X+2141710Y+5808595D01*
X+2247210Y+5914095D02*
X+2299960Y+5966845D01*
X+2299960Y+5808595D01*
D25*
X-200660Y+6459220D02*
X+73660Y+6459220D01*
X+73660Y+6987540D01*
X-200660Y+6987540D01*
X-200660Y+6459220D01*
D58*
X-63500Y+6850380D02*
X-63500Y+6850380D01*
D59*
X-30581Y+6690461D02*
X-14122Y+6674002D01*
X-14122Y+6624625D01*
X-47040Y+6591707D01*
X-79959Y+6591707D01*
X-112877Y+6624625D01*
X-112877Y+6674002D01*
X-96418Y+6690461D01*
X-79959Y+6756298D02*
X-112877Y+6789216D01*
X-14122Y+6789216D01*
D25*
X+835660Y+6456680D02*
X+1109980Y+6456680D01*
X+1109980Y+6985000D01*
X+835660Y+6985000D01*
X+835660Y+6456680D01*
D58*
X+972820Y+6847840D02*
X+972820Y+6847840D01*
D59*
X+1005739Y+6687921D02*
X+1022198Y+6671462D01*
X+1022198Y+6622085D01*
X+989280Y+6589167D01*
X+956361Y+6589167D01*
X+923443Y+6622085D01*
X+923443Y+6671462D01*
X+939902Y+6687921D01*
X+939902Y+6737299D02*
X+923443Y+6753758D01*
X+923443Y+6803135D01*
X+939902Y+6819594D01*
X+956361Y+6819594D01*
X+972820Y+6803135D01*
X+972820Y+6753758D01*
X+989280Y+6737299D01*
X+1022198Y+6737299D01*
X+1022198Y+6819594D01*
D25*
X+1899920Y+6449060D02*
X+2174240Y+6449060D01*
X+2174240Y+6977380D01*
X+1899920Y+6977380D01*
X+1899920Y+6449060D01*
D58*
X+2037080Y+6586220D02*
X+2037080Y+6586220D01*
D59*
X+2069999Y+6680301D02*
X+2086458Y+6663842D01*
X+2086458Y+6614465D01*
X+2053540Y+6581547D01*
X+2020621Y+6581547D01*
X+1987703Y+6614465D01*
X+1987703Y+6663842D01*
X+2004162Y+6680301D01*
X+2004162Y+6729679D02*
X+1987703Y+6746138D01*
X+1987703Y+6795515D01*
X+2004162Y+6811974D01*
X+2020621Y+6811974D01*
X+2037080Y+6795515D01*
X+2053540Y+6811974D01*
X+2069999Y+6811974D01*
X+2086458Y+6795515D01*
X+2086458Y+6746138D01*
X+2069999Y+6729679D01*
X+2037080Y+6762597D02*
X+2037080Y+6795515D01*
D25*
X+2890520Y+6451600D02*
X+3164840Y+6451600D01*
X+3164840Y+6979920D01*
X+2890520Y+6979920D01*
X+2890520Y+6451600D01*
D58*
X+3027680Y+6842760D02*
X+3027680Y+6842760D01*
D59*
X+3060599Y+6682841D02*
X+3077058Y+6666382D01*
X+3077058Y+6617005D01*
X+3044140Y+6584087D01*
X+3011221Y+6584087D01*
X+2978303Y+6617005D01*
X+2978303Y+6666382D01*
X+2994762Y+6682841D01*
X+3044140Y+6814514D02*
X+3044140Y+6715760D01*
X+2978303Y+6781596D01*
X+3077058Y+6781596D01*
D25*
X+3840480Y+6454140D02*
X+4114800Y+6454140D01*
X+4114800Y+6982460D01*
X+3840480Y+6982460D01*
X+3840480Y+6454140D01*
D58*
X+3977640Y+6591300D02*
X+3977640Y+6591300D01*
D59*
X+4010559Y+6685381D02*
X+4027018Y+6668922D01*
X+4027018Y+6619545D01*
X+3994100Y+6586627D01*
X+3961181Y+6586627D01*
X+3928263Y+6619545D01*
X+3928263Y+6668922D01*
X+3944722Y+6685381D01*
X+3928263Y+6817054D02*
X+3928263Y+6734759D01*
X+3961181Y+6734759D01*
X+3961181Y+6800595D01*
X+3977640Y+6817054D01*
X+4010559Y+6817054D01*
X+4027018Y+6800595D01*
X+4027018Y+6751218D01*
X+4010559Y+6734759D01*
D25*
X+134620Y+3931920D02*
X+1043940Y+3931920D01*
X+1043940Y+4333240D01*
X+134620Y+4333240D01*
X+134620Y+3931920D01*
D60*
X+335280Y+4132580D02*
X+335280Y+4132580D01*
D61*
X+316484Y+4155313D02*
X+361950Y+4200779D01*
X+407416Y+4200779D01*
X+452882Y+4155313D01*
X+452882Y+4109847D01*
X+407416Y+4064381D01*
X+361950Y+4064381D01*
X+316484Y+4109847D01*
X+316484Y+4155313D01*
X+407416Y+4109847D02*
X+452882Y+4064381D01*
X+543814Y+4155313D02*
X+589280Y+4200779D01*
X+589280Y+4064381D01*
X+702945Y+4178046D02*
X+725678Y+4200779D01*
X+793877Y+4200779D01*
X+816610Y+4178046D01*
X+816610Y+4155313D01*
X+793877Y+4132580D01*
X+725678Y+4132580D01*
X+702945Y+4109847D01*
X+702945Y+4064381D01*
X+816610Y+4064381D01*
D25*
X+3152140Y+3947160D02*
X+4061460Y+3947160D01*
X+4061460Y+4348480D01*
X+3152140Y+4348480D01*
X+3152140Y+3947160D01*
D60*
X+3860800Y+4147820D02*
X+3860800Y+4147820D01*
D61*
X+3334004Y+4170553D02*
X+3379470Y+4216019D01*
X+3424936Y+4216019D01*
X+3470402Y+4170553D01*
X+3470402Y+4125087D01*
X+3424936Y+4079621D01*
X+3379470Y+4079621D01*
X+3334004Y+4125087D01*
X+3334004Y+4170553D01*
X+3424936Y+4125087D02*
X+3470402Y+4079621D01*
X+3561334Y+4170553D02*
X+3606800Y+4216019D01*
X+3606800Y+4079621D01*
X+3743198Y+4170553D02*
X+3788664Y+4216019D01*
X+3788664Y+4079621D01*
D25*
X+149860Y+980440D02*
X+1059180Y+980440D01*
X+1059180Y+1381760D01*
X+149860Y+1381760D01*
X+149860Y+980440D01*
D60*
X+350520Y+1181100D02*
X+350520Y+1181100D01*
D61*
X+331724Y+1203833D02*
X+377190Y+1249299D01*
X+422656Y+1249299D01*
X+468122Y+1203833D01*
X+468122Y+1158367D01*
X+422656Y+1112901D01*
X+377190Y+1112901D01*
X+331724Y+1158367D01*
X+331724Y+1203833D01*
X+422656Y+1158367D02*
X+468122Y+1112901D01*
X+559054Y+1203833D02*
X+604520Y+1249299D01*
X+604520Y+1112901D01*
X+695452Y+1135634D02*
X+695452Y+1226566D01*
X+718185Y+1249299D01*
X+809117Y+1249299D01*
X+831850Y+1226566D01*
X+831850Y+1135634D01*
X+809117Y+1112901D01*
X+718185Y+1112901D01*
X+695452Y+1135634D01*
X+695452Y+1112901D02*
X+831850Y+1249299D01*
D25*
X+1648460Y+980440D02*
X+2557780Y+980440D01*
X+2557780Y+1381760D01*
X+1648460Y+1381760D01*
X+1648460Y+980440D01*
D60*
X+1849120Y+1181100D02*
X+1849120Y+1181100D01*
D62*
X+1910487Y+1205179D02*
X+1958645Y+1253337D01*
X+2006803Y+1253337D01*
X+2054961Y+1205179D01*
X+2054961Y+1157020D01*
X+2006803Y+1108862D01*
X+1958645Y+1108862D01*
X+1910487Y+1157020D01*
X+1910487Y+1205179D01*
X+2006803Y+1157020D02*
X+2054961Y+1108862D01*
X+2247594Y+1205179D02*
X+2223515Y+1181100D01*
X+2151278Y+1181100D01*
X+2127199Y+1205179D01*
X+2127199Y+1229258D01*
X+2151278Y+1253337D01*
X+2223515Y+1253337D01*
X+2247594Y+1229258D01*
X+2247594Y+1132941D01*
X+2223515Y+1108862D01*
X+2151278Y+1108862D01*
D25*
X+3159760Y+972820D02*
X+4069080Y+972820D01*
X+4069080Y+1374140D01*
X+3159760Y+1374140D01*
X+3159760Y+972820D01*
D60*
X+3868420Y+1173480D02*
X+3868420Y+1173480D01*
D62*
X+3421787Y+1197559D02*
X+3469945Y+1245717D01*
X+3518103Y+1245717D01*
X+3566261Y+1197559D01*
X+3566261Y+1149400D01*
X+3518103Y+1101242D01*
X+3469945Y+1101242D01*
X+3421787Y+1149400D01*
X+3421787Y+1197559D01*
X+3518103Y+1149400D02*
X+3566261Y+1101242D01*
X+3662578Y+1173480D02*
X+3638499Y+1197559D01*
X+3638499Y+1221638D01*
X+3662578Y+1245717D01*
X+3734815Y+1245717D01*
X+3758894Y+1221638D01*
X+3758894Y+1197559D01*
X+3734815Y+1173480D01*
X+3662578Y+1173480D01*
X+3638499Y+1149400D01*
X+3638499Y+1125321D01*
X+3662578Y+1101242D01*
X+3734815Y+1101242D01*
X+3758894Y+1125321D01*
X+3758894Y+1149400D01*
X+3734815Y+1173480D01*
D25*
X-1615440Y+5567680D02*
X-421640Y+5567680D01*
X-421640Y+5745480D01*
X-1615440Y+5745480D01*
X-1615440Y+5567680D01*
D58*
X-1526540Y+5656580D02*
X-1526540Y+5656580D01*
D63*
X-1146556Y+5624576D02*
X-1146556Y+5688584D01*
X-1093216Y+5688584D01*
X-1082548Y+5677916D01*
X-1082548Y+5667248D01*
X-1093216Y+5656580D01*
X-1146556Y+5656580D01*
X-1093216Y+5656580D02*
X-1082548Y+5645912D01*
X-1082548Y+5624576D01*
X-1039876Y+5667248D02*
X-1018540Y+5688584D01*
X-1018540Y+5624576D01*
X-954532Y+5656580D02*
X-965200Y+5667248D01*
X-965200Y+5677916D01*
X-954532Y+5688584D01*
X-922528Y+5688584D01*
X-911860Y+5677916D01*
X-911860Y+5667248D01*
X-922528Y+5656580D01*
X-954532Y+5656580D01*
X-965200Y+5645912D01*
X-965200Y+5635244D01*
X-954532Y+5624576D01*
X-922528Y+5624576D01*
X-911860Y+5635244D01*
X-911860Y+5645912D01*
X-922528Y+5656580D01*
D25*
X-1617980Y+5245100D02*
X-424180Y+5245100D01*
X-424180Y+5422900D01*
X-1617980Y+5422900D01*
X-1617980Y+5245100D01*
D58*
X-1529080Y+5334000D02*
X-1529080Y+5334000D01*
D63*
X-1149096Y+5301996D02*
X-1149096Y+5366004D01*
X-1095756Y+5366004D01*
X-1085088Y+5355336D01*
X-1085088Y+5344668D01*
X-1095756Y+5334000D01*
X-1149096Y+5334000D01*
X-1095756Y+5334000D02*
X-1085088Y+5323332D01*
X-1085088Y+5301996D01*
X-1042416Y+5344668D02*
X-1021080Y+5366004D01*
X-1021080Y+5301996D01*
X-967740Y+5355336D02*
X-957072Y+5366004D01*
X-925068Y+5366004D01*
X-914400Y+5355336D01*
X-914400Y+5344668D01*
X-925068Y+5334000D01*
X-914400Y+5323332D01*
X-914400Y+5312664D01*
X-925068Y+5301996D01*
X-957072Y+5301996D01*
X-967740Y+5312664D01*
X-946404Y+5334000D02*
X-925068Y+5334000D01*
D25*
X-1623060Y+4942840D02*
X-429260Y+4942840D01*
X-429260Y+5120640D01*
X-1623060Y+5120640D01*
X-1623060Y+4942840D01*
D58*
X-1534160Y+5031740D02*
X-1534160Y+5031740D01*
D63*
X-1154176Y+4999736D02*
X-1154176Y+5063744D01*
X-1100836Y+5063744D01*
X-1090168Y+5053076D01*
X-1090168Y+5042408D01*
X-1100836Y+5031740D01*
X-1154176Y+5031740D01*
X-1100836Y+5031740D02*
X-1090168Y+5021072D01*
X-1090168Y+4999736D01*
X-1047496Y+5042408D02*
X-1026160Y+5063744D01*
X-1026160Y+4999736D01*
X-919480Y+5021072D02*
X-983488Y+5021072D01*
X-940816Y+5063744D01*
X-940816Y+4999736D01*
D25*
X-1625600Y+4630420D02*
X-431800Y+4630420D01*
X-431800Y+4808220D01*
X-1625600Y+4808220D01*
X-1625600Y+4630420D01*
D58*
X-1536700Y+4719320D02*
X-1536700Y+4719320D01*
D63*
X-1156716Y+4687316D02*
X-1156716Y+4751324D01*
X-1103376Y+4751324D01*
X-1092708Y+4740656D01*
X-1092708Y+4729988D01*
X-1103376Y+4719320D01*
X-1156716Y+4719320D01*
X-1103376Y+4719320D02*
X-1092708Y+4708652D01*
X-1092708Y+4687316D01*
X-1050036Y+4729988D02*
X-1028700Y+4751324D01*
X-1028700Y+4687316D01*
X-922020Y+4751324D02*
X-975360Y+4751324D01*
X-975360Y+4729988D01*
X-932688Y+4729988D01*
X-922020Y+4719320D01*
X-922020Y+4697984D01*
X-932688Y+4687316D01*
X-964692Y+4687316D01*
X-975360Y+4697984D01*
D25*
X-1620520Y+4305300D02*
X-426720Y+4305300D01*
X-426720Y+4483100D01*
X-1620520Y+4483100D01*
X-1620520Y+4305300D01*
D58*
X-1531620Y+4394200D02*
X-1531620Y+4394200D01*
D63*
X-1151636Y+4362196D02*
X-1151636Y+4426204D01*
X-1098296Y+4426204D01*
X-1087628Y+4415536D01*
X-1087628Y+4404868D01*
X-1098296Y+4394200D01*
X-1151636Y+4394200D01*
X-1098296Y+4394200D02*
X-1087628Y+4383532D01*
X-1087628Y+4362196D01*
X-1044956Y+4404868D02*
X-1023620Y+4426204D01*
X-1023620Y+4362196D01*
X-916940Y+4415536D02*
X-927608Y+4426204D01*
X-959612Y+4426204D01*
X-970280Y+4415536D01*
X-970280Y+4372864D01*
X-959612Y+4362196D01*
X-927608Y+4362196D01*
X-916940Y+4372864D01*
X-916940Y+4383532D01*
X-927608Y+4394200D01*
X-970280Y+4394200D01*
D25*
X+421640Y+6459220D02*
X+695960Y+6459220D01*
X+695960Y+6987540D01*
X+421640Y+6987540D01*
X+421640Y+6459220D01*
D58*
X+558800Y+6850380D02*
X+558800Y+6850380D01*
D64*
X+585216Y+6644132D02*
X+598424Y+6630924D01*
X+598424Y+6591300D01*
X+572008Y+6564884D01*
X+545592Y+6564884D01*
X+519176Y+6591300D01*
X+519176Y+6630924D01*
X+532384Y+6644132D01*
X+545592Y+6696964D02*
X+519176Y+6723380D01*
X+598424Y+6723380D01*
X+532384Y+6789420D02*
X+519176Y+6802628D01*
X+519176Y+6842252D01*
X+532384Y+6855460D01*
X+545592Y+6855460D01*
X+558800Y+6842252D01*
X+572008Y+6855460D01*
X+585216Y+6855460D01*
X+598424Y+6842252D01*
X+598424Y+6802628D01*
X+585216Y+6789420D01*
X+558800Y+6815836D02*
X+558800Y+6842252D01*
D25*
X+1478280Y+6451600D02*
X+1752600Y+6451600D01*
X+1752600Y+6979920D01*
X+1478280Y+6979920D01*
X+1478280Y+6451600D01*
D58*
X+1615440Y+6588760D02*
X+1615440Y+6588760D01*
D64*
X+1641856Y+6636512D02*
X+1655064Y+6623304D01*
X+1655064Y+6583680D01*
X+1628648Y+6557264D01*
X+1602232Y+6557264D01*
X+1575816Y+6583680D01*
X+1575816Y+6623304D01*
X+1589024Y+6636512D01*
X+1602232Y+6689344D02*
X+1575816Y+6715760D01*
X+1655064Y+6715760D01*
X+1589024Y+6781800D02*
X+1575816Y+6795008D01*
X+1575816Y+6834632D01*
X+1589024Y+6847840D01*
X+1602232Y+6847840D01*
X+1615440Y+6834632D01*
X+1615440Y+6795008D01*
X+1628648Y+6781800D01*
X+1655064Y+6781800D01*
X+1655064Y+6847840D01*
D25*
X+2519680Y+6454140D02*
X+2794000Y+6454140D01*
X+2794000Y+6982460D01*
X+2519680Y+6982460D01*
X+2519680Y+6454140D01*
D58*
X+2656840Y+6591300D02*
X+2656840Y+6591300D01*
D64*
X+2683256Y+6639052D02*
X+2696464Y+6625844D01*
X+2696464Y+6586220D01*
X+2670048Y+6559804D01*
X+2643632Y+6559804D01*
X+2617216Y+6586220D01*
X+2617216Y+6625844D01*
X+2630424Y+6639052D01*
X+2643632Y+6691884D02*
X+2617216Y+6718300D01*
X+2696464Y+6718300D01*
X+2643632Y+6797548D02*
X+2617216Y+6823964D01*
X+2696464Y+6823964D01*
D25*
X+3500120Y+6454140D02*
X+3774440Y+6454140D01*
X+3774440Y+6982460D01*
X+3500120Y+6982460D01*
X+3500120Y+6454140D01*
D58*
X+3637280Y+6591300D02*
X+3637280Y+6591300D01*
D64*
X+3663696Y+6639052D02*
X+3676904Y+6625844D01*
X+3676904Y+6586220D01*
X+3650488Y+6559804D01*
X+3624072Y+6559804D01*
X+3597656Y+6586220D01*
X+3597656Y+6625844D01*
X+3610864Y+6639052D01*
X+3624072Y+6691884D02*
X+3597656Y+6718300D01*
X+3676904Y+6718300D01*
X+3663696Y+6771132D02*
X+3610864Y+6771132D01*
X+3597656Y+6784340D01*
X+3597656Y+6837172D01*
X+3610864Y+6850380D01*
X+3663696Y+6850380D01*
X+3676904Y+6837172D01*
X+3676904Y+6784340D01*
X+3663696Y+6771132D01*
X+3676904Y+6771132D02*
X+3597656Y+6850380D01*
D25*
X+4419600Y+6438900D02*
X+4693920Y+6438900D01*
X+4693920Y+6967220D01*
X+4419600Y+6967220D01*
X+4419600Y+6438900D01*
D58*
X+4556760Y+6576060D02*
X+4556760Y+6576060D01*
D59*
X+4589679Y+6670141D02*
X+4606138Y+6653682D01*
X+4606138Y+6604305D01*
X+4573220Y+6571387D01*
X+4540301Y+6571387D01*
X+4507383Y+6604305D01*
X+4507383Y+6653682D01*
X+4523842Y+6670141D01*
X+4540301Y+6801814D02*
X+4556760Y+6785355D01*
X+4556760Y+6735978D01*
X+4540301Y+6719519D01*
X+4523842Y+6719519D01*
X+4507383Y+6735978D01*
X+4507383Y+6785355D01*
X+4523842Y+6801814D01*
X+4589679Y+6801814D01*
X+4606138Y+6785355D01*
X+4606138Y+6735978D01*
D25*
X+1475740Y+4960620D02*
X+2669540Y+4960620D01*
X+2669540Y+5138420D01*
X+1475740Y+5138420D01*
X+1475740Y+4960620D01*
D58*
X+1564640Y+5049520D02*
X+1564640Y+5049520D01*
D63*
X+1987296Y+5017516D02*
X+1987296Y+5081524D01*
X+2040636Y+5081524D01*
X+2051304Y+5070856D01*
X+2051304Y+5060188D01*
X+2040636Y+5049520D01*
X+1987296Y+5049520D01*
X+2040636Y+5049520D02*
X+2051304Y+5038852D01*
X+2051304Y+5017516D01*
X+2083308Y+5070856D02*
X+2093976Y+5081524D01*
X+2125980Y+5081524D01*
X+2136648Y+5070856D01*
X+2136648Y+5060188D01*
X+2125980Y+5049520D01*
X+2093976Y+5049520D01*
X+2083308Y+5038852D01*
X+2083308Y+5017516D01*
X+2136648Y+5017516D01*
D25*
X+1480820Y+4640580D02*
X+2674620Y+4640580D01*
X+2674620Y+4818380D01*
X+1480820Y+4818380D01*
X+1480820Y+4640580D01*
D58*
X+2585720Y+4729480D02*
X+2585720Y+4729480D01*
D63*
X+1992376Y+4697476D02*
X+1992376Y+4761484D01*
X+2045716Y+4761484D01*
X+2056384Y+4750816D01*
X+2056384Y+4740148D01*
X+2045716Y+4729480D01*
X+1992376Y+4729480D01*
X+2045716Y+4729480D02*
X+2056384Y+4718812D01*
X+2056384Y+4697476D01*
X+2099056Y+4740148D02*
X+2120392Y+4761484D01*
X+2120392Y+4697476D01*
D25*
X+1483360Y+4323080D02*
X+2677160Y+4323080D01*
X+2677160Y+4500880D01*
X+1483360Y+4500880D01*
X+1483360Y+4323080D01*
D58*
X+1572260Y+4411980D02*
X+1572260Y+4411980D01*
D63*
X+1994916Y+4379976D02*
X+1994916Y+4443984D01*
X+2048256Y+4443984D01*
X+2058924Y+4433316D01*
X+2058924Y+4422648D01*
X+2048256Y+4411980D01*
X+1994916Y+4411980D01*
X+2048256Y+4411980D02*
X+2058924Y+4401312D01*
X+2058924Y+4379976D01*
X+2090928Y+4433316D02*
X+2101596Y+4443984D01*
X+2133600Y+4443984D01*
X+2144268Y+4433316D01*
X+2144268Y+4422648D01*
X+2133600Y+4411980D01*
X+2144268Y+4401312D01*
X+2144268Y+4390644D01*
X+2133600Y+4379976D01*
X+2101596Y+4379976D01*
X+2090928Y+4390644D01*
X+2112264Y+4411980D02*
X+2133600Y+4411980D01*
D25*
X+1483360Y+4008120D02*
X+2677160Y+4008120D01*
X+2677160Y+4185920D01*
X+1483360Y+4185920D01*
X+1483360Y+4008120D01*
D58*
X+1572260Y+4097020D02*
X+1572260Y+4097020D01*
D63*
X+1994916Y+4065016D02*
X+1994916Y+4129024D01*
X+2048256Y+4129024D01*
X+2058924Y+4118356D01*
X+2058924Y+4107688D01*
X+2048256Y+4097020D01*
X+1994916Y+4097020D01*
X+2048256Y+4097020D02*
X+2058924Y+4086352D01*
X+2058924Y+4065016D01*
X+2144268Y+4086352D02*
X+2080260Y+4086352D01*
X+2122932Y+4129024D01*
X+2122932Y+4065016D01*
D25*
X+1488440Y+3683000D02*
X+2682240Y+3683000D01*
X+2682240Y+3860800D01*
X+1488440Y+3860800D01*
X+1488440Y+3683000D01*
D58*
X+1577340Y+3771900D02*
X+1577340Y+3771900D01*
D63*
X+1999996Y+3739896D02*
X+1999996Y+3803904D01*
X+2053336Y+3803904D01*
X+2064004Y+3793236D01*
X+2064004Y+3782568D01*
X+2053336Y+3771900D01*
X+1999996Y+3771900D01*
X+2053336Y+3771900D02*
X+2064004Y+3761232D01*
X+2064004Y+3739896D01*
X+2149348Y+3803904D02*
X+2096008Y+3803904D01*
X+2096008Y+3782568D01*
X+2138680Y+3782568D01*
X+2149348Y+3771900D01*
X+2149348Y+3750564D01*
X+2138680Y+3739896D01*
X+2106676Y+3739896D01*
X+2096008Y+3750564D01*
D25*
X-3086100Y+2982500D02*
X-2197100Y+2982500D01*
X-2197100Y+6431820D01*
X-3086100Y+6431820D01*
X-3086100Y+2982500D01*
D65*
X-3022600Y+6360160D02*
X-3022600Y+6360160D01*
D66*
X-2801620Y+4067080D02*
X-2534920Y+4067080D01*
X-2481580Y+4120420D01*
X-2481580Y+4333780D01*
X-2534920Y+4387120D01*
X-2801620Y+4387120D01*
X-2694940Y+4600480D02*
X-2801620Y+4707160D01*
X-2481580Y+4707160D01*
X-2641600Y+5027200D02*
X-2694940Y+4973860D01*
X-2748280Y+4973860D01*
X-2801620Y+5027200D01*
X-2801620Y+5187220D01*
X-2748280Y+5240560D01*
X-2694940Y+5240560D01*
X-2641600Y+5187220D01*
X-2641600Y+5027200D01*
X-2588260Y+4973860D01*
X-2534920Y+4973860D01*
X-2481580Y+5027200D01*
X-2481580Y+5187220D01*
X-2534920Y+5240560D01*
X-2588260Y+5240560D01*
X-2641600Y+5187220D01*
D25*
X-1295400Y+2908300D02*
X-767080Y+2908300D01*
X-767080Y+3944620D01*
X-1295400Y+3944620D01*
X-1295400Y+2908300D01*
D60*
X-1031240Y+3680460D02*
X-1031240Y+3680460D01*
D67*
X-1126337Y+3172867D02*
X-936142Y+3363061D01*
X-936142Y+3172867D02*
X-1126337Y+3363061D01*
X-1062939Y+3489858D02*
X-1126337Y+3553256D01*
X-936142Y+3553256D01*
D25*
X-1303020Y+3947160D02*
X-774700Y+3947160D01*
X-774700Y+4221480D01*
X-1303020Y+4221480D01*
X-1303020Y+3947160D01*
D58*
X-911860Y+4084320D02*
X-911860Y+4084320D01*
D64*
X-1118108Y+4057904D02*
X-1131316Y+4044696D01*
X-1170940Y+4044696D01*
X-1197356Y+4071112D01*
X-1197356Y+4097528D01*
X-1170940Y+4123944D01*
X-1131316Y+4123944D01*
X-1118108Y+4110736D01*
X-1065276Y+4097528D02*
X-1038860Y+4123944D01*
X-1038860Y+4044696D01*
X-906780Y+4123944D02*
X-972820Y+4123944D01*
X-972820Y+4097528D01*
X-919988Y+4097528D01*
X-906780Y+4084320D01*
X-906780Y+4057904D01*
X-919988Y+4044696D01*
X-959612Y+4044696D01*
X-972820Y+4057904D01*
D25*
X-1292860Y+2633980D02*
X-764540Y+2633980D01*
X-764540Y+2908300D01*
X-1292860Y+2908300D01*
X-1292860Y+2633980D01*
D58*
X-901700Y+2771140D02*
X-901700Y+2771140D01*
D64*
X-1107948Y+2744724D02*
X-1121156Y+2731516D01*
X-1160780Y+2731516D01*
X-1187196Y+2757932D01*
X-1187196Y+2784348D01*
X-1160780Y+2810764D01*
X-1121156Y+2810764D01*
X-1107948Y+2797556D01*
X-1055116Y+2784348D02*
X-1028700Y+2810764D01*
X-1028700Y+2731516D01*
X-896620Y+2797556D02*
X-909828Y+2810764D01*
X-949452Y+2810764D01*
X-962660Y+2797556D01*
X-962660Y+2744724D01*
X-949452Y+2731516D01*
X-909828Y+2731516D01*
X-896620Y+2744724D01*
X-896620Y+2757932D01*
X-909828Y+2771140D01*
X-962660Y+2771140D01*
D25*
X-4777740Y+2976880D02*
X-3888740Y+2976880D01*
X-3888740Y+6426200D01*
X-4777740Y+6426200D01*
X-4777740Y+2976880D01*
D65*
X-4714240Y+6354540D02*
X-4714240Y+6354540D01*
D66*
X-4493260Y+4274820D02*
X-4226560Y+4274820D01*
X-4173220Y+4328160D01*
X-4173220Y+4541520D01*
X-4226560Y+4594860D01*
X-4493260Y+4594860D01*
X-4439920Y+5021580D02*
X-4493260Y+4968240D01*
X-4493260Y+4808220D01*
X-4439920Y+4754880D01*
X-4226560Y+4754880D01*
X-4173220Y+4808220D01*
X-4173220Y+4968240D01*
X-4226560Y+5021580D01*
X-4279900Y+5021580D01*
X-4333240Y+4968240D01*
X-4333240Y+4754880D01*
D25*
X-1297940Y+1262380D02*
X-769620Y+1262380D01*
X-769620Y+2298700D01*
X-1297940Y+2298700D01*
X-1297940Y+1262380D01*
D60*
X-1033780Y+2034540D02*
X-1033780Y+2034540D01*
D67*
X-1128877Y+1526947D02*
X-938682Y+1717141D01*
X-938682Y+1526947D02*
X-1128877Y+1717141D01*
X-1097178Y+1812239D02*
X-1128877Y+1843938D01*
X-1128877Y+1939035D01*
X-1097178Y+1970734D01*
X-1065479Y+1970734D01*
X-1033780Y+1939035D01*
X-1033780Y+1843938D01*
X-1002080Y+1812239D01*
X-938682Y+1812239D01*
X-938682Y+1970734D01*
D25*
X-1282700Y+2308860D02*
X-754380Y+2308860D01*
X-754380Y+2583180D01*
X-1282700Y+2583180D01*
X-1282700Y+2308860D01*
D58*
X-891540Y+2446020D02*
X-891540Y+2446020D01*
D59*
X-1051459Y+2413101D02*
X-1067918Y+2396642D01*
X-1117295Y+2396642D01*
X-1150213Y+2429560D01*
X-1150213Y+2462479D01*
X-1117295Y+2495397D01*
X-1067918Y+2495397D01*
X-1051459Y+2478938D01*
X-985622Y+2446020D02*
X-1002081Y+2462479D01*
X-1002081Y+2478938D01*
X-985622Y+2495397D01*
X-936245Y+2495397D01*
X-919786Y+2478938D01*
X-919786Y+2462479D01*
X-936245Y+2446020D01*
X-985622Y+2446020D01*
X-1002081Y+2429560D01*
X-1002081Y+2413101D01*
X-985622Y+2396642D01*
X-936245Y+2396642D01*
X-919786Y+2413101D01*
X-919786Y+2429560D01*
X-936245Y+2446020D01*
D25*
X-1277620Y+990600D02*
X-749300Y+990600D01*
X-749300Y+1264920D01*
X-1277620Y+1264920D01*
X-1277620Y+990600D01*
D58*
X-886460Y+1127760D02*
X-886460Y+1127760D01*
D64*
X-1092708Y+1101344D02*
X-1105916Y+1088136D01*
X-1145540Y+1088136D01*
X-1171956Y+1114552D01*
X-1171956Y+1140968D01*
X-1145540Y+1167384D01*
X-1105916Y+1167384D01*
X-1092708Y+1154176D01*
X-1053084Y+1154176D02*
X-1039876Y+1167384D01*
X-1000252Y+1167384D01*
X-987044Y+1154176D01*
X-987044Y+1140968D01*
X-1000252Y+1127760D01*
X-1039876Y+1127760D01*
X-1053084Y+1114552D01*
X-1053084Y+1088136D01*
X-987044Y+1088136D01*
X-947420Y+1154176D02*
X-934212Y+1167384D01*
X-894588Y+1167384D01*
X-881380Y+1154176D01*
X-881380Y+1140968D01*
X-894588Y+1127760D01*
X-934212Y+1127760D01*
X-947420Y+1114552D01*
X-947420Y+1088136D01*
X-881380Y+1088136D01*
D25*
X-5676900Y+4838700D02*
X-5148580Y+4838700D01*
X-5148580Y+5727700D01*
X-5676900Y+5727700D01*
X-5676900Y+4838700D01*
D60*
X-5539740Y+4902200D02*
X-5539740Y+4902200D01*
D68*
X-5501640Y+5046134D02*
X-5353473Y+5046134D01*
X-5323840Y+5075767D01*
X-5323840Y+5194300D01*
X-5353473Y+5223933D01*
X-5501640Y+5223933D01*
X-5501640Y+5312833D02*
X-5501640Y+5460999D01*
X-5472007Y+5460999D01*
X-5323840Y+5312833D01*
D25*
X-5961380Y+4135120D02*
X-5783580Y+4135120D01*
X-5783580Y+5328920D01*
X-5961380Y+5328920D01*
X-5961380Y+4135120D01*
D58*
X-5872480Y+4224020D02*
X-5872480Y+4224020D01*
D63*
X-5840476Y+4604004D02*
X-5904484Y+4604004D01*
X-5904484Y+4657344D01*
X-5893816Y+4668012D01*
X-5883148Y+4668012D01*
X-5872480Y+4657344D01*
X-5872480Y+4604004D01*
X-5872480Y+4657344D02*
X-5861812Y+4668012D01*
X-5840476Y+4668012D01*
X-5893816Y+4700016D02*
X-5904484Y+4710684D01*
X-5904484Y+4742688D01*
X-5893816Y+4753356D01*
X-5883148Y+4753356D01*
X-5872480Y+4742688D01*
X-5872480Y+4710684D01*
X-5861812Y+4700016D01*
X-5840476Y+4700016D01*
X-5840476Y+4753356D01*
X-5893816Y+4785360D02*
X-5904484Y+4796028D01*
X-5904484Y+4828032D01*
X-5893816Y+4838700D01*
X-5883148Y+4838700D01*
X-5872480Y+4828032D01*
X-5872480Y+4796028D01*
X-5861812Y+4785360D01*
X-5840476Y+4785360D01*
X-5840476Y+4838700D01*
D25*
X-1673860Y+7051040D02*
X-256540Y+7051040D01*
X-256540Y+7833360D01*
X-1673860Y+7833360D01*
X-1673860Y+7051040D01*
D44*
X-1422400Y+7348220D02*
X-1422400Y+7348220D01*
D69*
X-1390396Y+7548499D02*
X-1390396Y+7442200D01*
X-1284097Y+7335901D01*
X-1177798Y+7442200D01*
X-1177798Y+7548499D01*
X-1071499Y+7548499D02*
X-929767Y+7548499D01*
X-1000633Y+7548499D02*
X-1000633Y+7335901D01*
X-1071499Y+7335901D02*
X-929767Y+7335901D01*
X-823468Y+7335901D02*
X-823468Y+7548499D01*
X-610870Y+7335901D01*
X-610870Y+7548499D01*
D25*
X-1981200Y+6090920D02*
X-1579880Y+6090920D01*
X-1579880Y+6873240D01*
X-1981200Y+6873240D01*
X-1981200Y+6090920D01*
D60*
X-1844040Y+6736080D02*
X-1844040Y+6736080D01*
D62*
X-1852777Y+6289447D02*
X-1732381Y+6289447D01*
X-1708302Y+6313526D01*
X-1708302Y+6409842D01*
X-1732381Y+6433921D01*
X-1852777Y+6433921D01*
X-1780540Y+6530238D02*
X-1804619Y+6506159D01*
X-1828698Y+6506159D01*
X-1852777Y+6530238D01*
X-1852777Y+6602475D01*
X-1828698Y+6626554D01*
X-1804619Y+6626554D01*
X-1780540Y+6602475D01*
X-1780540Y+6530238D01*
X-1756460Y+6506159D01*
X-1732381Y+6506159D01*
X-1708302Y+6530238D01*
X-1708302Y+6602475D01*
X-1732381Y+6626554D01*
X-1756460Y+6626554D01*
X-1780540Y+6602475D01*
D25*
X-541020Y+5816600D02*
X-254000Y+5816600D01*
X-254000Y+7061200D01*
X-541020Y+7061200D01*
X-541020Y+5816600D01*
D74*
X-398780Y+6946900D02*
X-398780Y+6946900D01*
D75*
X-345846Y+6301131D02*
X-449173Y+6301131D01*
X-449173Y+6370015D01*
X-414731Y+6404457D01*
X-380288Y+6404457D01*
X-345846Y+6370015D01*
X-345846Y+6301131D01*
X-414731Y+6473342D02*
X-449173Y+6507784D01*
X-345846Y+6507784D01*
D51*
X-1046880Y+6405880D02*
X-1046966Y+6407956D01*
X-1047668Y+6412109D01*
X-1049138Y+6416262D01*
X-1051540Y+6420415D01*
X-1055213Y+6424514D01*
X-1059366Y+6427523D01*
X-1063519Y+6429440D01*
X-1067672Y+6430523D01*
X-1071825Y+6430880D01*
X-1071880Y+6430880D01*
X-1096880Y+6405880D02*
X-1096794Y+6407956D01*
X-1096092Y+6412109D01*
X-1094622Y+6416262D01*
X-1092220Y+6420415D01*
X-1088547Y+6424514D01*
X-1084394Y+6427523D01*
X-1080241Y+6429440D01*
X-1076088Y+6430523D01*
X-1071935Y+6430880D01*
X-1071880Y+6430880D01*
X-1096880Y+6405880D02*
X-1096794Y+6403804D01*
X-1096092Y+6399651D01*
X-1094622Y+6395498D01*
X-1092220Y+6391345D01*
X-1088547Y+6387246D01*
X-1084394Y+6384237D01*
X-1080241Y+6382320D01*
X-1076088Y+6381237D01*
X-1071935Y+6380880D01*
X-1071880Y+6380880D01*
X-1046880Y+6405880D02*
X-1046966Y+6403804D01*
X-1047668Y+6399651D01*
X-1049138Y+6395498D01*
X-1051540Y+6391345D01*
X-1055213Y+6387246D01*
X-1059366Y+6384237D01*
X-1063519Y+6382320D01*
X-1067672Y+6381237D01*
X-1071825Y+6380880D01*
X-1071880Y+6380880D01*
X-1036880Y+6405880D02*
X-1106880Y+6405880D01*
X-1071880Y+6440880D02*
X-1071880Y+6370880D01*
X-1596880Y+6930880D02*
X-1596880Y+6405880D01*
X-1594228Y+6351318D01*
X-1586434Y+6298535D01*
X-1573737Y+6247770D01*
X-1556377Y+6199264D01*
X-1534595Y+6153258D01*
X-1508632Y+6109991D01*
X-1478728Y+6069704D01*
X-1445122Y+6032638D01*
X-1408056Y+5999032D01*
X-1367769Y+5969128D01*
X-1324502Y+5943165D01*
X-1278496Y+5921383D01*
X-1229990Y+5904023D01*
X-1179225Y+5891326D01*
X-1126442Y+5883532D01*
X-1071880Y+5880880D01*
X-1017318Y+5883532D01*
X-964535Y+5891326D01*
X-913770Y+5904023D01*
X-865264Y+5921383D01*
X-819258Y+5943165D01*
X-775991Y+5969128D01*
X-735704Y+5999032D01*
X-698638Y+6032638D01*
X-665032Y+6069704D01*
X-635128Y+6109991D01*
X-609165Y+6153258D01*
X-587383Y+6199264D01*
X-570023Y+6247770D01*
X-557326Y+6298535D01*
X-549532Y+6351318D01*
X-546880Y+6405880D01*
X-549532Y+6460442D01*
X-557326Y+6513225D01*
X-570023Y+6563990D01*
X-587383Y+6612496D01*
X-609165Y+6658502D01*
X-635128Y+6701769D01*
X-665032Y+6742056D01*
X-698638Y+6779122D01*
X-735704Y+6812728D01*
X-775991Y+6842632D01*
X-819258Y+6868595D01*
X-865264Y+6890377D01*
X-913770Y+6907737D01*
X-964535Y+6920434D01*
X-1017318Y+6928228D01*
X-1071880Y+6930880D01*
X-1596880Y+6930880D01*
D56*
X-821880Y+6405880D02*
X-821880Y+6405880D01*
D57*
X-1230130Y+6353130D02*
X-1256505Y+6326755D01*
X-1335630Y+6326755D01*
X-1388380Y+6379505D01*
X-1388380Y+6432255D01*
X-1335630Y+6485005D01*
X-1256505Y+6485005D01*
X-1230130Y+6458630D01*
X-1124630Y+6432255D02*
X-1071880Y+6485005D01*
X-1071880Y+6326755D01*
X-808130Y+6379505D02*
X-966380Y+6379505D01*
X-860880Y+6485005D01*
X-860880Y+6326755D01*
D51*
X-5398980Y+2783840D02*
X-5399066Y+2785916D01*
X-5399768Y+2790069D01*
X-5401238Y+2794222D01*
X-5403640Y+2798375D01*
X-5407313Y+2802474D01*
X-5411466Y+2805483D01*
X-5415619Y+2807400D01*
X-5419772Y+2808483D01*
X-5423925Y+2808840D01*
X-5423980Y+2808840D01*
X-5448980Y+2783840D02*
X-5448894Y+2785916D01*
X-5448192Y+2790069D01*
X-5446722Y+2794222D01*
X-5444320Y+2798375D01*
X-5440647Y+2802474D01*
X-5436494Y+2805483D01*
X-5432341Y+2807400D01*
X-5428188Y+2808483D01*
X-5424035Y+2808840D01*
X-5423980Y+2808840D01*
X-5448980Y+2783840D02*
X-5448894Y+2781764D01*
X-5448192Y+2777611D01*
X-5446722Y+2773458D01*
X-5444320Y+2769305D01*
X-5440647Y+2765206D01*
X-5436494Y+2762197D01*
X-5432341Y+2760280D01*
X-5428188Y+2759197D01*
X-5424035Y+2758840D01*
X-5423980Y+2758840D01*
X-5398980Y+2783840D02*
X-5399066Y+2781764D01*
X-5399768Y+2777611D01*
X-5401238Y+2773458D01*
X-5403640Y+2769305D01*
X-5407313Y+2765206D01*
X-5411466Y+2762197D01*
X-5415619Y+2760280D01*
X-5419772Y+2759197D01*
X-5423925Y+2758840D01*
X-5423980Y+2758840D01*
X-5388980Y+2783840D02*
X-5458980Y+2783840D01*
X-5423980Y+2818840D02*
X-5423980Y+2748840D01*
X-5948980Y+3308840D02*
X-5948980Y+2783840D01*
X-5946328Y+2729278D01*
X-5938534Y+2676495D01*
X-5925837Y+2625730D01*
X-5908477Y+2577224D01*
X-5886695Y+2531218D01*
X-5860732Y+2487951D01*
X-5830828Y+2447664D01*
X-5797222Y+2410598D01*
X-5760156Y+2376992D01*
X-5719869Y+2347088D01*
X-5676602Y+2321125D01*
X-5630596Y+2299343D01*
X-5582090Y+2281983D01*
X-5531325Y+2269286D01*
X-5478542Y+2261492D01*
X-5423980Y+2258840D01*
X-5369418Y+2261492D01*
X-5316635Y+2269286D01*
X-5265870Y+2281983D01*
X-5217364Y+2299343D01*
X-5171358Y+2321125D01*
X-5128091Y+2347088D01*
X-5087804Y+2376992D01*
X-5050738Y+2410598D01*
X-5017132Y+2447664D01*
X-4987228Y+2487951D01*
X-4961265Y+2531218D01*
X-4939483Y+2577224D01*
X-4922123Y+2625730D01*
X-4909426Y+2676495D01*
X-4901632Y+2729278D01*
X-4898980Y+2783840D01*
X-4901632Y+2838402D01*
X-4909426Y+2891185D01*
X-4922123Y+2941950D01*
X-4939483Y+2990456D01*
X-4961265Y+3036462D01*
X-4987228Y+3079729D01*
X-5017132Y+3120016D01*
X-5050738Y+3157082D01*
X-5087804Y+3190688D01*
X-5128091Y+3220592D01*
X-5171358Y+3246555D01*
X-5217364Y+3268337D01*
X-5265870Y+3285697D01*
X-5316635Y+3298394D01*
X-5369418Y+3306188D01*
X-5423980Y+3308840D01*
X-5948980Y+3308840D01*
D60*
X-5173980Y+2783840D02*
X-5173980Y+2783840D01*
D57*
X-5582230Y+2731090D02*
X-5608605Y+2704715D01*
X-5687730Y+2704715D01*
X-5740480Y+2757465D01*
X-5740480Y+2810215D01*
X-5687730Y+2862965D01*
X-5608605Y+2862965D01*
X-5582230Y+2836590D01*
X-5476730Y+2810215D02*
X-5423980Y+2862965D01*
X-5423980Y+2704715D01*
X-5292105Y+2862965D02*
X-5160230Y+2862965D01*
X-5160230Y+2836590D01*
X-5292105Y+2704715D01*
D51*
X-6409900Y+6365240D02*
X-6409986Y+6367316D01*
X-6410688Y+6371469D01*
X-6412158Y+6375622D01*
X-6414560Y+6379775D01*
X-6418233Y+6383874D01*
X-6422386Y+6386883D01*
X-6426539Y+6388800D01*
X-6430692Y+6389883D01*
X-6434845Y+6390240D01*
X-6434900Y+6390240D01*
X-6459900Y+6365240D02*
X-6459814Y+6367316D01*
X-6459112Y+6371469D01*
X-6457642Y+6375622D01*
X-6455240Y+6379775D01*
X-6451567Y+6383874D01*
X-6447414Y+6386883D01*
X-6443261Y+6388800D01*
X-6439108Y+6389883D01*
X-6434955Y+6390240D01*
X-6434900Y+6390240D01*
X-6459900Y+6365240D02*
X-6459814Y+6363164D01*
X-6459112Y+6359011D01*
X-6457642Y+6354858D01*
X-6455240Y+6350705D01*
X-6451567Y+6346606D01*
X-6447414Y+6343597D01*
X-6443261Y+6341680D01*
X-6439108Y+6340597D01*
X-6434955Y+6340240D01*
X-6434900Y+6340240D01*
X-6409900Y+6365240D02*
X-6409986Y+6363164D01*
X-6410688Y+6359011D01*
X-6412158Y+6354858D01*
X-6414560Y+6350705D01*
X-6418233Y+6346606D01*
X-6422386Y+6343597D01*
X-6426539Y+6341680D01*
X-6430692Y+6340597D01*
X-6434845Y+6340240D01*
X-6434900Y+6340240D01*
X-6469900Y+6365240D02*
X-6399900Y+6365240D01*
X-6434900Y+6330240D02*
X-6434900Y+6400240D01*
X-5909900Y+5840240D02*
X-5909900Y+6365240D01*
X-5912552Y+6419802D01*
X-5920346Y+6472585D01*
X-5933043Y+6523350D01*
X-5950403Y+6571856D01*
X-5972185Y+6617862D01*
X-5998148Y+6661129D01*
X-6028052Y+6701416D01*
X-6061658Y+6738482D01*
X-6098724Y+6772088D01*
X-6139011Y+6801992D01*
X-6182278Y+6827955D01*
X-6228284Y+6849737D01*
X-6276790Y+6867097D01*
X-6327555Y+6879794D01*
X-6380338Y+6887588D01*
X-6434900Y+6890240D01*
X-6489462Y+6887588D01*
X-6542245Y+6879794D01*
X-6593010Y+6867097D01*
X-6641516Y+6849737D01*
X-6687522Y+6827955D01*
X-6730789Y+6801992D01*
X-6771076Y+6772088D01*
X-6808142Y+6738482D01*
X-6841748Y+6701416D01*
X-6871652Y+6661129D01*
X-6897615Y+6617862D01*
X-6919397Y+6571856D01*
X-6936757Y+6523350D01*
X-6949454Y+6472585D01*
X-6957248Y+6419802D01*
X-6959900Y+6365240D01*
X-6957248Y+6310678D01*
X-6949454Y+6257895D01*
X-6936757Y+6207130D01*
X-6919397Y+6158624D01*
X-6897615Y+6112618D01*
X-6871652Y+6069351D01*
X-6841748Y+6029064D01*
X-6808142Y+5991998D01*
X-6771076Y+5958392D01*
X-6730789Y+5928488D01*
X-6687522Y+5902525D01*
X-6641516Y+5880743D01*
X-6593010Y+5863383D01*
X-6542245Y+5850686D01*
X-6489462Y+5842892D01*
X-6434900Y+5840240D01*
X-5909900Y+5840240D01*
D60*
X-6684900Y+6365240D02*
X-6684900Y+6365240D01*
D57*
X-6593150Y+6312490D02*
X-6619525Y+6286115D01*
X-6698650Y+6286115D01*
X-6751400Y+6338865D01*
X-6751400Y+6391615D01*
X-6698650Y+6444365D01*
X-6619525Y+6444365D01*
X-6593150Y+6417990D01*
X-6487650Y+6391615D02*
X-6434900Y+6444365D01*
X-6434900Y+6286115D01*
X-6276650Y+6365240D02*
X-6303025Y+6391615D01*
X-6303025Y+6417990D01*
X-6276650Y+6444365D01*
X-6197525Y+6444365D01*
X-6171150Y+6417990D01*
X-6171150Y+6391615D01*
X-6197525Y+6365240D01*
X-6276650Y+6365240D01*
X-6303025Y+6338865D01*
X-6303025Y+6312490D01*
X-6276650Y+6286115D01*
X-6197525Y+6286115D01*
X-6171150Y+6312490D01*
X-6171150Y+6338865D01*
X-6197525Y+6365240D01*
D51*
X-5378660Y+6365240D02*
X-5378746Y+6367316D01*
X-5379448Y+6371469D01*
X-5380918Y+6375622D01*
X-5383320Y+6379775D01*
X-5386993Y+6383874D01*
X-5391146Y+6386883D01*
X-5395299Y+6388800D01*
X-5399452Y+6389883D01*
X-5403605Y+6390240D01*
X-5403660Y+6390240D01*
X-5428660Y+6365240D02*
X-5428574Y+6367316D01*
X-5427872Y+6371469D01*
X-5426402Y+6375622D01*
X-5424000Y+6379775D01*
X-5420327Y+6383874D01*
X-5416174Y+6386883D01*
X-5412021Y+6388800D01*
X-5407868Y+6389883D01*
X-5403715Y+6390240D01*
X-5403660Y+6390240D01*
X-5428660Y+6365240D02*
X-5428574Y+6363164D01*
X-5427872Y+6359011D01*
X-5426402Y+6354858D01*
X-5424000Y+6350705D01*
X-5420327Y+6346606D01*
X-5416174Y+6343597D01*
X-5412021Y+6341680D01*
X-5407868Y+6340597D01*
X-5403715Y+6340240D01*
X-5403660Y+6340240D01*
X-5378660Y+6365240D02*
X-5378746Y+6363164D01*
X-5379448Y+6359011D01*
X-5380918Y+6354858D01*
X-5383320Y+6350705D01*
X-5386993Y+6346606D01*
X-5391146Y+6343597D01*
X-5395299Y+6341680D01*
X-5399452Y+6340597D01*
X-5403605Y+6340240D01*
X-5403660Y+6340240D01*
X-5368660Y+6365240D02*
X-5438660Y+6365240D01*
X-5403660Y+6400240D02*
X-5403660Y+6330240D01*
X-5928660Y+6890240D02*
X-5928660Y+6365240D01*
X-5926008Y+6310678D01*
X-5918214Y+6257895D01*
X-5905517Y+6207130D01*
X-5888157Y+6158624D01*
X-5866375Y+6112618D01*
X-5840412Y+6069351D01*
X-5810508Y+6029064D01*
X-5776902Y+5991998D01*
X-5739836Y+5958392D01*
X-5699549Y+5928488D01*
X-5656282Y+5902525D01*
X-5610276Y+5880743D01*
X-5561770Y+5863383D01*
X-5511005Y+5850686D01*
X-5458222Y+5842892D01*
X-5403660Y+5840240D01*
X-5349098Y+5842892D01*
X-5296315Y+5850686D01*
X-5245550Y+5863383D01*
X-5197044Y+5880743D01*
X-5151038Y+5902525D01*
X-5107771Y+5928488D01*
X-5067484Y+5958392D01*
X-5030418Y+5991998D01*
X-4996812Y+6029064D01*
X-4966908Y+6069351D01*
X-4940945Y+6112618D01*
X-4919163Y+6158624D01*
X-4901803Y+6207130D01*
X-4889106Y+6257895D01*
X-4881312Y+6310678D01*
X-4878660Y+6365240D01*
X-4881312Y+6419802D01*
X-4889106Y+6472585D01*
X-4901803Y+6523350D01*
X-4919163Y+6571856D01*
X-4940945Y+6617862D01*
X-4966908Y+6661129D01*
X-4996812Y+6701416D01*
X-5030418Y+6738482D01*
X-5067484Y+6772088D01*
X-5107771Y+6801992D01*
X-5151038Y+6827955D01*
X-5197044Y+6849737D01*
X-5245550Y+6867097D01*
X-5296315Y+6879794D01*
X-5349098Y+6887588D01*
X-5403660Y+6890240D01*
X-5928660Y+6890240D01*
D60*
X-5153660Y+6365240D02*
X-5153660Y+6365240D01*
D57*
X-5561910Y+6312490D02*
X-5588285Y+6286115D01*
X-5667410Y+6286115D01*
X-5720160Y+6338865D01*
X-5720160Y+6391615D01*
X-5667410Y+6444365D01*
X-5588285Y+6444365D01*
X-5561910Y+6417990D01*
X-5456410Y+6391615D02*
X-5403660Y+6444365D01*
X-5403660Y+6286115D01*
X-5139910Y+6391615D02*
X-5166285Y+6365240D01*
X-5245410Y+6365240D01*
X-5271785Y+6391615D01*
X-5271785Y+6417990D01*
X-5245410Y+6444365D01*
X-5166285Y+6444365D01*
X-5139910Y+6417990D01*
X-5139910Y+6312490D01*
X-5166285Y+6286115D01*
X-5245410Y+6286115D01*
D25*
X-6824980Y+3850640D02*
X-6042660Y+3850640D01*
X-6042660Y+5648960D01*
X-6824980Y+5648960D01*
X-6824980Y+3850640D01*
D44*
X-6339840Y+4102100D02*
X-6339840Y+4102100D01*
D76*
X-6386880Y+4374287D02*
X-6339941Y+4374287D01*
X-6293002Y+4421226D01*
X-6293002Y+4608982D01*
X-6339941Y+4655921D01*
X-6574637Y+4655921D01*
X-6480759Y+4843678D02*
X-6574637Y+4937556D01*
X-6293002Y+4937556D01*
M02*
