G04 PROTEUS GERBER X2 FILE*
%TF.GenerationSoftware,Labcenter,Proteus,8.9-SP0-Build27865*%
%TF.CreationDate,2020-10-13T12:24:17+00:00*%
%TF.FileFunction,Legend,Top*%
%TF.FilePolarity,Positive*%
%TF.Part,Single*%
%TF.SameCoordinates,{eb038a7c-90c0-4424-89c4-d0a3f05e8ce7}*%
%FSLAX45Y45*%
%MOMM*%
G01*
%TA.AperFunction,Profile*%
%ADD23C,0.203200*%
%TA.AperFunction,Material*%
%ADD25C,0.203200*%
%ADD26C,0.250000*%
%ADD27C,0.200000*%
%ADD28C,0.600000*%
%ADD29C,0.120000*%
%TD.AperFunction*%
D23*
X-7503160Y+607060D02*
X+4927600Y+607060D01*
X+4927600Y+8105140D01*
X-7503160Y+8105140D01*
X-7503160Y+607060D01*
D25*
X-6570980Y+7035800D02*
X-4411980Y+7035800D01*
X-4411980Y+7797800D01*
X-6570980Y+7797800D01*
X-6570980Y+7035800D01*
X-6570980Y+7670800D02*
X-4411980Y+7670800D01*
X-5935980Y+7929880D02*
X-5840730Y+7929880D01*
X-5888355Y+7929880D02*
X-5888355Y+7838440D01*
X-5808980Y+7838440D02*
X-5808980Y+7929880D01*
X-5713730Y+7929880D02*
X-5713730Y+7838440D01*
X-5808980Y+7884160D02*
X-5713730Y+7884160D01*
X-5681980Y+7838440D02*
X-5681980Y+7929880D01*
X-5602605Y+7929880D01*
X-5586730Y+7914640D01*
X-5586730Y+7899400D01*
X-5602605Y+7884160D01*
X-5681980Y+7884160D01*
X-5602605Y+7884160D02*
X-5586730Y+7868920D01*
X-5586730Y+7838440D01*
X-5554980Y+7899400D02*
X-5523230Y+7929880D01*
X-5491480Y+7929880D01*
X-5459730Y+7899400D01*
X-5459730Y+7868920D01*
X-5491480Y+7838440D01*
X-5523230Y+7838440D01*
X-5554980Y+7868920D01*
X-5554980Y+7899400D01*
X-5427980Y+7929880D02*
X-5332730Y+7929880D01*
X-5380355Y+7929880D02*
X-5380355Y+7838440D01*
X-5300980Y+7929880D02*
X-5300980Y+7838440D01*
X-5205730Y+7838440D01*
X-5078730Y+7838440D02*
X-5173980Y+7838440D01*
X-5173980Y+7929880D01*
X-5078730Y+7929880D01*
X-5173980Y+7884160D02*
X-5110480Y+7884160D01*
X-3477260Y+7058660D02*
X-1699260Y+7058660D01*
X-1699260Y+7820660D01*
X-3477260Y+7820660D01*
X-3477260Y+7058660D01*
X-3477260Y+7693660D02*
X-1699260Y+7693660D01*
X-3159760Y+7861300D02*
X-3159760Y+7952740D01*
X-3064510Y+7952740D02*
X-3064510Y+7861300D01*
X-3159760Y+7907020D02*
X-3064510Y+7907020D01*
X-2937510Y+7861300D02*
X-3032760Y+7861300D01*
X-3032760Y+7952740D01*
X-2937510Y+7952740D01*
X-3032760Y+7907020D02*
X-2969260Y+7907020D01*
X-2905760Y+7861300D02*
X-2905760Y+7922260D01*
X-2874010Y+7952740D01*
X-2842260Y+7952740D01*
X-2810510Y+7922260D01*
X-2810510Y+7861300D01*
X-2905760Y+7891780D02*
X-2810510Y+7891780D01*
X-2778760Y+7861300D02*
X-2778760Y+7952740D01*
X-2715260Y+7952740D01*
X-2683510Y+7922260D01*
X-2683510Y+7891780D01*
X-2715260Y+7861300D01*
X-2778760Y+7861300D01*
X-2651760Y+7952740D02*
X-2651760Y+7861300D01*
X-2556510Y+7861300D01*
X-2508885Y+7952740D02*
X-2445385Y+7952740D01*
X-2477135Y+7952740D02*
X-2477135Y+7861300D01*
X-2508885Y+7861300D02*
X-2445385Y+7861300D01*
X-2334260Y+7891780D02*
X-2302510Y+7891780D01*
X-2302510Y+7861300D01*
X-2366010Y+7861300D01*
X-2397760Y+7891780D01*
X-2397760Y+7922260D01*
X-2366010Y+7952740D01*
X-2318385Y+7952740D01*
X-2302510Y+7937500D01*
X-2270760Y+7861300D02*
X-2270760Y+7952740D01*
X-2175510Y+7952740D02*
X-2175510Y+7861300D01*
X-2270760Y+7907020D02*
X-2175510Y+7907020D01*
X-2143760Y+7952740D02*
X-2048510Y+7952740D01*
X-2096135Y+7952740D02*
X-2096135Y+7861300D01*
X-4389120Y+7048500D02*
X-3500120Y+7048500D01*
X-3500120Y+7810500D01*
X-4389120Y+7810500D01*
X-4389120Y+7048500D01*
X-4389120Y+7683500D02*
X-3500120Y+7683500D01*
X-4198620Y+7851140D02*
X-4198620Y+7942580D01*
X-4103370Y+7942580D02*
X-4103370Y+7851140D01*
X-4198620Y+7896860D02*
X-4103370Y+7896860D01*
X-4071620Y+7912100D02*
X-4039870Y+7942580D01*
X-4008120Y+7942580D01*
X-3976370Y+7912100D01*
X-3976370Y+7881620D01*
X-4008120Y+7851140D01*
X-4039870Y+7851140D01*
X-4071620Y+7881620D01*
X-4071620Y+7912100D01*
X-3944620Y+7851140D02*
X-3944620Y+7942580D01*
X-3865245Y+7942580D01*
X-3849370Y+7927340D01*
X-3849370Y+7912100D01*
X-3865245Y+7896860D01*
X-3944620Y+7896860D01*
X-3865245Y+7896860D02*
X-3849370Y+7881620D01*
X-3849370Y+7851140D01*
X-3817620Y+7851140D02*
X-3817620Y+7942580D01*
X-3722370Y+7851140D01*
X-3722370Y+7942580D01*
X-6700520Y+988060D02*
X-4160520Y+988060D01*
X-4160520Y+1750060D01*
X-6700520Y+1750060D01*
X-6700520Y+988060D01*
X-4160520Y+1115060D02*
X-6700520Y+1115060D01*
X-5875020Y+871220D02*
X-5859145Y+855980D01*
X-5795645Y+855980D01*
X-5779770Y+871220D01*
X-5779770Y+886460D01*
X-5795645Y+901700D01*
X-5859145Y+901700D01*
X-5875020Y+916940D01*
X-5875020Y+932180D01*
X-5859145Y+947420D01*
X-5795645Y+947420D01*
X-5779770Y+932180D01*
X-5748020Y+947420D02*
X-5748020Y+855980D01*
X-5700395Y+901700D01*
X-5652770Y+855980D01*
X-5652770Y+947420D01*
X-5605145Y+947420D02*
X-5541645Y+947420D01*
X-5573395Y+947420D02*
X-5573395Y+855980D01*
X-5605145Y+855980D02*
X-5541645Y+855980D01*
X-5494020Y+947420D02*
X-5398770Y+947420D01*
X-5446395Y+947420D02*
X-5446395Y+855980D01*
X-5271770Y+871220D02*
X-5287645Y+855980D01*
X-5335270Y+855980D01*
X-5367020Y+886460D01*
X-5367020Y+916940D01*
X-5335270Y+947420D01*
X-5287645Y+947420D01*
X-5271770Y+932180D01*
X-5240020Y+855980D02*
X-5240020Y+947420D01*
X-5144770Y+947420D02*
X-5144770Y+855980D01*
X-5240020Y+901700D02*
X-5144770Y+901700D01*
X-5097145Y+932180D02*
X-5081270Y+947420D01*
X-5033645Y+947420D01*
X-5017770Y+932180D01*
X-5017770Y+916940D01*
X-5033645Y+901700D01*
X-5081270Y+901700D01*
X-5097145Y+886460D01*
X-5097145Y+855980D01*
X-5017770Y+855980D01*
X-4048760Y+990600D02*
X-3159760Y+990600D01*
X-3159760Y+1752600D01*
X-4048760Y+1752600D01*
X-4048760Y+990600D01*
X-3159760Y+1117600D02*
X-4048760Y+1117600D01*
X-3985260Y+858520D02*
X-3985260Y+949960D01*
X-3905885Y+949960D01*
X-3890010Y+934720D01*
X-3890010Y+919480D01*
X-3905885Y+904240D01*
X-3890010Y+889000D01*
X-3890010Y+873760D01*
X-3905885Y+858520D01*
X-3985260Y+858520D01*
X-3985260Y+904240D02*
X-3905885Y+904240D01*
X-3858260Y+858520D02*
X-3858260Y+949960D01*
X-3778885Y+949960D01*
X-3763010Y+934720D01*
X-3763010Y+919480D01*
X-3778885Y+904240D01*
X-3858260Y+904240D01*
X-3778885Y+904240D02*
X-3763010Y+889000D01*
X-3763010Y+858520D01*
X-3731260Y+858520D02*
X-3731260Y+919480D01*
X-3699510Y+949960D01*
X-3667760Y+949960D01*
X-3636010Y+919480D01*
X-3636010Y+858520D01*
X-3731260Y+889000D02*
X-3636010Y+889000D01*
X-3604260Y+949960D02*
X-3604260Y+858520D01*
X-3509010Y+949960D02*
X-3556635Y+904240D01*
X-3509010Y+858520D01*
X-3604260Y+904240D02*
X-3556635Y+904240D01*
X-3382010Y+858520D02*
X-3477260Y+858520D01*
X-3477260Y+949960D01*
X-3382010Y+949960D01*
X-3477260Y+904240D02*
X-3413760Y+904240D01*
X-3318510Y+919480D02*
X-3286760Y+949960D01*
X-3286760Y+858520D01*
X-3063240Y+988060D02*
X-2174240Y+988060D01*
X-2174240Y+1750060D01*
X-3063240Y+1750060D01*
X-3063240Y+988060D01*
X-2174240Y+1115060D02*
X-3063240Y+1115060D01*
X-2999740Y+855980D02*
X-2999740Y+947420D01*
X-2920365Y+947420D01*
X-2904490Y+932180D01*
X-2904490Y+916940D01*
X-2920365Y+901700D01*
X-2904490Y+886460D01*
X-2904490Y+871220D01*
X-2920365Y+855980D01*
X-2999740Y+855980D01*
X-2999740Y+901700D02*
X-2920365Y+901700D01*
X-2872740Y+855980D02*
X-2872740Y+947420D01*
X-2793365Y+947420D01*
X-2777490Y+932180D01*
X-2777490Y+916940D01*
X-2793365Y+901700D01*
X-2872740Y+901700D01*
X-2793365Y+901700D02*
X-2777490Y+886460D01*
X-2777490Y+855980D01*
X-2745740Y+855980D02*
X-2745740Y+916940D01*
X-2713990Y+947420D01*
X-2682240Y+947420D01*
X-2650490Y+916940D01*
X-2650490Y+855980D01*
X-2745740Y+886460D02*
X-2650490Y+886460D01*
X-2618740Y+947420D02*
X-2618740Y+855980D01*
X-2523490Y+947420D02*
X-2571115Y+901700D01*
X-2523490Y+855980D01*
X-2618740Y+901700D02*
X-2571115Y+901700D01*
X-2396490Y+855980D02*
X-2491740Y+855980D01*
X-2491740Y+947420D01*
X-2396490Y+947420D01*
X-2491740Y+901700D02*
X-2428240Y+901700D01*
X-2348865Y+932180D02*
X-2332990Y+947420D01*
X-2285365Y+947420D01*
X-2269490Y+932180D01*
X-2269490Y+916940D01*
X-2285365Y+901700D01*
X-2332990Y+901700D01*
X-2348865Y+886460D01*
X-2348865Y+855980D01*
X-2269490Y+855980D01*
X-6824980Y+2247900D02*
X-6062980Y+2247900D01*
X-6062980Y+3644900D01*
X-6824980Y+3644900D01*
X-6824980Y+2247900D01*
X-6697980Y+2247900D02*
X-6697980Y+3644900D01*
X-6957060Y+2692400D02*
X-6957060Y+2787650D01*
X-6957060Y+2740025D02*
X-6865620Y+2740025D01*
X-6865620Y+2819400D02*
X-6926580Y+2819400D01*
X-6957060Y+2851150D01*
X-6957060Y+2882900D01*
X-6926580Y+2914650D01*
X-6865620Y+2914650D01*
X-6896100Y+2819400D02*
X-6896100Y+2914650D01*
X-6957060Y+2962275D02*
X-6957060Y+3025775D01*
X-6957060Y+2994025D02*
X-6865620Y+2994025D01*
X-6865620Y+2962275D02*
X-6865620Y+3025775D01*
X-6957060Y+3073400D02*
X-6865620Y+3073400D01*
X-6865620Y+3168650D01*
D26*
X-93460Y+7633380D02*
X-93503Y+7634419D01*
X-93855Y+7636498D01*
X-94592Y+7638577D01*
X-95796Y+7640656D01*
X-97637Y+7642706D01*
X-99716Y+7644209D01*
X-101795Y+7645166D01*
X-103874Y+7645705D01*
X-105953Y+7645880D01*
X-105960Y+7645880D01*
X-118460Y+7633380D02*
X-118417Y+7634419D01*
X-118065Y+7636498D01*
X-117328Y+7638577D01*
X-116124Y+7640656D01*
X-114283Y+7642706D01*
X-112204Y+7644209D01*
X-110125Y+7645166D01*
X-108046Y+7645705D01*
X-105967Y+7645880D01*
X-105960Y+7645880D01*
X-118460Y+7633380D02*
X-118417Y+7632341D01*
X-118065Y+7630262D01*
X-117328Y+7628183D01*
X-116124Y+7626104D01*
X-114283Y+7624054D01*
X-112204Y+7622551D01*
X-110125Y+7621594D01*
X-108046Y+7621055D01*
X-105967Y+7620880D01*
X-105960Y+7620880D01*
X-93460Y+7633380D02*
X-93503Y+7632341D01*
X-93855Y+7630262D01*
X-94592Y+7628183D01*
X-95796Y+7626104D01*
X-97637Y+7624054D01*
X-99716Y+7622551D01*
X-101795Y+7621594D01*
X-103874Y+7621055D01*
X-105953Y+7620880D01*
X-105960Y+7620880D01*
D27*
X+44040Y+7093380D02*
X+414040Y+7093380D01*
X+414040Y+7623380D01*
X+44040Y+7623380D01*
X+44040Y+7093380D01*
D28*
X+174040Y+7523380D02*
X+173937Y+7525869D01*
X+173095Y+7530849D01*
X+171335Y+7535829D01*
X+168458Y+7540809D01*
X+164057Y+7545725D01*
X+159077Y+7549339D01*
X+154097Y+7551644D01*
X+149117Y+7552947D01*
X+144137Y+7553380D01*
X+144040Y+7553380D01*
X+114040Y+7523380D02*
X+114143Y+7525869D01*
X+114985Y+7530849D01*
X+116745Y+7535829D01*
X+119622Y+7540809D01*
X+124023Y+7545725D01*
X+129003Y+7549339D01*
X+133983Y+7551644D01*
X+138963Y+7552947D01*
X+143943Y+7553380D01*
X+144040Y+7553380D01*
X+114040Y+7523380D02*
X+114143Y+7520891D01*
X+114985Y+7515911D01*
X+116745Y+7510931D01*
X+119622Y+7505951D01*
X+124023Y+7501035D01*
X+129003Y+7497421D01*
X+133983Y+7495116D01*
X+138963Y+7493813D01*
X+143943Y+7493380D01*
X+144040Y+7493380D01*
X+174040Y+7523380D02*
X+173937Y+7520891D01*
X+173095Y+7515911D01*
X+171335Y+7510931D01*
X+168458Y+7505951D01*
X+164057Y+7501035D01*
X+159077Y+7497421D01*
X+154097Y+7495116D01*
X+149117Y+7493813D01*
X+144137Y+7493380D01*
X+144040Y+7493380D01*
D25*
X+102040Y+7780300D02*
X+102040Y+7704100D01*
X+117915Y+7688860D01*
X+181415Y+7688860D01*
X+197290Y+7704100D01*
X+197290Y+7780300D01*
X+260790Y+7749820D02*
X+292540Y+7780300D01*
X+292540Y+7688860D01*
D26*
X+947940Y+7625760D02*
X+947897Y+7626799D01*
X+947545Y+7628878D01*
X+946808Y+7630957D01*
X+945604Y+7633036D01*
X+943763Y+7635086D01*
X+941684Y+7636589D01*
X+939605Y+7637546D01*
X+937526Y+7638085D01*
X+935447Y+7638260D01*
X+935440Y+7638260D01*
X+922940Y+7625760D02*
X+922983Y+7626799D01*
X+923335Y+7628878D01*
X+924072Y+7630957D01*
X+925276Y+7633036D01*
X+927117Y+7635086D01*
X+929196Y+7636589D01*
X+931275Y+7637546D01*
X+933354Y+7638085D01*
X+935433Y+7638260D01*
X+935440Y+7638260D01*
X+922940Y+7625760D02*
X+922983Y+7624721D01*
X+923335Y+7622642D01*
X+924072Y+7620563D01*
X+925276Y+7618484D01*
X+927117Y+7616434D01*
X+929196Y+7614931D01*
X+931275Y+7613974D01*
X+933354Y+7613435D01*
X+935433Y+7613260D01*
X+935440Y+7613260D01*
X+947940Y+7625760D02*
X+947897Y+7624721D01*
X+947545Y+7622642D01*
X+946808Y+7620563D01*
X+945604Y+7618484D01*
X+943763Y+7616434D01*
X+941684Y+7614931D01*
X+939605Y+7613974D01*
X+937526Y+7613435D01*
X+935447Y+7613260D01*
X+935440Y+7613260D01*
D27*
X+1085440Y+7085760D02*
X+1455440Y+7085760D01*
X+1455440Y+7615760D01*
X+1085440Y+7615760D01*
X+1085440Y+7085760D01*
D28*
X+1215440Y+7515760D02*
X+1215337Y+7518249D01*
X+1214495Y+7523229D01*
X+1212735Y+7528209D01*
X+1209858Y+7533189D01*
X+1205457Y+7538105D01*
X+1200477Y+7541719D01*
X+1195497Y+7544024D01*
X+1190517Y+7545327D01*
X+1185537Y+7545760D01*
X+1185440Y+7545760D01*
X+1155440Y+7515760D02*
X+1155543Y+7518249D01*
X+1156385Y+7523229D01*
X+1158145Y+7528209D01*
X+1161022Y+7533189D01*
X+1165423Y+7538105D01*
X+1170403Y+7541719D01*
X+1175383Y+7544024D01*
X+1180363Y+7545327D01*
X+1185343Y+7545760D01*
X+1185440Y+7545760D01*
X+1155440Y+7515760D02*
X+1155543Y+7513271D01*
X+1156385Y+7508291D01*
X+1158145Y+7503311D01*
X+1161022Y+7498331D01*
X+1165423Y+7493415D01*
X+1170403Y+7489801D01*
X+1175383Y+7487496D01*
X+1180363Y+7486193D01*
X+1185343Y+7485760D01*
X+1185440Y+7485760D01*
X+1215440Y+7515760D02*
X+1215337Y+7513271D01*
X+1214495Y+7508291D01*
X+1212735Y+7503311D01*
X+1209858Y+7498331D01*
X+1205457Y+7493415D01*
X+1200477Y+7489801D01*
X+1195497Y+7487496D01*
X+1190517Y+7486193D01*
X+1185537Y+7485760D01*
X+1185440Y+7485760D01*
D25*
X+1143440Y+7772680D02*
X+1143440Y+7696480D01*
X+1159315Y+7681240D01*
X+1222815Y+7681240D01*
X+1238690Y+7696480D01*
X+1238690Y+7772680D01*
X+1286315Y+7757440D02*
X+1302190Y+7772680D01*
X+1349815Y+7772680D01*
X+1365690Y+7757440D01*
X+1365690Y+7742200D01*
X+1349815Y+7726960D01*
X+1302190Y+7726960D01*
X+1286315Y+7711720D01*
X+1286315Y+7681240D01*
X+1365690Y+7681240D01*
D26*
X+2037600Y+7630840D02*
X+2037557Y+7631879D01*
X+2037205Y+7633958D01*
X+2036468Y+7636037D01*
X+2035264Y+7638116D01*
X+2033423Y+7640166D01*
X+2031344Y+7641669D01*
X+2029265Y+7642626D01*
X+2027186Y+7643165D01*
X+2025107Y+7643340D01*
X+2025100Y+7643340D01*
X+2012600Y+7630840D02*
X+2012643Y+7631879D01*
X+2012995Y+7633958D01*
X+2013732Y+7636037D01*
X+2014936Y+7638116D01*
X+2016777Y+7640166D01*
X+2018856Y+7641669D01*
X+2020935Y+7642626D01*
X+2023014Y+7643165D01*
X+2025093Y+7643340D01*
X+2025100Y+7643340D01*
X+2012600Y+7630840D02*
X+2012643Y+7629801D01*
X+2012995Y+7627722D01*
X+2013732Y+7625643D01*
X+2014936Y+7623564D01*
X+2016777Y+7621514D01*
X+2018856Y+7620011D01*
X+2020935Y+7619054D01*
X+2023014Y+7618515D01*
X+2025093Y+7618340D01*
X+2025100Y+7618340D01*
X+2037600Y+7630840D02*
X+2037557Y+7629801D01*
X+2037205Y+7627722D01*
X+2036468Y+7625643D01*
X+2035264Y+7623564D01*
X+2033423Y+7621514D01*
X+2031344Y+7620011D01*
X+2029265Y+7619054D01*
X+2027186Y+7618515D01*
X+2025107Y+7618340D01*
X+2025100Y+7618340D01*
D27*
X+2175100Y+7090840D02*
X+2545100Y+7090840D01*
X+2545100Y+7620840D01*
X+2175100Y+7620840D01*
X+2175100Y+7090840D01*
D28*
X+2305100Y+7520840D02*
X+2304997Y+7523329D01*
X+2304155Y+7528309D01*
X+2302395Y+7533289D01*
X+2299518Y+7538269D01*
X+2295117Y+7543185D01*
X+2290137Y+7546799D01*
X+2285157Y+7549104D01*
X+2280177Y+7550407D01*
X+2275197Y+7550840D01*
X+2275100Y+7550840D01*
X+2245100Y+7520840D02*
X+2245203Y+7523329D01*
X+2246045Y+7528309D01*
X+2247805Y+7533289D01*
X+2250682Y+7538269D01*
X+2255083Y+7543185D01*
X+2260063Y+7546799D01*
X+2265043Y+7549104D01*
X+2270023Y+7550407D01*
X+2275003Y+7550840D01*
X+2275100Y+7550840D01*
X+2245100Y+7520840D02*
X+2245203Y+7518351D01*
X+2246045Y+7513371D01*
X+2247805Y+7508391D01*
X+2250682Y+7503411D01*
X+2255083Y+7498495D01*
X+2260063Y+7494881D01*
X+2265043Y+7492576D01*
X+2270023Y+7491273D01*
X+2275003Y+7490840D01*
X+2275100Y+7490840D01*
X+2305100Y+7520840D02*
X+2304997Y+7518351D01*
X+2304155Y+7513371D01*
X+2302395Y+7508391D01*
X+2299518Y+7503411D01*
X+2295117Y+7498495D01*
X+2290137Y+7494881D01*
X+2285157Y+7492576D01*
X+2280177Y+7491273D01*
X+2275197Y+7490840D01*
X+2275100Y+7490840D01*
D25*
X+2233100Y+7777760D02*
X+2233100Y+7701560D01*
X+2248975Y+7686320D01*
X+2312475Y+7686320D01*
X+2328350Y+7701560D01*
X+2328350Y+7777760D01*
X+2375975Y+7762520D02*
X+2391850Y+7777760D01*
X+2439475Y+7777760D01*
X+2455350Y+7762520D01*
X+2455350Y+7747280D01*
X+2439475Y+7732040D01*
X+2455350Y+7716800D01*
X+2455350Y+7701560D01*
X+2439475Y+7686320D01*
X+2391850Y+7686320D01*
X+2375975Y+7701560D01*
X+2407725Y+7732040D02*
X+2439475Y+7732040D01*
D26*
X+3015500Y+7638460D02*
X+3015457Y+7639499D01*
X+3015105Y+7641578D01*
X+3014368Y+7643657D01*
X+3013164Y+7645736D01*
X+3011323Y+7647786D01*
X+3009244Y+7649289D01*
X+3007165Y+7650246D01*
X+3005086Y+7650785D01*
X+3003007Y+7650960D01*
X+3003000Y+7650960D01*
X+2990500Y+7638460D02*
X+2990543Y+7639499D01*
X+2990895Y+7641578D01*
X+2991632Y+7643657D01*
X+2992836Y+7645736D01*
X+2994677Y+7647786D01*
X+2996756Y+7649289D01*
X+2998835Y+7650246D01*
X+3000914Y+7650785D01*
X+3002993Y+7650960D01*
X+3003000Y+7650960D01*
X+2990500Y+7638460D02*
X+2990543Y+7637421D01*
X+2990895Y+7635342D01*
X+2991632Y+7633263D01*
X+2992836Y+7631184D01*
X+2994677Y+7629134D01*
X+2996756Y+7627631D01*
X+2998835Y+7626674D01*
X+3000914Y+7626135D01*
X+3002993Y+7625960D01*
X+3003000Y+7625960D01*
X+3015500Y+7638460D02*
X+3015457Y+7637421D01*
X+3015105Y+7635342D01*
X+3014368Y+7633263D01*
X+3013164Y+7631184D01*
X+3011323Y+7629134D01*
X+3009244Y+7627631D01*
X+3007165Y+7626674D01*
X+3005086Y+7626135D01*
X+3003007Y+7625960D01*
X+3003000Y+7625960D01*
D27*
X+3153000Y+7098460D02*
X+3523000Y+7098460D01*
X+3523000Y+7628460D01*
X+3153000Y+7628460D01*
X+3153000Y+7098460D01*
D28*
X+3283000Y+7528460D02*
X+3282897Y+7530949D01*
X+3282055Y+7535929D01*
X+3280295Y+7540909D01*
X+3277418Y+7545889D01*
X+3273017Y+7550805D01*
X+3268037Y+7554419D01*
X+3263057Y+7556724D01*
X+3258077Y+7558027D01*
X+3253097Y+7558460D01*
X+3253000Y+7558460D01*
X+3223000Y+7528460D02*
X+3223103Y+7530949D01*
X+3223945Y+7535929D01*
X+3225705Y+7540909D01*
X+3228582Y+7545889D01*
X+3232983Y+7550805D01*
X+3237963Y+7554419D01*
X+3242943Y+7556724D01*
X+3247923Y+7558027D01*
X+3252903Y+7558460D01*
X+3253000Y+7558460D01*
X+3223000Y+7528460D02*
X+3223103Y+7525971D01*
X+3223945Y+7520991D01*
X+3225705Y+7516011D01*
X+3228582Y+7511031D01*
X+3232983Y+7506115D01*
X+3237963Y+7502501D01*
X+3242943Y+7500196D01*
X+3247923Y+7498893D01*
X+3252903Y+7498460D01*
X+3253000Y+7498460D01*
X+3283000Y+7528460D02*
X+3282897Y+7525971D01*
X+3282055Y+7520991D01*
X+3280295Y+7516011D01*
X+3277418Y+7511031D01*
X+3273017Y+7506115D01*
X+3268037Y+7502501D01*
X+3263057Y+7500196D01*
X+3258077Y+7498893D01*
X+3253097Y+7498460D01*
X+3253000Y+7498460D01*
D25*
X+3211000Y+7785380D02*
X+3211000Y+7709180D01*
X+3226875Y+7693940D01*
X+3290375Y+7693940D01*
X+3306250Y+7709180D01*
X+3306250Y+7785380D01*
X+3433250Y+7724420D02*
X+3338000Y+7724420D01*
X+3401500Y+7785380D01*
X+3401500Y+7693940D01*
D26*
X+3954420Y+7648620D02*
X+3954377Y+7649659D01*
X+3954025Y+7651738D01*
X+3953288Y+7653817D01*
X+3952084Y+7655896D01*
X+3950243Y+7657946D01*
X+3948164Y+7659449D01*
X+3946085Y+7660406D01*
X+3944006Y+7660945D01*
X+3941927Y+7661120D01*
X+3941920Y+7661120D01*
X+3929420Y+7648620D02*
X+3929463Y+7649659D01*
X+3929815Y+7651738D01*
X+3930552Y+7653817D01*
X+3931756Y+7655896D01*
X+3933597Y+7657946D01*
X+3935676Y+7659449D01*
X+3937755Y+7660406D01*
X+3939834Y+7660945D01*
X+3941913Y+7661120D01*
X+3941920Y+7661120D01*
X+3929420Y+7648620D02*
X+3929463Y+7647581D01*
X+3929815Y+7645502D01*
X+3930552Y+7643423D01*
X+3931756Y+7641344D01*
X+3933597Y+7639294D01*
X+3935676Y+7637791D01*
X+3937755Y+7636834D01*
X+3939834Y+7636295D01*
X+3941913Y+7636120D01*
X+3941920Y+7636120D01*
X+3954420Y+7648620D02*
X+3954377Y+7647581D01*
X+3954025Y+7645502D01*
X+3953288Y+7643423D01*
X+3952084Y+7641344D01*
X+3950243Y+7639294D01*
X+3948164Y+7637791D01*
X+3946085Y+7636834D01*
X+3944006Y+7636295D01*
X+3941927Y+7636120D01*
X+3941920Y+7636120D01*
D27*
X+4091920Y+7108620D02*
X+4461920Y+7108620D01*
X+4461920Y+7638620D01*
X+4091920Y+7638620D01*
X+4091920Y+7108620D01*
D28*
X+4221920Y+7538620D02*
X+4221817Y+7541109D01*
X+4220975Y+7546089D01*
X+4219215Y+7551069D01*
X+4216338Y+7556049D01*
X+4211937Y+7560965D01*
X+4206957Y+7564579D01*
X+4201977Y+7566884D01*
X+4196997Y+7568187D01*
X+4192017Y+7568620D01*
X+4191920Y+7568620D01*
X+4161920Y+7538620D02*
X+4162023Y+7541109D01*
X+4162865Y+7546089D01*
X+4164625Y+7551069D01*
X+4167502Y+7556049D01*
X+4171903Y+7560965D01*
X+4176883Y+7564579D01*
X+4181863Y+7566884D01*
X+4186843Y+7568187D01*
X+4191823Y+7568620D01*
X+4191920Y+7568620D01*
X+4161920Y+7538620D02*
X+4162023Y+7536131D01*
X+4162865Y+7531151D01*
X+4164625Y+7526171D01*
X+4167502Y+7521191D01*
X+4171903Y+7516275D01*
X+4176883Y+7512661D01*
X+4181863Y+7510356D01*
X+4186843Y+7509053D01*
X+4191823Y+7508620D01*
X+4191920Y+7508620D01*
X+4221920Y+7538620D02*
X+4221817Y+7536131D01*
X+4220975Y+7531151D01*
X+4219215Y+7526171D01*
X+4216338Y+7521191D01*
X+4211937Y+7516275D01*
X+4206957Y+7512661D01*
X+4201977Y+7510356D01*
X+4196997Y+7509053D01*
X+4192017Y+7508620D01*
X+4191920Y+7508620D01*
D25*
X+4149920Y+7795540D02*
X+4149920Y+7719340D01*
X+4165795Y+7704100D01*
X+4229295Y+7704100D01*
X+4245170Y+7719340D01*
X+4245170Y+7795540D01*
X+4372170Y+7795540D02*
X+4292795Y+7795540D01*
X+4292795Y+7765060D01*
X+4356295Y+7765060D01*
X+4372170Y+7749820D01*
X+4372170Y+7719340D01*
X+4356295Y+7704100D01*
X+4308670Y+7704100D01*
X+4292795Y+7719340D01*
X+152400Y+5440680D02*
X+152400Y+5123180D01*
X+1041400Y+5123180D01*
X+1041400Y+5440680D01*
X+279400Y+5123180D02*
X+279400Y+4996180D01*
X+342900Y+4996180D02*
X+342900Y+5123180D01*
X+279400Y+4996180D02*
X+342900Y+4996180D01*
X+533400Y+5123180D02*
X+533400Y+5059680D01*
X+660400Y+5059680D01*
X+660400Y+5123180D01*
X+850900Y+5123180D02*
X+850900Y+4996180D01*
X+914400Y+4996180D01*
X+914400Y+5123180D01*
X+469900Y+5392420D02*
X+501650Y+5422900D01*
X+533400Y+5422900D01*
X+565150Y+5392420D01*
X+565150Y+5361940D01*
X+533400Y+5331460D01*
X+501650Y+5331460D01*
X+469900Y+5361940D01*
X+469900Y+5392420D01*
X+533400Y+5361940D02*
X+565150Y+5331460D01*
X+628650Y+5392420D02*
X+660400Y+5422900D01*
X+660400Y+5331460D01*
X+3129280Y+5450840D02*
X+3129280Y+5133340D01*
X+4018280Y+5133340D01*
X+4018280Y+5450840D01*
X+3256280Y+5133340D02*
X+3256280Y+5006340D01*
X+3319780Y+5006340D02*
X+3319780Y+5133340D01*
X+3256280Y+5006340D02*
X+3319780Y+5006340D01*
X+3510280Y+5133340D02*
X+3510280Y+5069840D01*
X+3637280Y+5069840D01*
X+3637280Y+5133340D01*
X+3827780Y+5133340D02*
X+3827780Y+5006340D01*
X+3891280Y+5006340D01*
X+3891280Y+5133340D01*
X+3446780Y+5402580D02*
X+3478530Y+5433060D01*
X+3510280Y+5433060D01*
X+3542030Y+5402580D01*
X+3542030Y+5372100D01*
X+3510280Y+5341620D01*
X+3478530Y+5341620D01*
X+3446780Y+5372100D01*
X+3446780Y+5402580D01*
X+3510280Y+5372100D02*
X+3542030Y+5341620D01*
X+3589655Y+5417820D02*
X+3605530Y+5433060D01*
X+3653155Y+5433060D01*
X+3669030Y+5417820D01*
X+3669030Y+5402580D01*
X+3653155Y+5387340D01*
X+3605530Y+5387340D01*
X+3589655Y+5372100D01*
X+3589655Y+5341620D01*
X+3669030Y+5341620D01*
X+139700Y+2499360D02*
X+139700Y+2181860D01*
X+1028700Y+2181860D01*
X+1028700Y+2499360D01*
X+266700Y+2181860D02*
X+266700Y+2054860D01*
X+330200Y+2054860D02*
X+330200Y+2181860D01*
X+266700Y+2054860D02*
X+330200Y+2054860D01*
X+520700Y+2181860D02*
X+520700Y+2118360D01*
X+647700Y+2118360D01*
X+647700Y+2181860D01*
X+838200Y+2181860D02*
X+838200Y+2054860D01*
X+901700Y+2054860D01*
X+901700Y+2181860D01*
X+457200Y+2451100D02*
X+488950Y+2481580D01*
X+520700Y+2481580D01*
X+552450Y+2451100D01*
X+552450Y+2420620D01*
X+520700Y+2390140D01*
X+488950Y+2390140D01*
X+457200Y+2420620D01*
X+457200Y+2451100D01*
X+520700Y+2420620D02*
X+552450Y+2390140D01*
X+600075Y+2466340D02*
X+615950Y+2481580D01*
X+663575Y+2481580D01*
X+679450Y+2466340D01*
X+679450Y+2451100D01*
X+663575Y+2435860D01*
X+679450Y+2420620D01*
X+679450Y+2405380D01*
X+663575Y+2390140D01*
X+615950Y+2390140D01*
X+600075Y+2405380D01*
X+631825Y+2435860D02*
X+663575Y+2435860D01*
X+1645920Y+2494280D02*
X+1645920Y+2176780D01*
X+2534920Y+2176780D01*
X+2534920Y+2494280D01*
X+1772920Y+2176780D02*
X+1772920Y+2049780D01*
X+1836420Y+2049780D02*
X+1836420Y+2176780D01*
X+1772920Y+2049780D02*
X+1836420Y+2049780D01*
X+2026920Y+2176780D02*
X+2026920Y+2113280D01*
X+2153920Y+2113280D01*
X+2153920Y+2176780D01*
X+2344420Y+2176780D02*
X+2344420Y+2049780D01*
X+2407920Y+2049780D01*
X+2407920Y+2176780D01*
X+1963420Y+2446020D02*
X+1995170Y+2476500D01*
X+2026920Y+2476500D01*
X+2058670Y+2446020D01*
X+2058670Y+2415540D01*
X+2026920Y+2385060D01*
X+1995170Y+2385060D01*
X+1963420Y+2415540D01*
X+1963420Y+2446020D01*
X+2026920Y+2415540D02*
X+2058670Y+2385060D01*
X+2185670Y+2415540D02*
X+2090420Y+2415540D01*
X+2153920Y+2476500D01*
X+2153920Y+2385060D01*
X+3119120Y+2494280D02*
X+3119120Y+2176780D01*
X+4008120Y+2176780D01*
X+4008120Y+2494280D01*
X+3246120Y+2176780D02*
X+3246120Y+2049780D01*
X+3309620Y+2049780D02*
X+3309620Y+2176780D01*
X+3246120Y+2049780D02*
X+3309620Y+2049780D01*
X+3500120Y+2176780D02*
X+3500120Y+2113280D01*
X+3627120Y+2113280D01*
X+3627120Y+2176780D01*
X+3817620Y+2176780D02*
X+3817620Y+2049780D01*
X+3881120Y+2049780D01*
X+3881120Y+2176780D01*
X+3436620Y+2446020D02*
X+3468370Y+2476500D01*
X+3500120Y+2476500D01*
X+3531870Y+2446020D01*
X+3531870Y+2415540D01*
X+3500120Y+2385060D01*
X+3468370Y+2385060D01*
X+3436620Y+2415540D01*
X+3436620Y+2446020D01*
X+3500120Y+2415540D02*
X+3531870Y+2385060D01*
X+3658870Y+2476500D02*
X+3579495Y+2476500D01*
X+3579495Y+2446020D01*
X+3642995Y+2446020D01*
X+3658870Y+2430780D01*
X+3658870Y+2400300D01*
X+3642995Y+2385060D01*
X+3595370Y+2385060D01*
X+3579495Y+2400300D01*
D29*
X+2588960Y+5887720D02*
X+2587429Y+5926820D01*
X+2575006Y+6005021D01*
X+2549154Y+6083222D01*
X+2507394Y+6161423D01*
X+2444155Y+6239624D01*
X+2365962Y+6303977D01*
X+2287761Y+6346499D01*
X+2209560Y+6372958D01*
X+2131359Y+6385919D01*
X+2088960Y+6387720D01*
X+1588960Y+5887720D02*
X+1590491Y+5926820D01*
X+1602914Y+6005021D01*
X+1628766Y+6083222D01*
X+1670526Y+6161423D01*
X+1733765Y+6239624D01*
X+1811958Y+6303977D01*
X+1890159Y+6346499D01*
X+1968360Y+6372958D01*
X+2046561Y+6385919D01*
X+2088960Y+6387720D01*
X+1588960Y+5887720D02*
X+1590491Y+5848620D01*
X+1602914Y+5770419D01*
X+1628766Y+5692218D01*
X+1670526Y+5614017D01*
X+1733765Y+5535816D01*
X+1811958Y+5471463D01*
X+1890159Y+5428941D01*
X+1968360Y+5402482D01*
X+2046561Y+5389521D01*
X+2088960Y+5387720D01*
X+2588960Y+5887720D02*
X+2587429Y+5848620D01*
X+2575006Y+5770419D01*
X+2549154Y+5692218D01*
X+2507394Y+5614017D01*
X+2444155Y+5535816D01*
X+2365962Y+5471463D01*
X+2287761Y+5428941D01*
X+2209560Y+5402482D01*
X+2131359Y+5389521D01*
X+2088960Y+5387720D01*
D27*
X+1722960Y+6263720D02*
X+1722925Y+6264551D01*
X+1722644Y+6266215D01*
X+1722054Y+6267879D01*
X+1721090Y+6269543D01*
X+1719615Y+6271184D01*
X+1717951Y+6272385D01*
X+1716287Y+6273150D01*
X+1714623Y+6273581D01*
X+1712960Y+6273720D01*
X+1702960Y+6263720D02*
X+1702995Y+6264551D01*
X+1703276Y+6266215D01*
X+1703866Y+6267879D01*
X+1704830Y+6269543D01*
X+1706305Y+6271184D01*
X+1707969Y+6272385D01*
X+1709633Y+6273150D01*
X+1711297Y+6273581D01*
X+1712960Y+6273720D01*
X+1702960Y+6263720D02*
X+1702995Y+6262889D01*
X+1703276Y+6261225D01*
X+1703866Y+6259561D01*
X+1704830Y+6257897D01*
X+1706305Y+6256256D01*
X+1707969Y+6255055D01*
X+1709633Y+6254290D01*
X+1711297Y+6253859D01*
X+1712960Y+6253720D01*
X+1722960Y+6263720D02*
X+1722925Y+6262889D01*
X+1722644Y+6261225D01*
X+1722054Y+6259561D01*
X+1721090Y+6257897D01*
X+1719615Y+6256256D01*
X+1717951Y+6255055D01*
X+1716287Y+6254290D01*
X+1714623Y+6253859D01*
X+1712960Y+6253720D01*
D25*
X+1993710Y+6439440D02*
X+1977835Y+6424200D01*
X+1930210Y+6424200D01*
X+1898460Y+6454680D01*
X+1898460Y+6485160D01*
X+1930210Y+6515640D01*
X+1977835Y+6515640D01*
X+1993710Y+6500400D01*
X+2041335Y+6500400D02*
X+2057210Y+6515640D01*
X+2104835Y+6515640D01*
X+2120710Y+6500400D01*
X+2120710Y+6485160D01*
X+2104835Y+6469920D01*
X+2057210Y+6469920D01*
X+2041335Y+6454680D01*
X+2041335Y+6424200D01*
X+2120710Y+6424200D01*
X+2184210Y+6485160D02*
X+2215960Y+6515640D01*
X+2215960Y+6424200D01*
X-63500Y+6977380D02*
X-37624Y+6972300D01*
X-13652Y+6957695D01*
X+7938Y+6934518D01*
X+26670Y+6903720D01*
X+42069Y+6866255D01*
X+53658Y+6823075D01*
X+60960Y+6775132D01*
X+63500Y+6723380D01*
X-63500Y+6469380D02*
X-37624Y+6474460D01*
X-13652Y+6489065D01*
X+7938Y+6512242D01*
X+26670Y+6543040D01*
X+42069Y+6580505D01*
X+53658Y+6623685D01*
X+60960Y+6671628D01*
X+63500Y+6723380D01*
X-63500Y+6977380D02*
X-89376Y+6972300D01*
X-113348Y+6957695D01*
X-134938Y+6934518D01*
X-153670Y+6903720D01*
X-169069Y+6866255D01*
X-180658Y+6823075D01*
X-187960Y+6775132D01*
X-190500Y+6723380D01*
X-63500Y+6469380D02*
X-89376Y+6474460D01*
X-113348Y+6489065D01*
X-134938Y+6512242D01*
X-153670Y+6543040D01*
X-169069Y+6580505D01*
X-180658Y+6623685D01*
X-187960Y+6671628D01*
X-190500Y+6723380D01*
X+180340Y+6691630D02*
X+195580Y+6675755D01*
X+195580Y+6628130D01*
X+165100Y+6596380D01*
X+134620Y+6596380D01*
X+104140Y+6628130D01*
X+104140Y+6675755D01*
X+119380Y+6691630D01*
X+134620Y+6755130D02*
X+104140Y+6786880D01*
X+195580Y+6786880D01*
X+972820Y+6974840D02*
X+998696Y+6969760D01*
X+1022668Y+6955155D01*
X+1044258Y+6931978D01*
X+1062990Y+6901180D01*
X+1078389Y+6863715D01*
X+1089978Y+6820535D01*
X+1097280Y+6772592D01*
X+1099820Y+6720840D01*
X+972820Y+6466840D02*
X+998696Y+6471920D01*
X+1022668Y+6486525D01*
X+1044258Y+6509702D01*
X+1062990Y+6540500D01*
X+1078389Y+6577965D01*
X+1089978Y+6621145D01*
X+1097280Y+6669088D01*
X+1099820Y+6720840D01*
X+972820Y+6974840D02*
X+946944Y+6969760D01*
X+922972Y+6955155D01*
X+901382Y+6931978D01*
X+882650Y+6901180D01*
X+867251Y+6863715D01*
X+855662Y+6820535D01*
X+848360Y+6772592D01*
X+845820Y+6720840D01*
X+972820Y+6466840D02*
X+946944Y+6471920D01*
X+922972Y+6486525D01*
X+901382Y+6509702D01*
X+882650Y+6540500D01*
X+867251Y+6577965D01*
X+855662Y+6621145D01*
X+848360Y+6669088D01*
X+845820Y+6720840D01*
X+1216660Y+6689090D02*
X+1231900Y+6673215D01*
X+1231900Y+6625590D01*
X+1201420Y+6593840D01*
X+1170940Y+6593840D01*
X+1140460Y+6625590D01*
X+1140460Y+6673215D01*
X+1155700Y+6689090D01*
X+1155700Y+6736715D02*
X+1140460Y+6752590D01*
X+1140460Y+6800215D01*
X+1155700Y+6816090D01*
X+1170940Y+6816090D01*
X+1186180Y+6800215D01*
X+1186180Y+6752590D01*
X+1201420Y+6736715D01*
X+1231900Y+6736715D01*
X+1231900Y+6816090D01*
X+2037080Y+6459220D02*
X+2011204Y+6464300D01*
X+1987232Y+6478905D01*
X+1965642Y+6502082D01*
X+1946910Y+6532880D01*
X+1931511Y+6570345D01*
X+1919922Y+6613525D01*
X+1912620Y+6661468D01*
X+1910080Y+6713220D01*
X+2037080Y+6967220D02*
X+2011204Y+6962140D01*
X+1987232Y+6947535D01*
X+1965642Y+6924358D01*
X+1946910Y+6893560D01*
X+1931511Y+6856095D01*
X+1919922Y+6812915D01*
X+1912620Y+6764972D01*
X+1910080Y+6713220D01*
X+2037080Y+6459220D02*
X+2062956Y+6464300D01*
X+2086928Y+6478905D01*
X+2108518Y+6502082D01*
X+2127250Y+6532880D01*
X+2142649Y+6570345D01*
X+2154238Y+6613525D01*
X+2161540Y+6661468D01*
X+2164080Y+6713220D01*
X+2037080Y+6967220D02*
X+2062956Y+6962140D01*
X+2086928Y+6947535D01*
X+2108518Y+6924358D01*
X+2127250Y+6893560D01*
X+2142649Y+6856095D01*
X+2154238Y+6812915D01*
X+2161540Y+6764972D01*
X+2164080Y+6713220D01*
X+1854200Y+6681470D02*
X+1869440Y+6665595D01*
X+1869440Y+6617970D01*
X+1838960Y+6586220D01*
X+1808480Y+6586220D01*
X+1778000Y+6617970D01*
X+1778000Y+6665595D01*
X+1793240Y+6681470D01*
X+1793240Y+6729095D02*
X+1778000Y+6744970D01*
X+1778000Y+6792595D01*
X+1793240Y+6808470D01*
X+1808480Y+6808470D01*
X+1823720Y+6792595D01*
X+1838960Y+6808470D01*
X+1854200Y+6808470D01*
X+1869440Y+6792595D01*
X+1869440Y+6744970D01*
X+1854200Y+6729095D01*
X+1823720Y+6760845D02*
X+1823720Y+6792595D01*
X+3027680Y+6969760D02*
X+3053556Y+6964680D01*
X+3077528Y+6950075D01*
X+3099118Y+6926898D01*
X+3117850Y+6896100D01*
X+3133249Y+6858635D01*
X+3144838Y+6815455D01*
X+3152140Y+6767512D01*
X+3154680Y+6715760D01*
X+3027680Y+6461760D02*
X+3053556Y+6466840D01*
X+3077528Y+6481445D01*
X+3099118Y+6504622D01*
X+3117850Y+6535420D01*
X+3133249Y+6572885D01*
X+3144838Y+6616065D01*
X+3152140Y+6664008D01*
X+3154680Y+6715760D01*
X+3027680Y+6969760D02*
X+3001804Y+6964680D01*
X+2977832Y+6950075D01*
X+2956242Y+6926898D01*
X+2937510Y+6896100D01*
X+2922111Y+6858635D01*
X+2910522Y+6815455D01*
X+2903220Y+6767512D01*
X+2900680Y+6715760D01*
X+3027680Y+6461760D02*
X+3001804Y+6466840D01*
X+2977832Y+6481445D01*
X+2956242Y+6504622D01*
X+2937510Y+6535420D01*
X+2922111Y+6572885D01*
X+2910522Y+6616065D01*
X+2903220Y+6664008D01*
X+2900680Y+6715760D01*
X+3271520Y+6684010D02*
X+3286760Y+6668135D01*
X+3286760Y+6620510D01*
X+3256280Y+6588760D01*
X+3225800Y+6588760D01*
X+3195320Y+6620510D01*
X+3195320Y+6668135D01*
X+3210560Y+6684010D01*
X+3256280Y+6811010D02*
X+3256280Y+6715760D01*
X+3195320Y+6779260D01*
X+3286760Y+6779260D01*
X+3977640Y+6464300D02*
X+3951764Y+6469380D01*
X+3927792Y+6483985D01*
X+3906202Y+6507162D01*
X+3887470Y+6537960D01*
X+3872071Y+6575425D01*
X+3860482Y+6618605D01*
X+3853180Y+6666548D01*
X+3850640Y+6718300D01*
X+3977640Y+6972300D02*
X+3951764Y+6967220D01*
X+3927792Y+6952615D01*
X+3906202Y+6929438D01*
X+3887470Y+6898640D01*
X+3872071Y+6861175D01*
X+3860482Y+6817995D01*
X+3853180Y+6770052D01*
X+3850640Y+6718300D01*
X+3977640Y+6464300D02*
X+4003516Y+6469380D01*
X+4027488Y+6483985D01*
X+4049078Y+6507162D01*
X+4067810Y+6537960D01*
X+4083209Y+6575425D01*
X+4094798Y+6618605D01*
X+4102100Y+6666548D01*
X+4104640Y+6718300D01*
X+3977640Y+6972300D02*
X+4003516Y+6967220D01*
X+4027488Y+6952615D01*
X+4049078Y+6929438D01*
X+4067810Y+6898640D01*
X+4083209Y+6861175D01*
X+4094798Y+6817995D01*
X+4102100Y+6770052D01*
X+4104640Y+6718300D01*
X+3794760Y+6686550D02*
X+3810000Y+6670675D01*
X+3810000Y+6623050D01*
X+3779520Y+6591300D01*
X+3749040Y+6591300D01*
X+3718560Y+6623050D01*
X+3718560Y+6670675D01*
X+3733800Y+6686550D01*
X+3718560Y+6813550D02*
X+3718560Y+6734175D01*
X+3749040Y+6734175D01*
X+3749040Y+6797675D01*
X+3764280Y+6813550D01*
X+3794760Y+6813550D01*
X+3810000Y+6797675D01*
X+3810000Y+6750050D01*
X+3794760Y+6734175D01*
X+1033780Y+4323080D02*
X+144780Y+4323080D01*
X+1033780Y+4323080D02*
X+1033780Y+4069080D01*
X+144780Y+4323080D02*
X+144780Y+4069080D01*
X+906780Y+3942080D02*
X+271780Y+3942080D01*
X+1033780Y+4069080D02*
X+1031240Y+4043204D01*
X+1023938Y+4019232D01*
X+1012349Y+3997642D01*
X+996950Y+3978910D01*
X+978218Y+3963511D01*
X+956628Y+3951922D01*
X+932656Y+3944620D01*
X+906780Y+3942080D01*
X+144780Y+4069080D02*
X+147320Y+4043204D01*
X+154622Y+4019232D01*
X+166211Y+3997642D01*
X+181610Y+3978910D01*
X+200342Y+3963511D01*
X+221932Y+3951922D01*
X+245904Y+3944620D01*
X+271780Y+3942080D01*
X+652780Y+4361180D02*
X+684530Y+4391660D01*
X+716280Y+4391660D01*
X+748030Y+4361180D01*
X+748030Y+4330700D01*
X+716280Y+4300220D01*
X+684530Y+4300220D01*
X+652780Y+4330700D01*
X+652780Y+4361180D01*
X+716280Y+4330700D02*
X+748030Y+4300220D01*
X+811530Y+4361180D02*
X+843280Y+4391660D01*
X+843280Y+4300220D01*
X+922655Y+4376420D02*
X+938530Y+4391660D01*
X+986155Y+4391660D01*
X+1002030Y+4376420D01*
X+1002030Y+4361180D01*
X+986155Y+4345940D01*
X+938530Y+4345940D01*
X+922655Y+4330700D01*
X+922655Y+4300220D01*
X+1002030Y+4300220D01*
X+3162300Y+3957320D02*
X+4051300Y+3957320D01*
X+3162300Y+3957320D02*
X+3162300Y+4211320D01*
X+4051300Y+3957320D02*
X+4051300Y+4211320D01*
X+3289300Y+4338320D02*
X+3924300Y+4338320D01*
X+3162300Y+4211320D02*
X+3164840Y+4237196D01*
X+3172142Y+4261168D01*
X+3183731Y+4282758D01*
X+3199130Y+4301490D01*
X+3217862Y+4316889D01*
X+3239452Y+4328478D01*
X+3263424Y+4335780D01*
X+3289300Y+4338320D01*
X+4051300Y+4211320D02*
X+4048760Y+4237196D01*
X+4041458Y+4261168D01*
X+4029869Y+4282758D01*
X+4014470Y+4301490D01*
X+3995738Y+4316889D01*
X+3974148Y+4328478D01*
X+3950176Y+4335780D01*
X+3924300Y+4338320D01*
X+3162300Y+3949700D02*
X+3194050Y+3980180D01*
X+3225800Y+3980180D01*
X+3257550Y+3949700D01*
X+3257550Y+3919220D01*
X+3225800Y+3888740D01*
X+3194050Y+3888740D01*
X+3162300Y+3919220D01*
X+3162300Y+3949700D01*
X+3225800Y+3919220D02*
X+3257550Y+3888740D01*
X+3321050Y+3949700D02*
X+3352800Y+3980180D01*
X+3352800Y+3888740D01*
X+3448050Y+3949700D02*
X+3479800Y+3980180D01*
X+3479800Y+3888740D01*
X+1049020Y+1371600D02*
X+160020Y+1371600D01*
X+1049020Y+1371600D02*
X+1049020Y+1117600D01*
X+160020Y+1371600D02*
X+160020Y+1117600D01*
X+922020Y+990600D02*
X+287020Y+990600D01*
X+1049020Y+1117600D02*
X+1046480Y+1091724D01*
X+1039178Y+1067752D01*
X+1027589Y+1046162D01*
X+1012190Y+1027430D01*
X+993458Y+1012031D01*
X+971868Y+1000442D01*
X+947896Y+993140D01*
X+922020Y+990600D01*
X+160020Y+1117600D02*
X+162560Y+1091724D01*
X+169862Y+1067752D01*
X+181451Y+1046162D01*
X+196850Y+1027430D01*
X+215582Y+1012031D01*
X+237172Y+1000442D01*
X+261144Y+993140D01*
X+287020Y+990600D01*
X+668020Y+1409700D02*
X+699770Y+1440180D01*
X+731520Y+1440180D01*
X+763270Y+1409700D01*
X+763270Y+1379220D01*
X+731520Y+1348740D01*
X+699770Y+1348740D01*
X+668020Y+1379220D01*
X+668020Y+1409700D01*
X+731520Y+1379220D02*
X+763270Y+1348740D01*
X+826770Y+1409700D02*
X+858520Y+1440180D01*
X+858520Y+1348740D01*
X+922020Y+1363980D02*
X+922020Y+1424940D01*
X+937895Y+1440180D01*
X+1001395Y+1440180D01*
X+1017270Y+1424940D01*
X+1017270Y+1363980D01*
X+1001395Y+1348740D01*
X+937895Y+1348740D01*
X+922020Y+1363980D01*
X+922020Y+1348740D02*
X+1017270Y+1440180D01*
X+2547620Y+1371600D02*
X+1658620Y+1371600D01*
X+2547620Y+1371600D02*
X+2547620Y+1117600D01*
X+1658620Y+1371600D02*
X+1658620Y+1117600D01*
X+2420620Y+990600D02*
X+1785620Y+990600D01*
X+2547620Y+1117600D02*
X+2545080Y+1091724D01*
X+2537778Y+1067752D01*
X+2526189Y+1046162D01*
X+2510790Y+1027430D01*
X+2492058Y+1012031D01*
X+2470468Y+1000442D01*
X+2446496Y+993140D01*
X+2420620Y+990600D01*
X+1658620Y+1117600D02*
X+1661160Y+1091724D01*
X+1668462Y+1067752D01*
X+1680051Y+1046162D01*
X+1695450Y+1027430D01*
X+1714182Y+1012031D01*
X+1735772Y+1000442D01*
X+1759744Y+993140D01*
X+1785620Y+990600D01*
X+2230120Y+1409700D02*
X+2261870Y+1440180D01*
X+2293620Y+1440180D01*
X+2325370Y+1409700D01*
X+2325370Y+1379220D01*
X+2293620Y+1348740D01*
X+2261870Y+1348740D01*
X+2230120Y+1379220D01*
X+2230120Y+1409700D01*
X+2293620Y+1379220D02*
X+2325370Y+1348740D01*
X+2452370Y+1409700D02*
X+2436495Y+1394460D01*
X+2388870Y+1394460D01*
X+2372995Y+1409700D01*
X+2372995Y+1424940D01*
X+2388870Y+1440180D01*
X+2436495Y+1440180D01*
X+2452370Y+1424940D01*
X+2452370Y+1363980D01*
X+2436495Y+1348740D01*
X+2388870Y+1348740D01*
X+3169920Y+982980D02*
X+4058920Y+982980D01*
X+3169920Y+982980D02*
X+3169920Y+1236980D01*
X+4058920Y+982980D02*
X+4058920Y+1236980D01*
X+3296920Y+1363980D02*
X+3931920Y+1363980D01*
X+3169920Y+1236980D02*
X+3172460Y+1262856D01*
X+3179762Y+1286828D01*
X+3191351Y+1308418D01*
X+3206750Y+1327150D01*
X+3225482Y+1342549D01*
X+3247072Y+1354138D01*
X+3271044Y+1361440D01*
X+3296920Y+1363980D01*
X+4058920Y+1236980D02*
X+4056380Y+1262856D01*
X+4049078Y+1286828D01*
X+4037489Y+1308418D01*
X+4022090Y+1327150D01*
X+4003358Y+1342549D01*
X+3981768Y+1354138D01*
X+3957796Y+1361440D01*
X+3931920Y+1363980D01*
X+3233420Y+975360D02*
X+3265170Y+1005840D01*
X+3296920Y+1005840D01*
X+3328670Y+975360D01*
X+3328670Y+944880D01*
X+3296920Y+914400D01*
X+3265170Y+914400D01*
X+3233420Y+944880D01*
X+3233420Y+975360D01*
X+3296920Y+944880D02*
X+3328670Y+914400D01*
X+3392170Y+960120D02*
X+3376295Y+975360D01*
X+3376295Y+990600D01*
X+3392170Y+1005840D01*
X+3439795Y+1005840D01*
X+3455670Y+990600D01*
X+3455670Y+975360D01*
X+3439795Y+960120D01*
X+3392170Y+960120D01*
X+3376295Y+944880D01*
X+3376295Y+929640D01*
X+3392170Y+914400D01*
X+3439795Y+914400D01*
X+3455670Y+929640D01*
X+3455670Y+944880D01*
X+3439795Y+960120D01*
X-1399540Y+5656580D02*
X-1272540Y+5656580D01*
X-1272540Y+5593080D02*
X-764540Y+5593080D01*
X-764540Y+5720080D01*
X-1272540Y+5720080D01*
X-1272540Y+5593080D01*
X-764540Y+5656580D02*
X-637540Y+5656580D01*
X-1209040Y+5760720D02*
X-1209040Y+5852160D01*
X-1129665Y+5852160D01*
X-1113790Y+5836920D01*
X-1113790Y+5821680D01*
X-1129665Y+5806440D01*
X-1209040Y+5806440D01*
X-1129665Y+5806440D02*
X-1113790Y+5791200D01*
X-1113790Y+5760720D01*
X-1050290Y+5821680D02*
X-1018540Y+5852160D01*
X-1018540Y+5760720D01*
X-923290Y+5806440D02*
X-939165Y+5821680D01*
X-939165Y+5836920D01*
X-923290Y+5852160D01*
X-875665Y+5852160D01*
X-859790Y+5836920D01*
X-859790Y+5821680D01*
X-875665Y+5806440D01*
X-923290Y+5806440D01*
X-939165Y+5791200D01*
X-939165Y+5775960D01*
X-923290Y+5760720D01*
X-875665Y+5760720D01*
X-859790Y+5775960D01*
X-859790Y+5791200D01*
X-875665Y+5806440D01*
X-1402080Y+5334000D02*
X-1275080Y+5334000D01*
X-1275080Y+5270500D02*
X-767080Y+5270500D01*
X-767080Y+5397500D01*
X-1275080Y+5397500D01*
X-1275080Y+5270500D01*
X-767080Y+5334000D02*
X-640080Y+5334000D01*
X-1211580Y+5438140D02*
X-1211580Y+5529580D01*
X-1132205Y+5529580D01*
X-1116330Y+5514340D01*
X-1116330Y+5499100D01*
X-1132205Y+5483860D01*
X-1211580Y+5483860D01*
X-1132205Y+5483860D02*
X-1116330Y+5468620D01*
X-1116330Y+5438140D01*
X-1052830Y+5499100D02*
X-1021080Y+5529580D01*
X-1021080Y+5438140D01*
X-941705Y+5514340D02*
X-925830Y+5529580D01*
X-878205Y+5529580D01*
X-862330Y+5514340D01*
X-862330Y+5499100D01*
X-878205Y+5483860D01*
X-862330Y+5468620D01*
X-862330Y+5453380D01*
X-878205Y+5438140D01*
X-925830Y+5438140D01*
X-941705Y+5453380D01*
X-909955Y+5483860D02*
X-878205Y+5483860D01*
X-1407160Y+5031740D02*
X-1280160Y+5031740D01*
X-1280160Y+4968240D02*
X-772160Y+4968240D01*
X-772160Y+5095240D01*
X-1280160Y+5095240D01*
X-1280160Y+4968240D01*
X-772160Y+5031740D02*
X-645160Y+5031740D01*
X-1216660Y+5135880D02*
X-1216660Y+5227320D01*
X-1137285Y+5227320D01*
X-1121410Y+5212080D01*
X-1121410Y+5196840D01*
X-1137285Y+5181600D01*
X-1216660Y+5181600D01*
X-1137285Y+5181600D02*
X-1121410Y+5166360D01*
X-1121410Y+5135880D01*
X-1057910Y+5196840D02*
X-1026160Y+5227320D01*
X-1026160Y+5135880D01*
X-867410Y+5166360D02*
X-962660Y+5166360D01*
X-899160Y+5227320D01*
X-899160Y+5135880D01*
X-1409700Y+4719320D02*
X-1282700Y+4719320D01*
X-1282700Y+4655820D02*
X-774700Y+4655820D01*
X-774700Y+4782820D01*
X-1282700Y+4782820D01*
X-1282700Y+4655820D01*
X-774700Y+4719320D02*
X-647700Y+4719320D01*
X-1219200Y+4823460D02*
X-1219200Y+4914900D01*
X-1139825Y+4914900D01*
X-1123950Y+4899660D01*
X-1123950Y+4884420D01*
X-1139825Y+4869180D01*
X-1219200Y+4869180D01*
X-1139825Y+4869180D02*
X-1123950Y+4853940D01*
X-1123950Y+4823460D01*
X-1060450Y+4884420D02*
X-1028700Y+4914900D01*
X-1028700Y+4823460D01*
X-869950Y+4914900D02*
X-949325Y+4914900D01*
X-949325Y+4884420D01*
X-885825Y+4884420D01*
X-869950Y+4869180D01*
X-869950Y+4838700D01*
X-885825Y+4823460D01*
X-933450Y+4823460D01*
X-949325Y+4838700D01*
X-1404620Y+4394200D02*
X-1277620Y+4394200D01*
X-1277620Y+4330700D02*
X-769620Y+4330700D01*
X-769620Y+4457700D01*
X-1277620Y+4457700D01*
X-1277620Y+4330700D01*
X-769620Y+4394200D02*
X-642620Y+4394200D01*
X-1214120Y+4498340D02*
X-1214120Y+4589780D01*
X-1134745Y+4589780D01*
X-1118870Y+4574540D01*
X-1118870Y+4559300D01*
X-1134745Y+4544060D01*
X-1214120Y+4544060D01*
X-1134745Y+4544060D02*
X-1118870Y+4528820D01*
X-1118870Y+4498340D01*
X-1055370Y+4559300D02*
X-1023620Y+4589780D01*
X-1023620Y+4498340D01*
X-864870Y+4574540D02*
X-880745Y+4589780D01*
X-928370Y+4589780D01*
X-944245Y+4574540D01*
X-944245Y+4513580D01*
X-928370Y+4498340D01*
X-880745Y+4498340D01*
X-864870Y+4513580D01*
X-864870Y+4528820D01*
X-880745Y+4544060D01*
X-944245Y+4544060D01*
X+558800Y+6977380D02*
X+584676Y+6972300D01*
X+608648Y+6957695D01*
X+630238Y+6934518D01*
X+648970Y+6903720D01*
X+664369Y+6866255D01*
X+675958Y+6823075D01*
X+683260Y+6775132D01*
X+685800Y+6723380D01*
X+558800Y+6469380D02*
X+584676Y+6474460D01*
X+608648Y+6489065D01*
X+630238Y+6512242D01*
X+648970Y+6543040D01*
X+664369Y+6580505D01*
X+675958Y+6623685D01*
X+683260Y+6671628D01*
X+685800Y+6723380D01*
X+558800Y+6977380D02*
X+532924Y+6972300D01*
X+508952Y+6957695D01*
X+487362Y+6934518D01*
X+468630Y+6903720D01*
X+453231Y+6866255D01*
X+441642Y+6823075D01*
X+434340Y+6775132D01*
X+431800Y+6723380D01*
X+558800Y+6469380D02*
X+532924Y+6474460D01*
X+508952Y+6489065D01*
X+487362Y+6512242D01*
X+468630Y+6543040D01*
X+453231Y+6580505D01*
X+441642Y+6623685D01*
X+434340Y+6671628D01*
X+431800Y+6723380D01*
X+802640Y+6628130D02*
X+817880Y+6612255D01*
X+817880Y+6564630D01*
X+787400Y+6532880D01*
X+756920Y+6532880D01*
X+726440Y+6564630D01*
X+726440Y+6612255D01*
X+741680Y+6628130D01*
X+756920Y+6691630D02*
X+726440Y+6723380D01*
X+817880Y+6723380D01*
X+741680Y+6802755D02*
X+726440Y+6818630D01*
X+726440Y+6866255D01*
X+741680Y+6882130D01*
X+756920Y+6882130D01*
X+772160Y+6866255D01*
X+787400Y+6882130D01*
X+802640Y+6882130D01*
X+817880Y+6866255D01*
X+817880Y+6818630D01*
X+802640Y+6802755D01*
X+772160Y+6834505D02*
X+772160Y+6866255D01*
X+1615440Y+6461760D02*
X+1589564Y+6466840D01*
X+1565592Y+6481445D01*
X+1544002Y+6504622D01*
X+1525270Y+6535420D01*
X+1509871Y+6572885D01*
X+1498282Y+6616065D01*
X+1490980Y+6664008D01*
X+1488440Y+6715760D01*
X+1615440Y+6969760D02*
X+1589564Y+6964680D01*
X+1565592Y+6950075D01*
X+1544002Y+6926898D01*
X+1525270Y+6896100D01*
X+1509871Y+6858635D01*
X+1498282Y+6815455D01*
X+1490980Y+6767512D01*
X+1488440Y+6715760D01*
X+1615440Y+6461760D02*
X+1641316Y+6466840D01*
X+1665288Y+6481445D01*
X+1686878Y+6504622D01*
X+1705610Y+6535420D01*
X+1721009Y+6572885D01*
X+1732598Y+6616065D01*
X+1739900Y+6664008D01*
X+1742440Y+6715760D01*
X+1615440Y+6969760D02*
X+1641316Y+6964680D01*
X+1665288Y+6950075D01*
X+1686878Y+6926898D01*
X+1705610Y+6896100D01*
X+1721009Y+6858635D01*
X+1732598Y+6815455D01*
X+1739900Y+6767512D01*
X+1742440Y+6715760D01*
X+1432560Y+6620510D02*
X+1447800Y+6604635D01*
X+1447800Y+6557010D01*
X+1417320Y+6525260D01*
X+1386840Y+6525260D01*
X+1356360Y+6557010D01*
X+1356360Y+6604635D01*
X+1371600Y+6620510D01*
X+1386840Y+6684010D02*
X+1356360Y+6715760D01*
X+1447800Y+6715760D01*
X+1371600Y+6795135D02*
X+1356360Y+6811010D01*
X+1356360Y+6858635D01*
X+1371600Y+6874510D01*
X+1386840Y+6874510D01*
X+1402080Y+6858635D01*
X+1402080Y+6811010D01*
X+1417320Y+6795135D01*
X+1447800Y+6795135D01*
X+1447800Y+6874510D01*
X+2656840Y+6464300D02*
X+2630964Y+6469380D01*
X+2606992Y+6483985D01*
X+2585402Y+6507162D01*
X+2566670Y+6537960D01*
X+2551271Y+6575425D01*
X+2539682Y+6618605D01*
X+2532380Y+6666548D01*
X+2529840Y+6718300D01*
X+2656840Y+6972300D02*
X+2630964Y+6967220D01*
X+2606992Y+6952615D01*
X+2585402Y+6929438D01*
X+2566670Y+6898640D01*
X+2551271Y+6861175D01*
X+2539682Y+6817995D01*
X+2532380Y+6770052D01*
X+2529840Y+6718300D01*
X+2656840Y+6464300D02*
X+2682716Y+6469380D01*
X+2706688Y+6483985D01*
X+2728278Y+6507162D01*
X+2747010Y+6537960D01*
X+2762409Y+6575425D01*
X+2773998Y+6618605D01*
X+2781300Y+6666548D01*
X+2783840Y+6718300D01*
X+2656840Y+6972300D02*
X+2682716Y+6967220D01*
X+2706688Y+6952615D01*
X+2728278Y+6929438D01*
X+2747010Y+6898640D01*
X+2762409Y+6861175D01*
X+2773998Y+6817995D01*
X+2781300Y+6770052D01*
X+2783840Y+6718300D01*
X+2473960Y+6623050D02*
X+2489200Y+6607175D01*
X+2489200Y+6559550D01*
X+2458720Y+6527800D01*
X+2428240Y+6527800D01*
X+2397760Y+6559550D01*
X+2397760Y+6607175D01*
X+2413000Y+6623050D01*
X+2428240Y+6686550D02*
X+2397760Y+6718300D01*
X+2489200Y+6718300D01*
X+2428240Y+6813550D02*
X+2397760Y+6845300D01*
X+2489200Y+6845300D01*
X+3637280Y+6464300D02*
X+3611404Y+6469380D01*
X+3587432Y+6483985D01*
X+3565842Y+6507162D01*
X+3547110Y+6537960D01*
X+3531711Y+6575425D01*
X+3520122Y+6618605D01*
X+3512820Y+6666548D01*
X+3510280Y+6718300D01*
X+3637280Y+6972300D02*
X+3611404Y+6967220D01*
X+3587432Y+6952615D01*
X+3565842Y+6929438D01*
X+3547110Y+6898640D01*
X+3531711Y+6861175D01*
X+3520122Y+6817995D01*
X+3512820Y+6770052D01*
X+3510280Y+6718300D01*
X+3637280Y+6464300D02*
X+3663156Y+6469380D01*
X+3687128Y+6483985D01*
X+3708718Y+6507162D01*
X+3727450Y+6537960D01*
X+3742849Y+6575425D01*
X+3754438Y+6618605D01*
X+3761740Y+6666548D01*
X+3764280Y+6718300D01*
X+3637280Y+6972300D02*
X+3663156Y+6967220D01*
X+3687128Y+6952615D01*
X+3708718Y+6929438D01*
X+3727450Y+6898640D01*
X+3742849Y+6861175D01*
X+3754438Y+6817995D01*
X+3761740Y+6770052D01*
X+3764280Y+6718300D01*
X+3454400Y+6623050D02*
X+3469640Y+6607175D01*
X+3469640Y+6559550D01*
X+3439160Y+6527800D01*
X+3408680Y+6527800D01*
X+3378200Y+6559550D01*
X+3378200Y+6607175D01*
X+3393440Y+6623050D01*
X+3408680Y+6686550D02*
X+3378200Y+6718300D01*
X+3469640Y+6718300D01*
X+3454400Y+6781800D02*
X+3393440Y+6781800D01*
X+3378200Y+6797675D01*
X+3378200Y+6861175D01*
X+3393440Y+6877050D01*
X+3454400Y+6877050D01*
X+3469640Y+6861175D01*
X+3469640Y+6797675D01*
X+3454400Y+6781800D01*
X+3469640Y+6781800D02*
X+3378200Y+6877050D01*
X+4556760Y+6449060D02*
X+4530884Y+6454140D01*
X+4506912Y+6468745D01*
X+4485322Y+6491922D01*
X+4466590Y+6522720D01*
X+4451191Y+6560185D01*
X+4439602Y+6603365D01*
X+4432300Y+6651308D01*
X+4429760Y+6703060D01*
X+4556760Y+6957060D02*
X+4530884Y+6951980D01*
X+4506912Y+6937375D01*
X+4485322Y+6914198D01*
X+4466590Y+6883400D01*
X+4451191Y+6845935D01*
X+4439602Y+6802755D01*
X+4432300Y+6754812D01*
X+4429760Y+6703060D01*
X+4556760Y+6449060D02*
X+4582636Y+6454140D01*
X+4606608Y+6468745D01*
X+4628198Y+6491922D01*
X+4646930Y+6522720D01*
X+4662329Y+6560185D01*
X+4673918Y+6603365D01*
X+4681220Y+6651308D01*
X+4683760Y+6703060D01*
X+4556760Y+6957060D02*
X+4582636Y+6951980D01*
X+4606608Y+6937375D01*
X+4628198Y+6914198D01*
X+4646930Y+6883400D01*
X+4662329Y+6845935D01*
X+4673918Y+6802755D01*
X+4681220Y+6754812D01*
X+4683760Y+6703060D01*
X+4373880Y+6671310D02*
X+4389120Y+6655435D01*
X+4389120Y+6607810D01*
X+4358640Y+6576060D01*
X+4328160Y+6576060D01*
X+4297680Y+6607810D01*
X+4297680Y+6655435D01*
X+4312920Y+6671310D01*
X+4328160Y+6798310D02*
X+4343400Y+6782435D01*
X+4343400Y+6734810D01*
X+4328160Y+6718935D01*
X+4312920Y+6718935D01*
X+4297680Y+6734810D01*
X+4297680Y+6782435D01*
X+4312920Y+6798310D01*
X+4373880Y+6798310D01*
X+4389120Y+6782435D01*
X+4389120Y+6734810D01*
X+1691640Y+5049520D02*
X+1818640Y+5049520D01*
X+1818640Y+4986020D02*
X+2326640Y+4986020D01*
X+2326640Y+5113020D01*
X+1818640Y+5113020D01*
X+1818640Y+4986020D01*
X+2326640Y+5049520D02*
X+2453640Y+5049520D01*
X+1945640Y+5153660D02*
X+1945640Y+5245100D01*
X+2025015Y+5245100D01*
X+2040890Y+5229860D01*
X+2040890Y+5214620D01*
X+2025015Y+5199380D01*
X+1945640Y+5199380D01*
X+2025015Y+5199380D02*
X+2040890Y+5184140D01*
X+2040890Y+5153660D01*
X+2088515Y+5229860D02*
X+2104390Y+5245100D01*
X+2152015Y+5245100D01*
X+2167890Y+5229860D01*
X+2167890Y+5214620D01*
X+2152015Y+5199380D01*
X+2104390Y+5199380D01*
X+2088515Y+5184140D01*
X+2088515Y+5153660D01*
X+2167890Y+5153660D01*
X+2458720Y+4729480D02*
X+2331720Y+4729480D01*
X+1823720Y+4665980D02*
X+2331720Y+4665980D01*
X+2331720Y+4792980D01*
X+1823720Y+4792980D01*
X+1823720Y+4665980D01*
X+1823720Y+4729480D02*
X+1696720Y+4729480D01*
X+1950720Y+4533900D02*
X+1950720Y+4625340D01*
X+2030095Y+4625340D01*
X+2045970Y+4610100D01*
X+2045970Y+4594860D01*
X+2030095Y+4579620D01*
X+1950720Y+4579620D01*
X+2030095Y+4579620D02*
X+2045970Y+4564380D01*
X+2045970Y+4533900D01*
X+2109470Y+4594860D02*
X+2141220Y+4625340D01*
X+2141220Y+4533900D01*
X+1699260Y+4411980D02*
X+1826260Y+4411980D01*
X+1826260Y+4348480D02*
X+2334260Y+4348480D01*
X+2334260Y+4475480D01*
X+1826260Y+4475480D01*
X+1826260Y+4348480D01*
X+2334260Y+4411980D02*
X+2461260Y+4411980D01*
X+1953260Y+4516120D02*
X+1953260Y+4607560D01*
X+2032635Y+4607560D01*
X+2048510Y+4592320D01*
X+2048510Y+4577080D01*
X+2032635Y+4561840D01*
X+1953260Y+4561840D01*
X+2032635Y+4561840D02*
X+2048510Y+4546600D01*
X+2048510Y+4516120D01*
X+2096135Y+4592320D02*
X+2112010Y+4607560D01*
X+2159635Y+4607560D01*
X+2175510Y+4592320D01*
X+2175510Y+4577080D01*
X+2159635Y+4561840D01*
X+2175510Y+4546600D01*
X+2175510Y+4531360D01*
X+2159635Y+4516120D01*
X+2112010Y+4516120D01*
X+2096135Y+4531360D01*
X+2127885Y+4561840D02*
X+2159635Y+4561840D01*
X+1699260Y+4097020D02*
X+1826260Y+4097020D01*
X+1826260Y+4033520D02*
X+2334260Y+4033520D01*
X+2334260Y+4160520D01*
X+1826260Y+4160520D01*
X+1826260Y+4033520D01*
X+2334260Y+4097020D02*
X+2461260Y+4097020D01*
X+1953260Y+4201160D02*
X+1953260Y+4292600D01*
X+2032635Y+4292600D01*
X+2048510Y+4277360D01*
X+2048510Y+4262120D01*
X+2032635Y+4246880D01*
X+1953260Y+4246880D01*
X+2032635Y+4246880D02*
X+2048510Y+4231640D01*
X+2048510Y+4201160D01*
X+2175510Y+4231640D02*
X+2080260Y+4231640D01*
X+2143760Y+4292600D01*
X+2143760Y+4201160D01*
X+1704340Y+3771900D02*
X+1831340Y+3771900D01*
X+1831340Y+3708400D02*
X+2339340Y+3708400D01*
X+2339340Y+3835400D01*
X+1831340Y+3835400D01*
X+1831340Y+3708400D01*
X+2339340Y+3771900D02*
X+2466340Y+3771900D01*
X+1958340Y+3876040D02*
X+1958340Y+3967480D01*
X+2037715Y+3967480D01*
X+2053590Y+3952240D01*
X+2053590Y+3937000D01*
X+2037715Y+3921760D01*
X+1958340Y+3921760D01*
X+2037715Y+3921760D02*
X+2053590Y+3906520D01*
X+2053590Y+3876040D01*
X+2180590Y+3967480D02*
X+2101215Y+3967480D01*
X+2101215Y+3937000D01*
X+2164715Y+3937000D01*
X+2180590Y+3921760D01*
X+2180590Y+3891280D01*
X+2164715Y+3876040D01*
X+2117090Y+3876040D01*
X+2101215Y+3891280D01*
X-2895600Y+6421660D02*
X-2895600Y+2992660D01*
X-2387600Y+2992660D01*
X-2387600Y+6421660D01*
X-2895600Y+6421660D02*
X-2768600Y+6421660D01*
X-2387600Y+6421660D02*
X-2514600Y+6421660D01*
X-2768600Y+6421660D02*
X-2766073Y+6395692D01*
X-2758802Y+6371678D01*
X-2747252Y+6350083D01*
X-2731889Y+6331371D01*
X-2713177Y+6316007D01*
X-2691581Y+6304458D01*
X-2667567Y+6297187D01*
X-2641600Y+6294660D01*
X-2514600Y+6421660D02*
X-2517127Y+6395692D01*
X-2524398Y+6371678D01*
X-2535948Y+6350083D01*
X-2551311Y+6331371D01*
X-2570023Y+6316007D01*
X-2591618Y+6304458D01*
X-2615632Y+6297187D01*
X-2641600Y+6294660D01*
X-2847776Y+6370860D02*
X-2847801Y+6371457D01*
X-2848003Y+6372653D01*
X-2848427Y+6373849D01*
X-2849121Y+6375045D01*
X-2850181Y+6376224D01*
X-2851377Y+6377087D01*
X-2852573Y+6377636D01*
X-2853769Y+6377945D01*
X-2854960Y+6378044D01*
X-2862144Y+6370860D02*
X-2862119Y+6371457D01*
X-2861917Y+6372653D01*
X-2861493Y+6373849D01*
X-2860799Y+6375045D01*
X-2859739Y+6376224D01*
X-2858543Y+6377087D01*
X-2857347Y+6377636D01*
X-2856151Y+6377945D01*
X-2854960Y+6378044D01*
X-2862144Y+6370860D02*
X-2862119Y+6370263D01*
X-2861917Y+6369067D01*
X-2861493Y+6367871D01*
X-2860799Y+6366675D01*
X-2859739Y+6365496D01*
X-2858543Y+6364633D01*
X-2857347Y+6364084D01*
X-2856151Y+6363775D01*
X-2854960Y+6363676D01*
X-2847776Y+6370860D02*
X-2847801Y+6370263D01*
X-2848003Y+6369067D01*
X-2848427Y+6367871D01*
X-2849121Y+6366675D01*
X-2850181Y+6365496D01*
X-2851377Y+6364633D01*
X-2852573Y+6364084D01*
X-2853769Y+6363775D01*
X-2854960Y+6363676D01*
X-2832100Y+6553740D02*
X-2832100Y+6477540D01*
X-2816225Y+6462300D01*
X-2752725Y+6462300D01*
X-2736850Y+6477540D01*
X-2736850Y+6553740D01*
X-2673350Y+6523260D02*
X-2641600Y+6553740D01*
X-2641600Y+6462300D01*
X-2546350Y+6508020D02*
X-2562225Y+6523260D01*
X-2562225Y+6538500D01*
X-2546350Y+6553740D01*
X-2498725Y+6553740D01*
X-2482850Y+6538500D01*
X-2482850Y+6523260D01*
X-2498725Y+6508020D01*
X-2546350Y+6508020D01*
X-2562225Y+6492780D01*
X-2562225Y+6477540D01*
X-2546350Y+6462300D01*
X-2498725Y+6462300D01*
X-2482850Y+6477540D01*
X-2482850Y+6492780D01*
X-2498725Y+6508020D01*
X-777240Y+3807460D02*
X-777240Y+3045460D01*
X-904240Y+2918460D01*
X-1158240Y+2918460D01*
X-1285240Y+3045460D01*
X-1285240Y+3807460D01*
X-1158240Y+3934460D01*
X-904240Y+3934460D01*
X-777240Y+3807460D01*
X-736600Y+3299460D02*
X-645160Y+3394710D01*
X-645160Y+3299460D02*
X-736600Y+3394710D01*
X-706120Y+3458210D02*
X-736600Y+3489960D01*
X-645160Y+3489960D01*
X-784860Y+4084320D02*
X-789940Y+4058444D01*
X-804545Y+4034472D01*
X-827722Y+4012882D01*
X-858520Y+3994150D01*
X-895985Y+3978751D01*
X-939165Y+3967162D01*
X-987108Y+3959860D01*
X-1038860Y+3957320D01*
X-1292860Y+4084320D02*
X-1287780Y+4058444D01*
X-1273175Y+4034472D01*
X-1249998Y+4012882D01*
X-1219200Y+3994150D01*
X-1181735Y+3978751D01*
X-1138555Y+3967162D01*
X-1090612Y+3959860D01*
X-1038860Y+3957320D01*
X-784860Y+4084320D02*
X-789940Y+4110196D01*
X-804545Y+4134168D01*
X-827722Y+4155758D01*
X-858520Y+4174490D01*
X-895985Y+4189889D01*
X-939165Y+4201478D01*
X-987108Y+4208780D01*
X-1038860Y+4211320D01*
X-1292860Y+4084320D02*
X-1287780Y+4110196D01*
X-1273175Y+4134168D01*
X-1249998Y+4155758D01*
X-1219200Y+4174490D01*
X-1181735Y+4189889D01*
X-1138555Y+4201478D01*
X-1090612Y+4208780D01*
X-1038860Y+4211320D01*
X-1134110Y+3840480D02*
X-1149985Y+3825240D01*
X-1197610Y+3825240D01*
X-1229360Y+3855720D01*
X-1229360Y+3886200D01*
X-1197610Y+3916680D01*
X-1149985Y+3916680D01*
X-1134110Y+3901440D01*
X-1070610Y+3886200D02*
X-1038860Y+3916680D01*
X-1038860Y+3825240D01*
X-880110Y+3916680D02*
X-959485Y+3916680D01*
X-959485Y+3886200D01*
X-895985Y+3886200D01*
X-880110Y+3870960D01*
X-880110Y+3840480D01*
X-895985Y+3825240D01*
X-943610Y+3825240D01*
X-959485Y+3840480D01*
X-774700Y+2771140D02*
X-779780Y+2745264D01*
X-794385Y+2721292D01*
X-817562Y+2699702D01*
X-848360Y+2680970D01*
X-885825Y+2665571D01*
X-929005Y+2653982D01*
X-976948Y+2646680D01*
X-1028700Y+2644140D01*
X-1282700Y+2771140D02*
X-1277620Y+2745264D01*
X-1263015Y+2721292D01*
X-1239838Y+2699702D01*
X-1209040Y+2680970D01*
X-1171575Y+2665571D01*
X-1128395Y+2653982D01*
X-1080452Y+2646680D01*
X-1028700Y+2644140D01*
X-774700Y+2771140D02*
X-779780Y+2797016D01*
X-794385Y+2820988D01*
X-817562Y+2842578D01*
X-848360Y+2861310D01*
X-885825Y+2876709D01*
X-929005Y+2888298D01*
X-976948Y+2895600D01*
X-1028700Y+2898140D01*
X-1282700Y+2771140D02*
X-1277620Y+2797016D01*
X-1263015Y+2820988D01*
X-1239838Y+2842578D01*
X-1209040Y+2861310D01*
X-1171575Y+2876709D01*
X-1128395Y+2888298D01*
X-1080452Y+2895600D01*
X-1028700Y+2898140D01*
X-1123950Y+2527300D02*
X-1139825Y+2512060D01*
X-1187450Y+2512060D01*
X-1219200Y+2542540D01*
X-1219200Y+2573020D01*
X-1187450Y+2603500D01*
X-1139825Y+2603500D01*
X-1123950Y+2588260D01*
X-1060450Y+2573020D02*
X-1028700Y+2603500D01*
X-1028700Y+2512060D01*
X-869950Y+2588260D02*
X-885825Y+2603500D01*
X-933450Y+2603500D01*
X-949325Y+2588260D01*
X-949325Y+2527300D01*
X-933450Y+2512060D01*
X-885825Y+2512060D01*
X-869950Y+2527300D01*
X-869950Y+2542540D01*
X-885825Y+2557780D01*
X-949325Y+2557780D01*
X-4587240Y+6416040D02*
X-4587240Y+2987040D01*
X-4079240Y+2987040D01*
X-4079240Y+6416040D01*
X-4587240Y+6416040D02*
X-4460240Y+6416040D01*
X-4079240Y+6416040D02*
X-4206240Y+6416040D01*
X-4460240Y+6416040D02*
X-4457713Y+6390072D01*
X-4450442Y+6366058D01*
X-4438892Y+6344463D01*
X-4423529Y+6325751D01*
X-4404817Y+6310387D01*
X-4383221Y+6298838D01*
X-4359207Y+6291567D01*
X-4333240Y+6289040D01*
X-4206240Y+6416040D02*
X-4208767Y+6390072D01*
X-4216038Y+6366058D01*
X-4227588Y+6344463D01*
X-4242951Y+6325751D01*
X-4261663Y+6310387D01*
X-4283258Y+6298838D01*
X-4307272Y+6291567D01*
X-4333240Y+6289040D01*
X-4539416Y+6365240D02*
X-4539441Y+6365837D01*
X-4539643Y+6367033D01*
X-4540067Y+6368229D01*
X-4540761Y+6369425D01*
X-4541821Y+6370604D01*
X-4543017Y+6371467D01*
X-4544213Y+6372016D01*
X-4545409Y+6372325D01*
X-4546600Y+6372424D01*
X-4553784Y+6365240D02*
X-4553759Y+6365837D01*
X-4553557Y+6367033D01*
X-4553133Y+6368229D01*
X-4552439Y+6369425D01*
X-4551379Y+6370604D01*
X-4550183Y+6371467D01*
X-4548987Y+6372016D01*
X-4547791Y+6372325D01*
X-4546600Y+6372424D01*
X-4553784Y+6365240D02*
X-4553759Y+6364643D01*
X-4553557Y+6363447D01*
X-4553133Y+6362251D01*
X-4552439Y+6361055D01*
X-4551379Y+6359876D01*
X-4550183Y+6359013D01*
X-4548987Y+6358464D01*
X-4547791Y+6358155D01*
X-4546600Y+6358056D01*
X-4539416Y+6365240D02*
X-4539441Y+6364643D01*
X-4539643Y+6363447D01*
X-4540067Y+6362251D01*
X-4540761Y+6361055D01*
X-4541821Y+6359876D01*
X-4543017Y+6359013D01*
X-4544213Y+6358464D01*
X-4545409Y+6358155D01*
X-4546600Y+6358056D01*
X-4460240Y+6548120D02*
X-4460240Y+6471920D01*
X-4444365Y+6456680D01*
X-4380865Y+6456680D01*
X-4364990Y+6471920D01*
X-4364990Y+6548120D01*
X-4237990Y+6532880D02*
X-4253865Y+6548120D01*
X-4301490Y+6548120D01*
X-4317365Y+6532880D01*
X-4317365Y+6471920D01*
X-4301490Y+6456680D01*
X-4253865Y+6456680D01*
X-4237990Y+6471920D01*
X-4237990Y+6487160D01*
X-4253865Y+6502400D01*
X-4317365Y+6502400D01*
X-779780Y+2161540D02*
X-779780Y+1399540D01*
X-906780Y+1272540D01*
X-1160780Y+1272540D01*
X-1287780Y+1399540D01*
X-1287780Y+2161540D01*
X-1160780Y+2288540D01*
X-906780Y+2288540D01*
X-779780Y+2161540D01*
X-739140Y+1653540D02*
X-647700Y+1748790D01*
X-647700Y+1653540D02*
X-739140Y+1748790D01*
X-723900Y+1796415D02*
X-739140Y+1812290D01*
X-739140Y+1859915D01*
X-723900Y+1875790D01*
X-708660Y+1875790D01*
X-693420Y+1859915D01*
X-693420Y+1812290D01*
X-678180Y+1796415D01*
X-647700Y+1796415D01*
X-647700Y+1875790D01*
X-764540Y+2446020D02*
X-769620Y+2420144D01*
X-784225Y+2396172D01*
X-807402Y+2374582D01*
X-838200Y+2355850D01*
X-875665Y+2340451D01*
X-918845Y+2328862D01*
X-966788Y+2321560D01*
X-1018540Y+2319020D01*
X-1272540Y+2446020D02*
X-1267460Y+2420144D01*
X-1252855Y+2396172D01*
X-1229678Y+2374582D01*
X-1198880Y+2355850D01*
X-1161415Y+2340451D01*
X-1118235Y+2328862D01*
X-1070292Y+2321560D01*
X-1018540Y+2319020D01*
X-764540Y+2446020D02*
X-769620Y+2471896D01*
X-784225Y+2495868D01*
X-807402Y+2517458D01*
X-838200Y+2536190D01*
X-875665Y+2551589D01*
X-918845Y+2563178D01*
X-966788Y+2570480D01*
X-1018540Y+2573020D01*
X-1272540Y+2446020D02*
X-1267460Y+2471896D01*
X-1252855Y+2495868D01*
X-1229678Y+2517458D01*
X-1198880Y+2536190D01*
X-1161415Y+2551589D01*
X-1118235Y+2563178D01*
X-1070292Y+2570480D01*
X-1018540Y+2573020D01*
X-1050290Y+2202180D02*
X-1066165Y+2186940D01*
X-1113790Y+2186940D01*
X-1145540Y+2217420D01*
X-1145540Y+2247900D01*
X-1113790Y+2278380D01*
X-1066165Y+2278380D01*
X-1050290Y+2263140D01*
X-986790Y+2232660D02*
X-1002665Y+2247900D01*
X-1002665Y+2263140D01*
X-986790Y+2278380D01*
X-939165Y+2278380D01*
X-923290Y+2263140D01*
X-923290Y+2247900D01*
X-939165Y+2232660D01*
X-986790Y+2232660D01*
X-1002665Y+2217420D01*
X-1002665Y+2202180D01*
X-986790Y+2186940D01*
X-939165Y+2186940D01*
X-923290Y+2202180D01*
X-923290Y+2217420D01*
X-939165Y+2232660D01*
X-759460Y+1127760D02*
X-764540Y+1101884D01*
X-779145Y+1077912D01*
X-802322Y+1056322D01*
X-833120Y+1037590D01*
X-870585Y+1022191D01*
X-913765Y+1010602D01*
X-961708Y+1003300D01*
X-1013460Y+1000760D01*
X-1267460Y+1127760D02*
X-1262380Y+1101884D01*
X-1247775Y+1077912D01*
X-1224598Y+1056322D01*
X-1193800Y+1037590D01*
X-1156335Y+1022191D01*
X-1113155Y+1010602D01*
X-1065212Y+1003300D01*
X-1013460Y+1000760D01*
X-759460Y+1127760D02*
X-764540Y+1153636D01*
X-779145Y+1177608D01*
X-802322Y+1199198D01*
X-833120Y+1217930D01*
X-870585Y+1233329D01*
X-913765Y+1244918D01*
X-961708Y+1252220D01*
X-1013460Y+1254760D01*
X-1267460Y+1127760D02*
X-1262380Y+1153636D01*
X-1247775Y+1177608D01*
X-1224598Y+1199198D01*
X-1193800Y+1217930D01*
X-1156335Y+1233329D01*
X-1113155Y+1244918D01*
X-1065212Y+1252220D01*
X-1013460Y+1254760D01*
X-1108710Y+883920D02*
X-1124585Y+868680D01*
X-1172210Y+868680D01*
X-1203960Y+899160D01*
X-1203960Y+929640D01*
X-1172210Y+960120D01*
X-1124585Y+960120D01*
X-1108710Y+944880D01*
X-1061085Y+944880D02*
X-1045210Y+960120D01*
X-997585Y+960120D01*
X-981710Y+944880D01*
X-981710Y+929640D01*
X-997585Y+914400D01*
X-1045210Y+914400D01*
X-1061085Y+899160D01*
X-1061085Y+868680D01*
X-981710Y+868680D01*
X-934085Y+944880D02*
X-918210Y+960120D01*
X-870585Y+960120D01*
X-854710Y+944880D01*
X-854710Y+929640D01*
X-870585Y+914400D01*
X-918210Y+914400D01*
X-934085Y+899160D01*
X-934085Y+868680D01*
X-854710Y+868680D01*
X-5666740Y+5410200D02*
X-5666740Y+5537200D01*
X-5158740Y+5537200D01*
X-5158740Y+5029200D01*
X-5666740Y+5029200D01*
X-5666740Y+5156200D01*
X-5539740Y+5283200D02*
X-5542176Y+5309076D01*
X-5549225Y+5333048D01*
X-5560502Y+5354638D01*
X-5575618Y+5373370D01*
X-5594186Y+5388769D01*
X-5615821Y+5400358D01*
X-5640134Y+5407660D01*
X-5666740Y+5410200D01*
X-5539740Y+5283200D02*
X-5542176Y+5256594D01*
X-5549225Y+5232281D01*
X-5560502Y+5210646D01*
X-5575618Y+5192078D01*
X-5594186Y+5176962D01*
X-5615821Y+5165685D01*
X-5640134Y+5158636D01*
X-5666740Y+5156200D01*
X-5798820Y+5156200D02*
X-5722620Y+5156200D01*
X-5707380Y+5172075D01*
X-5707380Y+5235575D01*
X-5722620Y+5251450D01*
X-5798820Y+5251450D01*
X-5798820Y+5299075D02*
X-5798820Y+5378450D01*
X-5783580Y+5378450D01*
X-5707380Y+5299075D01*
X-5872480Y+4351020D02*
X-5872480Y+4478020D01*
X-5935980Y+4478020D02*
X-5808980Y+4478020D01*
X-5808980Y+4986020D01*
X-5935980Y+4986020D01*
X-5935980Y+4478020D01*
X-5872480Y+4986020D02*
X-5872480Y+5113020D01*
X-5976620Y+4541520D02*
X-6068060Y+4541520D01*
X-6068060Y+4620895D01*
X-6052820Y+4636770D01*
X-6037580Y+4636770D01*
X-6022340Y+4620895D01*
X-6022340Y+4541520D01*
X-6022340Y+4620895D02*
X-6007100Y+4636770D01*
X-5976620Y+4636770D01*
X-6052820Y+4684395D02*
X-6068060Y+4700270D01*
X-6068060Y+4747895D01*
X-6052820Y+4763770D01*
X-6037580Y+4763770D01*
X-6022340Y+4747895D01*
X-6022340Y+4700270D01*
X-6007100Y+4684395D01*
X-5976620Y+4684395D01*
X-5976620Y+4763770D01*
X-6052820Y+4811395D02*
X-6068060Y+4827270D01*
X-6068060Y+4874895D01*
X-6052820Y+4890770D01*
X-6037580Y+4890770D01*
X-6022340Y+4874895D01*
X-6022340Y+4827270D01*
X-6007100Y+4811395D01*
X-5976620Y+4811395D01*
X-5976620Y+4890770D01*
X-1663700Y+7061200D02*
X-266700Y+7061200D01*
X-266700Y+7823200D01*
X-1663700Y+7823200D01*
X-1663700Y+7061200D01*
X-1663700Y+7696200D02*
X-266700Y+7696200D01*
X-1155700Y+7955280D02*
X-1155700Y+7909560D01*
X-1108075Y+7863840D01*
X-1060450Y+7909560D01*
X-1060450Y+7955280D01*
X-1012825Y+7955280D02*
X-949325Y+7955280D01*
X-981075Y+7955280D02*
X-981075Y+7863840D01*
X-1012825Y+7863840D02*
X-949325Y+7863840D01*
X-901700Y+7863840D02*
X-901700Y+7955280D01*
X-806450Y+7863840D01*
X-806450Y+7955280D01*
X-1971040Y+6101080D02*
X-1717040Y+6101080D01*
X-1717040Y+6863080D01*
X-1971040Y+6863080D01*
X-1971040Y+6101080D01*
X-1717040Y+6863080D02*
X-1590040Y+6863080D01*
X-1590040Y+6101080D01*
X-1717040Y+6101080D01*
X-1717040Y+6863080D02*
X-1590040Y+6736080D01*
X-1717040Y+6736080D02*
X-1590040Y+6609080D01*
X-1717040Y+6609080D02*
X-1590040Y+6482080D01*
X-1717040Y+6482080D02*
X-1590040Y+6355080D01*
X-1717040Y+6355080D02*
X-1590040Y+6228080D01*
X-1717040Y+6228080D02*
X-1590040Y+6101080D01*
X-1549400Y+6355080D02*
X-1473200Y+6355080D01*
X-1457960Y+6370955D01*
X-1457960Y+6434455D01*
X-1473200Y+6450330D01*
X-1549400Y+6450330D01*
X-1503680Y+6513830D02*
X-1518920Y+6497955D01*
X-1534160Y+6497955D01*
X-1549400Y+6513830D01*
X-1549400Y+6561455D01*
X-1534160Y+6577330D01*
X-1518920Y+6577330D01*
X-1503680Y+6561455D01*
X-1503680Y+6513830D01*
X-1488440Y+6497955D01*
X-1473200Y+6497955D01*
X-1457960Y+6513830D01*
X-1457960Y+6561455D01*
X-1473200Y+6577330D01*
X-1488440Y+6577330D01*
X-1503680Y+6561455D01*
X-530860Y+6179820D02*
X-264160Y+6179820D01*
X-264160Y+6697980D01*
X-530860Y+6697980D01*
X-530860Y+6179820D01*
X-266700Y+6616700D02*
X-528320Y+6616700D01*
X-398780Y+6769100D02*
X-398780Y+6697980D01*
X-398780Y+6179820D02*
X-398780Y+6108700D01*
X-132080Y+6311900D02*
X-223520Y+6311900D01*
X-223520Y+6375400D01*
X-193040Y+6407150D01*
X-162560Y+6407150D01*
X-132080Y+6375400D01*
X-132080Y+6311900D01*
X-193040Y+6470650D02*
X-223520Y+6502400D01*
X-132080Y+6502400D01*
D29*
X-571880Y+6405880D02*
X-573411Y+6444980D01*
X-585834Y+6523181D01*
X-611686Y+6601382D01*
X-653446Y+6679583D01*
X-716685Y+6757784D01*
X-794878Y+6822137D01*
X-873079Y+6864659D01*
X-951280Y+6891118D01*
X-1029481Y+6904079D01*
X-1071880Y+6905880D01*
X-1571880Y+6405880D02*
X-1570349Y+6444980D01*
X-1557926Y+6523181D01*
X-1532074Y+6601382D01*
X-1490314Y+6679583D01*
X-1427075Y+6757784D01*
X-1348882Y+6822137D01*
X-1270681Y+6864659D01*
X-1192480Y+6891118D01*
X-1114279Y+6904079D01*
X-1071880Y+6905880D01*
X-1571880Y+6405880D02*
X-1570349Y+6366780D01*
X-1557926Y+6288579D01*
X-1532074Y+6210378D01*
X-1490314Y+6132177D01*
X-1427075Y+6053976D01*
X-1348882Y+5989623D01*
X-1270681Y+5947101D01*
X-1192480Y+5920642D01*
X-1114279Y+5907681D01*
X-1071880Y+5905880D01*
X-571880Y+6405880D02*
X-573411Y+6366780D01*
X-585834Y+6288579D01*
X-611686Y+6210378D01*
X-653446Y+6132177D01*
X-716685Y+6053976D01*
X-794878Y+5989623D01*
X-873079Y+5947101D01*
X-951280Y+5920642D01*
X-1029481Y+5907681D01*
X-1071880Y+5905880D01*
D27*
X-1437880Y+6781880D02*
X-1437915Y+6782711D01*
X-1438196Y+6784375D01*
X-1438786Y+6786039D01*
X-1439750Y+6787703D01*
X-1441225Y+6789344D01*
X-1442889Y+6790545D01*
X-1444553Y+6791310D01*
X-1446217Y+6791741D01*
X-1447880Y+6791880D01*
X-1457880Y+6781880D02*
X-1457845Y+6782711D01*
X-1457564Y+6784375D01*
X-1456974Y+6786039D01*
X-1456010Y+6787703D01*
X-1454535Y+6789344D01*
X-1452871Y+6790545D01*
X-1451207Y+6791310D01*
X-1449543Y+6791741D01*
X-1447880Y+6791880D01*
X-1457880Y+6781880D02*
X-1457845Y+6781049D01*
X-1457564Y+6779385D01*
X-1456974Y+6777721D01*
X-1456010Y+6776057D01*
X-1454535Y+6774416D01*
X-1452871Y+6773215D01*
X-1451207Y+6772450D01*
X-1449543Y+6772019D01*
X-1447880Y+6771880D01*
X-1437880Y+6781880D02*
X-1437915Y+6781049D01*
X-1438196Y+6779385D01*
X-1438786Y+6777721D01*
X-1439750Y+6776057D01*
X-1441225Y+6774416D01*
X-1442889Y+6773215D01*
X-1444553Y+6772450D01*
X-1446217Y+6772019D01*
X-1447880Y+6771880D01*
D25*
X-1167130Y+6957600D02*
X-1183005Y+6942360D01*
X-1230630Y+6942360D01*
X-1262380Y+6972840D01*
X-1262380Y+7003320D01*
X-1230630Y+7033800D01*
X-1183005Y+7033800D01*
X-1167130Y+7018560D01*
X-1103630Y+7003320D02*
X-1071880Y+7033800D01*
X-1071880Y+6942360D01*
X-913130Y+6972840D02*
X-1008380Y+6972840D01*
X-944880Y+7033800D01*
X-944880Y+6942360D01*
D29*
X-4923980Y+2783840D02*
X-4925511Y+2822940D01*
X-4937934Y+2901141D01*
X-4963786Y+2979342D01*
X-5005546Y+3057543D01*
X-5068785Y+3135744D01*
X-5146978Y+3200097D01*
X-5225179Y+3242619D01*
X-5303380Y+3269078D01*
X-5381581Y+3282039D01*
X-5423980Y+3283840D01*
X-5923980Y+2783840D02*
X-5922449Y+2822940D01*
X-5910026Y+2901141D01*
X-5884174Y+2979342D01*
X-5842414Y+3057543D01*
X-5779175Y+3135744D01*
X-5700982Y+3200097D01*
X-5622781Y+3242619D01*
X-5544580Y+3269078D01*
X-5466379Y+3282039D01*
X-5423980Y+3283840D01*
X-5923980Y+2783840D02*
X-5922449Y+2744740D01*
X-5910026Y+2666539D01*
X-5884174Y+2588338D01*
X-5842414Y+2510137D01*
X-5779175Y+2431936D01*
X-5700982Y+2367583D01*
X-5622781Y+2325061D01*
X-5544580Y+2298602D01*
X-5466379Y+2285641D01*
X-5423980Y+2283840D01*
X-4923980Y+2783840D02*
X-4925511Y+2744740D01*
X-4937934Y+2666539D01*
X-4963786Y+2588338D01*
X-5005546Y+2510137D01*
X-5068785Y+2431936D01*
X-5146978Y+2367583D01*
X-5225179Y+2325061D01*
X-5303380Y+2298602D01*
X-5381581Y+2285641D01*
X-5423980Y+2283840D01*
D27*
X-5789980Y+3159840D02*
X-5790015Y+3160671D01*
X-5790296Y+3162335D01*
X-5790886Y+3163999D01*
X-5791850Y+3165663D01*
X-5793325Y+3167304D01*
X-5794989Y+3168505D01*
X-5796653Y+3169270D01*
X-5798317Y+3169701D01*
X-5799980Y+3169840D01*
X-5809980Y+3159840D02*
X-5809945Y+3160671D01*
X-5809664Y+3162335D01*
X-5809074Y+3163999D01*
X-5808110Y+3165663D01*
X-5806635Y+3167304D01*
X-5804971Y+3168505D01*
X-5803307Y+3169270D01*
X-5801643Y+3169701D01*
X-5799980Y+3169840D01*
X-5809980Y+3159840D02*
X-5809945Y+3159009D01*
X-5809664Y+3157345D01*
X-5809074Y+3155681D01*
X-5808110Y+3154017D01*
X-5806635Y+3152376D01*
X-5804971Y+3151175D01*
X-5803307Y+3150410D01*
X-5801643Y+3149979D01*
X-5799980Y+3149840D01*
X-5789980Y+3159840D02*
X-5790015Y+3159009D01*
X-5790296Y+3157345D01*
X-5790886Y+3155681D01*
X-5791850Y+3154017D01*
X-5793325Y+3152376D01*
X-5794989Y+3151175D01*
X-5796653Y+3150410D01*
X-5798317Y+3149979D01*
X-5799980Y+3149840D01*
D25*
X-5519230Y+3335560D02*
X-5535105Y+3320320D01*
X-5582730Y+3320320D01*
X-5614480Y+3350800D01*
X-5614480Y+3381280D01*
X-5582730Y+3411760D01*
X-5535105Y+3411760D01*
X-5519230Y+3396520D01*
X-5455730Y+3381280D02*
X-5423980Y+3411760D01*
X-5423980Y+3320320D01*
X-5344605Y+3411760D02*
X-5265230Y+3411760D01*
X-5265230Y+3396520D01*
X-5344605Y+3320320D01*
D29*
X-5934900Y+6365240D02*
X-5936431Y+6404340D01*
X-5948854Y+6482541D01*
X-5974706Y+6560742D01*
X-6016466Y+6638943D01*
X-6079705Y+6717144D01*
X-6157898Y+6781497D01*
X-6236099Y+6824019D01*
X-6314300Y+6850478D01*
X-6392501Y+6863439D01*
X-6434900Y+6865240D01*
X-6934900Y+6365240D02*
X-6933369Y+6404340D01*
X-6920946Y+6482541D01*
X-6895094Y+6560742D01*
X-6853334Y+6638943D01*
X-6790095Y+6717144D01*
X-6711902Y+6781497D01*
X-6633701Y+6824019D01*
X-6555500Y+6850478D01*
X-6477299Y+6863439D01*
X-6434900Y+6865240D01*
X-6934900Y+6365240D02*
X-6933369Y+6326140D01*
X-6920946Y+6247939D01*
X-6895094Y+6169738D01*
X-6853334Y+6091537D01*
X-6790095Y+6013336D01*
X-6711902Y+5948983D01*
X-6633701Y+5906461D01*
X-6555500Y+5880002D01*
X-6477299Y+5867041D01*
X-6434900Y+5865240D01*
X-5934900Y+6365240D02*
X-5936431Y+6326140D01*
X-5948854Y+6247939D01*
X-5974706Y+6169738D01*
X-6016466Y+6091537D01*
X-6079705Y+6013336D01*
X-6157898Y+5948983D01*
X-6236099Y+5906461D01*
X-6314300Y+5880002D01*
X-6392501Y+5867041D01*
X-6434900Y+5865240D01*
D27*
X-6048900Y+5989240D02*
X-6048935Y+5990071D01*
X-6049216Y+5991735D01*
X-6049806Y+5993399D01*
X-6050770Y+5995063D01*
X-6052245Y+5996704D01*
X-6053909Y+5997905D01*
X-6055573Y+5998670D01*
X-6057237Y+5999101D01*
X-6058900Y+5999240D01*
X-6068900Y+5989240D02*
X-6068865Y+5990071D01*
X-6068584Y+5991735D01*
X-6067994Y+5993399D01*
X-6067030Y+5995063D01*
X-6065555Y+5996704D01*
X-6063891Y+5997905D01*
X-6062227Y+5998670D01*
X-6060563Y+5999101D01*
X-6058900Y+5999240D01*
X-6068900Y+5989240D02*
X-6068865Y+5988409D01*
X-6068584Y+5986745D01*
X-6067994Y+5985081D01*
X-6067030Y+5983417D01*
X-6065555Y+5981776D01*
X-6063891Y+5980575D01*
X-6062227Y+5979810D01*
X-6060563Y+5979379D01*
X-6058900Y+5979240D01*
X-6048900Y+5989240D02*
X-6048935Y+5988409D01*
X-6049216Y+5986745D01*
X-6049806Y+5985081D01*
X-6050770Y+5983417D01*
X-6052245Y+5981776D01*
X-6053909Y+5980575D01*
X-6055573Y+5979810D01*
X-6057237Y+5979379D01*
X-6058900Y+5979240D01*
D25*
X-6530150Y+5752560D02*
X-6546025Y+5737320D01*
X-6593650Y+5737320D01*
X-6625400Y+5767800D01*
X-6625400Y+5798280D01*
X-6593650Y+5828760D01*
X-6546025Y+5828760D01*
X-6530150Y+5813520D01*
X-6466650Y+5798280D02*
X-6434900Y+5828760D01*
X-6434900Y+5737320D01*
X-6339650Y+5783040D02*
X-6355525Y+5798280D01*
X-6355525Y+5813520D01*
X-6339650Y+5828760D01*
X-6292025Y+5828760D01*
X-6276150Y+5813520D01*
X-6276150Y+5798280D01*
X-6292025Y+5783040D01*
X-6339650Y+5783040D01*
X-6355525Y+5767800D01*
X-6355525Y+5752560D01*
X-6339650Y+5737320D01*
X-6292025Y+5737320D01*
X-6276150Y+5752560D01*
X-6276150Y+5767800D01*
X-6292025Y+5783040D01*
D29*
X-4903660Y+6365240D02*
X-4905191Y+6404340D01*
X-4917614Y+6482541D01*
X-4943466Y+6560742D01*
X-4985226Y+6638943D01*
X-5048465Y+6717144D01*
X-5126658Y+6781497D01*
X-5204859Y+6824019D01*
X-5283060Y+6850478D01*
X-5361261Y+6863439D01*
X-5403660Y+6865240D01*
X-5903660Y+6365240D02*
X-5902129Y+6404340D01*
X-5889706Y+6482541D01*
X-5863854Y+6560742D01*
X-5822094Y+6638943D01*
X-5758855Y+6717144D01*
X-5680662Y+6781497D01*
X-5602461Y+6824019D01*
X-5524260Y+6850478D01*
X-5446059Y+6863439D01*
X-5403660Y+6865240D01*
X-5903660Y+6365240D02*
X-5902129Y+6326140D01*
X-5889706Y+6247939D01*
X-5863854Y+6169738D01*
X-5822094Y+6091537D01*
X-5758855Y+6013336D01*
X-5680662Y+5948983D01*
X-5602461Y+5906461D01*
X-5524260Y+5880002D01*
X-5446059Y+5867041D01*
X-5403660Y+5865240D01*
X-4903660Y+6365240D02*
X-4905191Y+6326140D01*
X-4917614Y+6247939D01*
X-4943466Y+6169738D01*
X-4985226Y+6091537D01*
X-5048465Y+6013336D01*
X-5126658Y+5948983D01*
X-5204859Y+5906461D01*
X-5283060Y+5880002D01*
X-5361261Y+5867041D01*
X-5403660Y+5865240D01*
D27*
X-5769660Y+6741240D02*
X-5769695Y+6742071D01*
X-5769976Y+6743735D01*
X-5770566Y+6745399D01*
X-5771530Y+6747063D01*
X-5773005Y+6748704D01*
X-5774669Y+6749905D01*
X-5776333Y+6750670D01*
X-5777997Y+6751101D01*
X-5779660Y+6751240D01*
X-5789660Y+6741240D02*
X-5789625Y+6742071D01*
X-5789344Y+6743735D01*
X-5788754Y+6745399D01*
X-5787790Y+6747063D01*
X-5786315Y+6748704D01*
X-5784651Y+6749905D01*
X-5782987Y+6750670D01*
X-5781323Y+6751101D01*
X-5779660Y+6751240D01*
X-5789660Y+6741240D02*
X-5789625Y+6740409D01*
X-5789344Y+6738745D01*
X-5788754Y+6737081D01*
X-5787790Y+6735417D01*
X-5786315Y+6733776D01*
X-5784651Y+6732575D01*
X-5782987Y+6731810D01*
X-5781323Y+6731379D01*
X-5779660Y+6731240D01*
X-5769660Y+6741240D02*
X-5769695Y+6740409D01*
X-5769976Y+6738745D01*
X-5770566Y+6737081D01*
X-5771530Y+6735417D01*
X-5773005Y+6733776D01*
X-5774669Y+6732575D01*
X-5776333Y+6731810D01*
X-5777997Y+6731379D01*
X-5779660Y+6731240D01*
D25*
X-5498910Y+6916960D02*
X-5514785Y+6901720D01*
X-5562410Y+6901720D01*
X-5594160Y+6932200D01*
X-5594160Y+6962680D01*
X-5562410Y+6993160D01*
X-5514785Y+6993160D01*
X-5498910Y+6977920D01*
X-5435410Y+6962680D02*
X-5403660Y+6993160D01*
X-5403660Y+6901720D01*
X-5244910Y+6962680D02*
X-5260785Y+6947440D01*
X-5308410Y+6947440D01*
X-5324285Y+6962680D01*
X-5324285Y+6977920D01*
X-5308410Y+6993160D01*
X-5260785Y+6993160D01*
X-5244910Y+6977920D01*
X-5244910Y+6916960D01*
X-5260785Y+6901720D01*
X-5308410Y+6901720D01*
X-6814820Y+3860800D02*
X-6052820Y+3860800D01*
X-6052820Y+5638800D01*
X-6814820Y+5638800D01*
X-6814820Y+3860800D01*
X-6687820Y+3860800D02*
X-6687820Y+5638800D01*
X-6885940Y+4622800D02*
X-6870700Y+4622800D01*
X-6855460Y+4638675D01*
X-6855460Y+4702175D01*
X-6870700Y+4718050D01*
X-6946900Y+4718050D01*
X-6916420Y+4781550D02*
X-6946900Y+4813300D01*
X-6855460Y+4813300D01*
M02*
